<mxfile host="app.diagrams.net" agent="Mozilla/5.0 (Windows NT 10.0; Win64; x64) AppleWebKit/537.36 (KHTML, like Gecko) Chrome/130.0.0.0 Safari/537.36" version="24.8.4" pages="3">
  <diagram name="Source to Processed Data" id="OfZNXUGAtHugelrbWhRy">
    <mxGraphModel dx="2620" dy="965" grid="1" gridSize="10" guides="1" tooltips="1" connect="1" arrows="1" fold="1" page="1" pageScale="1" pageWidth="827" pageHeight="1169" math="0" shadow="0">
      <root>
        <mxCell id="0" />
        <mxCell id="1" parent="0" />
        <UserObject label="" tags="Background" id="NYW0w-dOLcJWTq2XH8xD-1">
          <mxCell style="vsdxID=295;fillColor=none;gradientColor=none;shape=stencil(nZBRDoQgDERP03+WHsHFe5iISyOCQdT19kIaIxq//Jtp3zTpAFaTaUYNUkwx+F6v1EYD+AUpyRkdKCYFqACrzgf9C352LfuxyWRWg1/yhT/nRE5IsZWuZtCSK8CPeI0e/hF+jV7AJM4PO7KWCyr390bSiNtEtQM=);strokeColor=#000000;spacingTop=-3;spacingBottom=-3;spacingLeft=-3;spacingRight=-3;points=[];labelBackgroundColor=none;rounded=0;html=1;whiteSpace=wrap;" vertex="1" parent="1">
            <mxGeometry x="476.38" y="230" width="323.62" height="656.5" as="geometry" />
          </mxCell>
        </UserObject>
        <UserObject label="" tags="Background" id="NYW0w-dOLcJWTq2XH8xD-2">
          <mxCell style="vsdxID=296;fillColor=#F58534;gradientColor=none;shape=stencil(zVhbbsIwEDxNfle2189v2t4DCShRKSBKX7evoygU22QTF6fKn0NmzD5nHVe4eNsuj+tKsLfz6fCy/qxX522FD5UQ9X67PtVnv6rwscLF5nBaP58O7/tV+3xcNshm9Xr4aHb4anmKNRTBvttHztrnpxa7q/dX2BBqJGg7FqwZSNUPlg6cDghKAuf9hM7O6/1xPLyxXffD6aCEAZyVn5HhRoEyf04R5adCQDF2Z7TgiKAkMcnFCwGacJNbkCYkcGCynyA0CBUTHJGlGwQH3PUTUHUGXAgWBEGQApiNCZYwKSVIsMQfRJUjAKn+MOBEzuYJ3ueEyJiWcYq5AU14a7B7fSE4QEKdUgLtgeWgMIqQIzywGtDk7J/gORjCfoegwoojdDsWEeyqdRR6oNVTS7ykKSJXjsW17wkij6BAEOWZJssXICN8MBq0CwkaJJGuGwQLjAhqWtFDSp60jHIgCB9SgqZLKOp4jUBIYionA7unhMZ+ImmpJA7M0qaMs3Jwg6C7yTBycDR1REQpne6+ULPwdCfoLiAjW22gkf3i91i4qXe7y5u+02KB3vWjkiibWenmFNIWxrOA8PhBRx1N5jcZJxDn6JPmfuksfDyZQv1Dnwvoc8nzYeHREvpaQPi98koiONnH8ymGV6S8946W0h9JEwzH//rgTMZoLr7w2G0vcwaH7zyuavKuGGib8w8g4XajAzAXYOBwlHa/iC/t/E/thR8+/gA=);strokeColor=#000000;spacingTop=-3;spacingBottom=-3;spacingLeft=-3;spacingRight=-3;points=[];labelBackgroundColor=none;rounded=0;html=1;whiteSpace=wrap;" vertex="1" parent="1">
            <mxGeometry x="522" y="370.5" width="56" height="70" as="geometry" />
          </mxCell>
        </UserObject>
        <mxCell id="NYW0w-dOLcJWTq2XH8xD-3" value="" style="edgeStyle=orthogonalEdgeStyle;rounded=0;orthogonalLoop=1;jettySize=auto;html=1;fontStyle=1" edge="1" parent="1" source="NYW0w-dOLcJWTq2XH8xD-53" target="NYW0w-dOLcJWTq2XH8xD-2">
          <mxGeometry relative="1" as="geometry">
            <mxPoint x="611.4705882352941" y="531" as="sourcePoint" />
          </mxGeometry>
        </mxCell>
        <UserObject label="&lt;div style=&quot;&quot;&gt;&lt;span style=&quot;font-size: 17.46px;&quot;&gt;&lt;b&gt;PROCESSED DATA LOCATION&lt;/b&gt;&lt;/span&gt;&lt;/div&gt;" tags="Background" id="NYW0w-dOLcJWTq2XH8xD-4">
          <mxCell style="verticalAlign=middle;align=center;overflow=width;vsdxID=346;fillColor=none;gradientColor=none;shape=stencil(nZBRDoQgDERP03+WHsHFe5iISyOCQdT19kIaIxq//Jtp3zTpAFaTaUYNUkwx+F6v1EYD+AUpyRkdKCYFqACrzgf9C352LfuxyWRWg1/yhT/nRE5IsZWuZtCSK8CPeI0e/hF+jV7AJM4PO7KWCyr390bSiNtEtQM=);strokeColor=none;spacingTop=-3;spacingBottom=-3;spacingLeft=-3;spacingRight=-3;points=[];labelBackgroundColor=none;rounded=0;html=1;whiteSpace=wrap;" vertex="1" parent="1">
            <mxGeometry x="546.75" y="261" width="172.25" height="40" as="geometry" />
          </mxCell>
        </UserObject>
        <UserObject label="&lt;div style=&quot;font-size: 1px&quot;&gt;&lt;font style=&quot;font-size:11.64px;font-family:Helvetica;color:#000000;direction:ltr;letter-spacing:0px;line-height:120%;opacity:1&quot;&gt;&lt;b&gt;S3 BUCKET FOR PROCESSED DATA&lt;/b&gt;&lt;/font&gt;&lt;/div&gt;&lt;div style=&quot;font-size: 1px&quot;&gt;&lt;font style=&quot;font-size:11.64px;font-family:Helvetica;color:#000000;direction:ltr;letter-spacing:0px;line-height:120%;opacity:1&quot;&gt;&lt;b&gt;(mt-source-data-processed)&lt;/b&gt;&lt;/font&gt;&lt;/div&gt;" tags="Background" id="NYW0w-dOLcJWTq2XH8xD-5">
          <mxCell style="verticalAlign=middle;align=center;overflow=width;vsdxID=348;fillColor=none;gradientColor=none;shape=stencil(nZBRDoQgDERP03+WHsHFe5iISyOCQdT19kIaIxq//Jtp3zTpAFaTaUYNUkwx+F6v1EYD+AUpyRkdKCYFqACrzgf9C352LfuxyWRWg1/yhT/nRE5IsZWuZtCSK8CPeI0e/hF+jV7AJM4PO7KWCyr390bSiNtEtQM=);strokeColor=none;spacingTop=-3;spacingBottom=-3;spacingLeft=-3;spacingRight=-3;points=[];labelBackgroundColor=none;rounded=0;html=1;whiteSpace=wrap;" vertex="1" parent="1">
            <mxGeometry x="524" y="615" width="210" height="30" as="geometry" />
          </mxCell>
        </UserObject>
        <UserObject label="&lt;div style=&quot;font-size: 1px&quot;&gt;&lt;font style=&quot;font-size:11.64px;font-family:Helvetica;color:#000000;direction:ltr;letter-spacing:0px;line-height:120%;opacity:1&quot;&gt;&lt;b&gt;ATHENA&lt;/b&gt;&lt;/font&gt;&lt;/div&gt;&lt;div style=&quot;font-size: 1px&quot;&gt;&lt;font style=&quot;font-size:11.64px;font-family:Helvetica;color:#000000;direction:ltr;letter-spacing:0px;line-height:120%;opacity:1&quot;&gt;&lt;b&gt;DATABASE&lt;/b&gt;&lt;/font&gt;&lt;/div&gt;" tags="Background" id="NYW0w-dOLcJWTq2XH8xD-6">
          <mxCell style="verticalAlign=middle;align=center;overflow=width;vsdxID=349;fillColor=none;gradientColor=none;shape=stencil(nZBRDoQgDERP03+WHsHFe5iISyOCQdT19kIaIxq//Jtp3zTpAFaTaUYNUkwx+F6v1EYD+AUpyRkdKCYFqACrzgf9C352LfuxyWRWg1/yhT/nRE5IsZWuZtCSK8CPeI0e/hF+jV7AJM4PO7KWCyr390bSiNtEtQM=);strokeColor=none;spacingTop=-3;spacingBottom=-3;spacingLeft=-3;spacingRight=-3;points=[];labelBackgroundColor=none;rounded=0;html=1;whiteSpace=wrap;" vertex="1" parent="1">
            <mxGeometry x="510.5" y="313.5" width="79" height="57" as="geometry" />
          </mxCell>
        </UserObject>
        <UserObject label="&lt;div style=&quot;font-size: 1px&quot;&gt;&lt;font style=&quot;font-size:23.28px;font-family:Helvetica;color:#000000;direction:ltr;letter-spacing:0px;line-height:120%;opacity:1&quot;&gt;&lt;b&gt;AEP Data Ingestion&amp;nbsp;&lt;/b&gt;&lt;/font&gt;&lt;/div&gt;" tags="Background" id="NYW0w-dOLcJWTq2XH8xD-7">
          <mxCell style="verticalAlign=middle;align=center;overflow=width;vsdxID=350;fillColor=none;gradientColor=none;shape=stencil(nZBRDoQgDERP03+WHsHFe5iISyOCQdT19kIaIxq//Jtp3zTpAFaTaUYNUkwx+F6v1EYD+AUpyRkdKCYFqACrzgf9C352LfuxyWRWg1/yhT/nRE5IsZWuZtCSK8CPeI0e/hF+jV7AJM4PO7KWCyr390bSiNtEtQM=);strokeColor=none;spacingTop=-3;spacingBottom=-3;spacingLeft=-3;spacingRight=-3;points=[];labelBackgroundColor=none;rounded=0;html=1;whiteSpace=wrap;" vertex="1" parent="1">
            <mxGeometry x="-41" y="190" width="270" height="40" as="geometry" />
          </mxCell>
        </UserObject>
        <UserObject label="&lt;div style=&quot;font-size: 1px&quot;&gt;&lt;p style=&quot;text-align:left;margin-left:0;margin-right:0;margin-top:0px;margin-bottom:0px;text-indent:0;vertical-align:middle;direction:ltr;&quot;&gt;&lt;ul style=&quot;margin: 0;list-style-type: disc&quot;&gt;&lt;font style=&quot;font-size:13.58px;font-family:Helvetica;color:#000000;direction:ltr;letter-spacing:0px;line-height:120%;opacity:1&quot;&gt;&lt;li&gt;Sending Email&lt;/font&gt;&lt;font style=&quot;font-size:11.64px;font-family:Helvetica;color:#000000;direction:ltr;letter-spacing:0px;line-height:120%;opacity:1&quot;&gt;&lt;/font&gt;&lt;/li&gt;&lt;/ul&gt;&lt;/p&gt;&lt;p style=&quot;text-align:center;margin-left:0;margin-right:0;margin-top:0px;margin-bottom:0px;text-indent:0;vertical-align:middle;direction:ltr;&quot;&gt;&lt;font style=&quot;font-size:11.64px;font-family:Helvetica;color:#000000;direction:ltr;letter-spacing:0px;line-height:100%;opacity:1&quot;&gt;&lt;br/&gt;&lt;/font&gt;&lt;/p&gt;&lt;/div&gt;" tags="Background" id="NYW0w-dOLcJWTq2XH8xD-8">
          <mxCell style="verticalAlign=middle;align=left;overflow=width;vsdxID=352;fillColor=none;gradientColor=none;shape=stencil(nZBRDoQgDERP03+WHsHFe5iISyOCQdT19kIaIxq//Jtp3zTpAFaTaUYNUkwx+F6v1EYD+AUpyRkdKCYFqACrzgf9C352LfuxyWRWg1/yhT/nRE5IsZWuZtCSK8CPeI0e/hF+jV7AJM4PO7KWCyr390bSiNtEtQM=);strokeColor=none;spacingTop=-3;spacingBottom=-3;spacingLeft=-3;spacingRight=-3;points=[];labelBackgroundColor=none;rounded=0;html=1;whiteSpace=wrap;" vertex="1" parent="1">
            <mxGeometry x="276.73" y="785" width="150" height="50" as="geometry" />
          </mxCell>
        </UserObject>
        <UserObject label="&lt;div style=&quot;&quot;&gt;&lt;p style=&quot;font-size: 1px; text-align: left; margin: 0px; text-indent: 0px; vertical-align: middle; direction: ltr;&quot;&gt;&lt;/p&gt;&lt;ul style=&quot;font-size: 1px; margin: 0px; list-style-type: disc;&quot;&gt;&lt;span style=&quot;font-size: 13.58px;&quot;&gt;&lt;font style=&quot;font-family: Helvetica; color: rgb(0, 0, 0); direction: ltr; letter-spacing: 0px; line-height: 120%; opacity: 1;&quot;&gt;&lt;/font&gt;&lt;/span&gt;&lt;/ul&gt;&lt;p style=&quot;text-align: center; margin: 0px; text-indent: 0px; vertical-align: middle; direction: ltr;&quot;&gt;&lt;font style=&quot;font-family: Helvetica; color: rgb(0, 0, 0); direction: ltr; letter-spacing: 0px; line-height: 100%; opacity: 1; font-size: 13.58px;&quot;&gt;Flattened Data&amp;nbsp;&lt;/font&gt;&lt;/p&gt;&lt;/div&gt;" tags="Background" id="NYW0w-dOLcJWTq2XH8xD-9">
          <mxCell style="verticalAlign=middle;align=left;overflow=width;vsdxID=353;fillColor=none;gradientColor=none;shape=stencil(nZBRDoQgDERP03+WHsHFe5iISyOCQdT19kIaIxq//Jtp3zTpAFaTaUYNUkwx+F6v1EYD+AUpyRkdKCYFqACrzgf9C352LfuxyWRWg1/yhT/nRE5IsZWuZtCSK8CPeI0e/hF+jV7AJM4PO7KWCyr390bSiNtEtQM=);strokeColor=none;spacingTop=-3;spacingBottom=-3;spacingLeft=-3;spacingRight=-3;points=[];labelBackgroundColor=none;rounded=0;html=1;whiteSpace=wrap;fontStyle=1" vertex="1" parent="1">
            <mxGeometry x="460" y="666" width="150" height="50" as="geometry" />
          </mxCell>
        </UserObject>
        <UserObject label="&lt;div style=&quot;font-size: 1px&quot;&gt;&lt;p style=&quot;text-align:left;margin-left:0;margin-right:0;margin-top:0px;margin-bottom:0px;text-indent:0;vertical-align:middle;direction:ltr;&quot;&gt;&lt;/p&gt;&lt;ul style=&quot;margin: 0;list-style-type: disc&quot;&gt;&lt;font style=&quot;font-size:13.58px;font-family:Helvetica;color:#000000;direction:ltr;letter-spacing:0px;line-height:120%;opacity:1&quot;&gt;&lt;/font&gt;&lt;li&gt;&lt;font style=&quot;font-size:13.58px;font-family:Helvetica;color:#000000;direction:ltr;letter-spacing:0px;line-height:120%;opacity:1&quot;&gt;Redshift/Athena Schema Name: &lt;span style=&quot;font-weight: normal;&quot;&gt;cja_events_dev&lt;/span&gt;&lt;/font&gt;&lt;/li&gt;&lt;li&gt;&lt;font style=&quot;font-size:13.58px;font-family:Helvetica;color:#000000;direction:ltr;letter-spacing:0px;line-height:120%;opacity:1&quot;&gt;Redshift Cluster Name: &lt;span style=&quot;font-weight: normal;&quot;&gt;customer-analytics-1&lt;/span&gt;&lt;/font&gt;&lt;/li&gt;&lt;li&gt;&lt;font style=&quot;font-size:13.58px;font-family:Helvetica;color:#000000;direction:ltr;letter-spacing:0px;line-height:120%;opacity:1&quot;&gt;Redshift Database Name: &lt;span style=&quot;font-weight: normal;&quot;&gt;Heap&lt;/span&gt;&lt;/font&gt;&lt;/li&gt;&lt;li&gt;&lt;font style=&quot;font-size:13.58px;font-family:Helvetica;color:#000000;direction:ltr;letter-spacing:0px;line-height:120%;opacity:1&quot;&gt;&lt;span style=&quot;font-weight: normal;&quot;&gt;&lt;br&gt;&lt;/span&gt;&lt;/font&gt;&lt;/li&gt;&lt;/ul&gt;&lt;/div&gt;" tags="Background" id="NYW0w-dOLcJWTq2XH8xD-10">
          <mxCell style="verticalAlign=middle;align=left;overflow=width;vsdxID=355;fillColor=none;gradientColor=none;shape=stencil(nZBRDoQgDERP03+WHsHFe5iISyOCQdT19kIaIxq//Jtp3zTpAFaTaUYNUkwx+F6v1EYD+AUpyRkdKCYFqACrzgf9C352LfuxyWRWg1/yhT/nRE5IsZWuZtCSK8CPeI0e/hF+jV7AJM4PO7KWCyr390bSiNtEtQM=);strokeColor=none;spacingTop=-3;spacingBottom=-3;spacingLeft=-3;spacingRight=-3;points=[];labelBackgroundColor=none;rounded=0;html=1;whiteSpace=wrap;fontStyle=1" vertex="1" parent="1">
            <mxGeometry x="444" y="701.5" width="360" height="90" as="geometry" />
          </mxCell>
        </UserObject>
        <mxCell id="NYW0w-dOLcJWTq2XH8xD-11" vertex="1" parent="1">
          <mxGeometry x="23" y="561" as="geometry" />
        </mxCell>
        <UserObject label="" tags="Background" id="NYW0w-dOLcJWTq2XH8xD-12">
          <mxCell style="vsdxID=344;edgeStyle=none;startArrow=none;endArrow=classic;startSize=5;endSize=5;strokeColor=#000000;spacingTop=0;spacingBottom=0;spacingLeft=0;spacingRight=0;verticalAlign=middle;html=1;labelBackgroundColor=#ffffff;rounded=0;exitX=1;exitY=0.5;exitDx=0;exitDy=0;entryX=0.023;entryY=0.768;entryDx=0;entryDy=0;entryPerimeter=0;" edge="1" parent="1" source="NYW0w-dOLcJWTq2XH8xD-17" target="NYW0w-dOLcJWTq2XH8xD-32">
            <mxGeometry relative="1" as="geometry">
              <mxPoint x="-167" y="102" as="offset" />
              <Array as="points" />
              <mxPoint x="-10" y="561" as="sourcePoint" />
            </mxGeometry>
          </mxCell>
        </UserObject>
        <mxCell id="NYW0w-dOLcJWTq2XH8xD-13" vertex="1" parent="1">
          <mxGeometry x="449" y="557" width="132" as="geometry" />
        </mxCell>
        <UserObject label="" tags="Background" id="NYW0w-dOLcJWTq2XH8xD-14">
          <mxCell style="vsdxID=345;edgeStyle=none;startArrow=none;endArrow=classic;startSize=5;endSize=5;strokeColor=#000000;spacingTop=0;spacingBottom=0;spacingLeft=0;spacingRight=0;verticalAlign=middle;html=1;labelBackgroundColor=#ffffff;rounded=0;exitX=1;exitY=0.7435897435897436;exitDx=0;exitDy=0;exitPerimeter=0;" edge="1" parent="1" source="NYW0w-dOLcJWTq2XH8xD-32" target="NYW0w-dOLcJWTq2XH8xD-53">
            <mxGeometry relative="1" as="geometry">
              <mxPoint x="-217" y="102" as="offset" />
              <Array as="points" />
              <mxPoint x="585.8389999999999" y="555.2900000000002" as="targetPoint" />
            </mxGeometry>
          </mxCell>
        </UserObject>
        <mxCell id="NYW0w-dOLcJWTq2XH8xD-15" value="" style="edgeStyle=orthogonalEdgeStyle;rounded=0;orthogonalLoop=1;jettySize=auto;html=1;exitX=1.005;exitY=0.424;exitDx=0;exitDy=0;exitPerimeter=0;" edge="1" parent="1" source="NYW0w-dOLcJWTq2XH8xD-20" target="NYW0w-dOLcJWTq2XH8xD-17">
          <mxGeometry relative="1" as="geometry">
            <mxPoint x="-545" y="527.1800000000001" as="sourcePoint" />
          </mxGeometry>
        </mxCell>
        <mxCell id="NYW0w-dOLcJWTq2XH8xD-16" style="edgeStyle=orthogonalEdgeStyle;rounded=0;orthogonalLoop=1;jettySize=auto;html=1;exitX=0;exitY=1;exitDx=0;exitDy=0;" edge="1" parent="1" source="NYW0w-dOLcJWTq2XH8xD-17">
          <mxGeometry relative="1" as="geometry">
            <mxPoint x="-533" y="612.82" as="targetPoint" />
          </mxGeometry>
        </mxCell>
        <mxCell id="NYW0w-dOLcJWTq2XH8xD-17" value="" style="whiteSpace=wrap;html=1;" vertex="1" parent="1">
          <mxGeometry x="-540" y="502.82" width="190" height="110" as="geometry" />
        </mxCell>
        <mxCell id="NYW0w-dOLcJWTq2XH8xD-18" value="" style="sketch=0;outlineConnect=0;fontColor=#232F3E;gradientColor=none;fillColor=#7AA116;strokeColor=none;dashed=0;verticalLabelPosition=bottom;verticalAlign=top;align=center;html=1;fontSize=12;fontStyle=0;aspect=fixed;pointerEvents=1;shape=mxgraph.aws4.simple_storage_service_directory_bucket;" vertex="1" parent="1">
          <mxGeometry x="-492.5" y="515.82" width="75" height="78" as="geometry" />
        </mxCell>
        <mxCell id="NYW0w-dOLcJWTq2XH8xD-19" style="edgeStyle=orthogonalEdgeStyle;rounded=0;orthogonalLoop=1;jettySize=auto;html=1;exitX=0.5;exitY=1;exitDx=0;exitDy=0;" edge="1" parent="1">
          <mxGeometry relative="1" as="geometry">
            <mxPoint x="-459.25" y="668.82" as="sourcePoint" />
            <mxPoint x="-459.25" y="668.82" as="targetPoint" />
          </mxGeometry>
        </mxCell>
        <mxCell id="NYW0w-dOLcJWTq2XH8xD-20" style="vsdxID=22810000;fillColor=none;gradientColor=none;strokeColor=none;spacingTop=-3;spacingBottom=-3;spacingLeft=-3;spacingRight=-3;points=[];labelBackgroundColor=none;rounded=0;html=1;whiteSpace=wrap;" vertex="1" parent="1">
          <mxGeometry x="-810" y="405.20000000000005" width="213.75" height="246.98" as="geometry" />
        </mxCell>
        <mxCell id="NYW0w-dOLcJWTq2XH8xD-21" style="vsdxID=228;fillColor=#ffffff;gradientColor=none;shape=stencil(rZNtEoIgEIZPw39cjmB2gU7ABAWTgaGWdvrQNadgNJrx33488M7su0tYXiteSQK0bpy9yIcWjSJsRwC0UdLpxkeEFYTlJ+vk2dnWCMwr7kmgY0UKfJMNNFDujgf9lFgDikV8dbX3Qa2beDo1e8wx2yNaapOK3louBjQL2ewTph2Effipm666rrmJog/GsaMhuizRtbm/hSfJjnyD75kmzWY2YGE6wWfrm7CuHO1CpB1tw1/qy/4E3vggPCFfwvNjxQs=);strokeColor=#000000;spacingTop=-3;spacingBottom=-3;spacingLeft=-3;spacingRight=-3;points=[];labelBackgroundColor=none;rounded=1;html=1;whiteSpace=wrap;" vertex="1" parent="NYW0w-dOLcJWTq2XH8xD-20">
          <mxGeometry x="20" width="191.61" height="240.97" as="geometry" />
        </mxCell>
        <mxCell id="NYW0w-dOLcJWTq2XH8xD-22" value="&lt;div style=&quot;&quot;&gt;&lt;font style=&quot;font-family: Helvetica; color: rgb(0, 0, 0); direction: ltr; letter-spacing: 0px; line-height: 120%; opacity: 1; font-size: 24px;&quot;&gt;&lt;b style=&quot;&quot;&gt;Adobe AEP&lt;/b&gt;&lt;/font&gt;&lt;/div&gt;" style="verticalAlign=middle;align=center;overflow=width;vsdxID=240;fillColor=none;gradientColor=none;shape=stencil(nZBRDoQgDERP03+WHsHFe5iISyOCQdT19kIaIxq//Jtp3zTpAFaTaUYNUkwx+F6v1EYD+AUpyRkdKCYFqACrzgf9C352LfuxyWRWg1/yhT/nRE5IsZWuZtCSK8CPeI0e/hF+jV7AJM4PO7KWCyr390bSiNtEtQM=);strokeColor=none;spacingTop=-3;spacingBottom=-3;spacingLeft=-3;spacingRight=-3;points=[];labelBackgroundColor=none;rounded=0;html=1;whiteSpace=wrap;" vertex="1" parent="NYW0w-dOLcJWTq2XH8xD-20">
          <mxGeometry x="32.53" y="166.98" width="148.7" height="43.02" as="geometry" />
        </mxCell>
        <mxCell id="NYW0w-dOLcJWTq2XH8xD-23" value="" style="shape=image;html=1;verticalAlign=top;verticalLabelPosition=bottom;labelBackgroundColor=#ffffff;imageAspect=0;aspect=fixed;image=https://cdn1.iconfinder.com/data/icons/unicons-line-vol-1/24/adobe-128.png" vertex="1" parent="NYW0w-dOLcJWTq2XH8xD-20">
          <mxGeometry x="63.82" y="26.14" width="103.86" height="103.86" as="geometry" />
        </mxCell>
        <mxCell id="NYW0w-dOLcJWTq2XH8xD-24" value="&lt;font style=&quot;font-size: 24px;&quot;&gt;&lt;b&gt;Source System&lt;/b&gt;&lt;/font&gt;" style="rounded=1;arcSize=9;align=center;spacingLeft=5;strokeColor=#4C9AFF;html=1;strokeWidth=2;fontSize=12" vertex="1" parent="1">
          <mxGeometry x="-800" y="346.68" width="200" height="45.5" as="geometry" />
        </mxCell>
        <UserObject label="&lt;div style=&quot;font-size: 1px&quot;&gt;&lt;font style=&quot;font-size:11.64px;font-family:Helvetica;color:#000000;direction:ltr;letter-spacing:0px;line-height:120%;opacity:1&quot;&gt;&lt;b&gt;S3 LANDING BUCKET&lt;/b&gt;&lt;/font&gt;&lt;/div&gt;&lt;div style=&quot;font-size: 1px&quot;&gt;&lt;font style=&quot;font-size:11.64px;font-family:Helvetica;color:#000000;direction:ltr;letter-spacing:0px;line-height:120%;opacity:1&quot;&gt;&lt;b&gt;(mt-source-data-landing)&lt;/b&gt;&lt;b&gt;&lt;br&gt;&lt;/b&gt;&lt;/font&gt;&lt;/div&gt;" tags="Background" id="NYW0w-dOLcJWTq2XH8xD-25">
          <mxCell style="verticalAlign=middle;align=center;overflow=width;vsdxID=348;fillColor=none;gradientColor=none;shape=stencil(nZBRDoQgDERP03+WHsHFe5iISyOCQdT19kIaIxq//Jtp3zTpAFaTaUYNUkwx+F6v1EYD+AUpyRkdKCYFqACrzgf9C352LfuxyWRWg1/yhT/nRE5IsZWuZtCSK8CPeI0e/hF+jV7AJM4PO7KWCyr390bSiNtEtQM=);strokeColor=none;spacingTop=-3;spacingBottom=-3;spacingLeft=-3;spacingRight=-3;points=[];labelBackgroundColor=none;rounded=0;html=1;whiteSpace=wrap;" vertex="1" parent="1">
            <mxGeometry x="-515" y="622.82" width="140" height="30" as="geometry" />
          </mxCell>
        </UserObject>
        <mxCell id="NYW0w-dOLcJWTq2XH8xD-26" value="" style="outlineConnect=0;dashed=0;verticalLabelPosition=bottom;verticalAlign=top;align=center;html=1;shape=mxgraph.aws3.redshift;fillColor=#2E73B8;gradientColor=none;" vertex="1" parent="1">
          <mxGeometry x="669" y="370.5" width="70" height="74.5" as="geometry" />
        </mxCell>
        <UserObject label="&lt;div style=&quot;&quot;&gt;&lt;span style=&quot;font-size: 11.64px;&quot;&gt;&lt;b&gt;EXTERNAL SCHEMA&lt;/b&gt;&lt;/span&gt;&lt;/div&gt;" tags="Background" id="NYW0w-dOLcJWTq2XH8xD-27">
          <mxCell style="verticalAlign=middle;align=center;overflow=width;vsdxID=349;fillColor=none;gradientColor=none;shape=stencil(nZBRDoQgDERP03+WHsHFe5iISyOCQdT19kIaIxq//Jtp3zTpAFaTaUYNUkwx+F6v1EYD+AUpyRkdKCYFqACrzgf9C352LfuxyWRWg1/yhT/nRE5IsZWuZtCSK8CPeI0e/hF+jV7AJM4PO7KWCyr390bSiNtEtQM=);strokeColor=none;spacingTop=-3;spacingBottom=-3;spacingLeft=-3;spacingRight=-3;points=[];labelBackgroundColor=none;rounded=0;html=1;whiteSpace=wrap;" vertex="1" parent="1">
            <mxGeometry x="669" y="313.5" width="79" height="57" as="geometry" />
          </mxCell>
        </UserObject>
        <mxCell id="NYW0w-dOLcJWTq2XH8xD-28" value="" style="edgeStyle=orthogonalEdgeStyle;rounded=0;orthogonalLoop=1;jettySize=auto;html=1;fontStyle=1;" edge="1" parent="1">
          <mxGeometry relative="1" as="geometry">
            <mxPoint x="639" y="566" as="sourcePoint" />
            <mxPoint x="699" y="445" as="targetPoint" />
          </mxGeometry>
        </mxCell>
        <mxCell id="NYW0w-dOLcJWTq2XH8xD-29" style="vsdxID=315;fillColor=#ffffff;gradientColor=none;shape=stencil(rVNBDsIgEHwNVwOLMd5r/YAvIIKWWEulrVZfL3S1UZpWTHrbnZ1lkpmF8KTKRKkI0Kq25qRuWtYZ4RsCoItMWV27ivCU8ORgrDpa0xQS+1I4JtAOURJ3mGcDFXa/0w+F2Gq5WCOMe2dz9Xrta4NSHN6xx26L1FwXsdRLI6SnspDLPsm0hXAOP3XjVac1Z1F0RWc8RqLzHHPr5/OkEp3JN/HtapQ7fQQj/gSPTd/CtPLgGgbag3v4S308oSAdV4TfyEH4BXn6BA==);strokeColor=#000000;spacingTop=-3;spacingBottom=-3;spacingLeft=-3;spacingRight=-3;points=[];labelBackgroundColor=none;rounded=1;html=1;whiteSpace=wrap;" vertex="1" parent="1">
          <mxGeometry x="-310.00000000000006" y="235.5" width="754" height="651" as="geometry" />
        </mxCell>
        <mxCell id="NYW0w-dOLcJWTq2XH8xD-30" style="vsdxID=316;fillColor=none;gradientColor=none;shape=stencil(nZBRDoQgDERP03+WHsHFe5iISyOCQdT19kIaIxq//Jtp3zTpAFaTaUYNUkwx+F6v1EYD+AUpyRkdKCYFqACrzgf9C352LfuxyWRWg1/yhT/nRE5IsZWuZtCSK8CPeI0e/hF+jV7AJM4PO7KWCyr390bSiNtEtQM=);strokeColor=#000000;spacingTop=-3;spacingBottom=-3;spacingLeft=-3;spacingRight=-3;points=[];labelBackgroundColor=none;rounded=0;html=1;whiteSpace=wrap;" vertex="1" parent="1">
          <mxGeometry x="-280.06" y="652.18" width="700.06" height="219" as="geometry" />
        </mxCell>
        <mxCell id="NYW0w-dOLcJWTq2XH8xD-31" value="&lt;div style=&quot;font-size: 1px&quot;&gt;&lt;font style=&quot;font-size:17.46px;font-family:Helvetica;color:#000000;direction:ltr;letter-spacing:0px;line-height:120%;opacity:1&quot;&gt;&lt;b&gt;&amp;nbsp;GLUE JOB&lt;/b&gt;&lt;/font&gt;&lt;/div&gt;" style="verticalAlign=middle;align=center;overflow=width;vsdxID=317;fillColor=none;gradientColor=none;shape=stencil(nZBRDoQgDERP03+WHsHFe5iISyOCQdT19kIaIxq//Jtp3zTpAFaTaUYNUkwx+F6v1EYD+AUpyRkdKCYFqACrzgf9C352LfuxyWRWg1/yhT/nRE5IsZWuZtCSK8CPeI0e/hF+jV7AJM4PO7KWCyr390bSiNtEtQM=);strokeColor=none;spacingTop=-3;spacingBottom=-3;spacingLeft=-3;spacingRight=-3;points=[];labelBackgroundColor=none;rounded=0;html=1;whiteSpace=wrap;" vertex="1" parent="1">
          <mxGeometry x="-79.49913580246914" y="254" width="243.76543209876544" height="40" as="geometry" />
        </mxCell>
        <mxCell id="NYW0w-dOLcJWTq2XH8xD-32" style="vsdxID=318;fillColor=#8C4FFF;gradientColor=none;shape=stencil(pVnbcts4DP0av3JIgjc9d9v/6LTpJrPZpJOmu8nfFx6LJHQgUnb7Zss4Iq4HIHyiDz/uP3+/O3n74/Xl+Z+7/x++vt6f6K+T9w9P93cvD6/86UQfT/Th2/PL3d8vzz+fvl6+f/98ljx/+vf5v/Mb3i44e0Z4+y6/fboIPj48CUFnf1u0ft8V/m3RjSB/6BZ+e3h8bL+MDKfFJNq80AdT3Pj04E1c/hDgTIljwI5KNwNQJTA6mZS3gGRocoCWt4ayBHz5+XI5wWnI+sgtJl6ssG9+lcqGqubrI1dMWd31RqtUMW4FvhNK7fs8GLtVWAFQYYbUc5vCQpVVuxBNTKCwMIu0FA0cBgoLxH5ElL4CsT7y2TgH+gqrfJPKBfQV7iKU2s8IEZIBQGWEiLXTqnidN16bRVqK9v21zfjoTCjbhIhmmaR8DCaEPwR4s6QJQKt0MwBV2hodiol+C8gmzKhKA9qZozQUkFo21qQEabgYV1WvZWO3IY2V1mnz+74nmt29YcyUjMnkiEpuNYzNM0LDbgdpKRp4CFQViEEMlLYC0pnIEygsbBpTp/TUddQZoRMf8qYI7YQ3RZp4bRNpKRp4C+paVR1Zk8Mt8bgZcECNWqWbAUolMLrxxJUjSOwBGQFUEi4mQxJ2TAtral2ts3VsLFXDKqUGbL3VVwJWj3jj/UxfCakNh4wNUDTCKt+kMtSM8BaB0L57VTxQXnnXGxeUthmUFXzvtUmkpWjgrKM+cjRrSITTYfbaKK9ThrSzaJCMkO5bRgpHo2fgQQMmuY6Ro+cCoydLeSB8cm1Cee/TaJ4M4yE1k1eFE18AwlTh1F3iGgYnIzbLgnsTpwOOnkKKmhRNik0iVkCqVTLhfGj6iZ0O5MBZoxRmKX+YD+fzZ5OWKjdl4U69KQ8L31WFSSvs1bDMUg7oQUUY6KzUemz8gDmk6Mz3idzp7OwVl4DOZKYPJitVQNty8+qyx9O2n+YDQwLSWTQFKq6xTKczvsNsdRUy1GTsdAARkHq2NQWLh50HZ1sDzMTTR0Det8beNC8z9S7ze3ExpJnf4i3I9wKrj4LxQP1+MYtX3nLTUJ17A4zCHF51/mKwTfYxaJRXdDTYco8u2KPFaztHqB6dag60wzNHJmnb5zNCt8o1p2ZSx++43kFfYPbAlQSHMU2GBEZEPXhOWSv7npBVYWcKKJzb4CCmBNxICKFr60pAek1HdTauQ2Th98MJqxop5eiCx+7Ls7uxBhztIySkJggXJw41euHDUgtcXCLkwjnTpvzOTYRgomIMnu2qze1sTvuanb0MDVxJu9D40h6ABOSLK2emPvv4riOyZtQDB1s/n9D4xoPtmJ0KySW3Ut31wIE7qysV+aPd4EFuXdEQ1d75spg/3D6n3tPXV+el8tqYRJEUGJMgdufrEKROsY35W+pwA4HYsVSa3VVdm5pWhcti4vyuY3sWu4YpOHvZXhDro+VgQ7RMdz6hO6Ueu8DOh0U8zHtSsz4WLFDeymbIMNGbBl5VbZm1hbFAxqu35QitUcaemlSGqB5mFWMWYPtc2mFiilLn90Vwc5hr+9p2fgE+PNp+3w6Y3tD1oHazfPuP5fpFKEcwIKdlU7AunVpv71ziutSI1NJ2w3MAgEt14QneT6Rju91d+Xp1R1OAK3Yi0jXjpYh083gpogJ4tBSZZ4he2t0sP09xvbNTgJ2dnWoNojx7a7BwD5Ol3nd2PikPbklk/G8rf8B/nvnR5V9r+vgL);strokeColor=#ffffff;spacingTop=-3;spacingBottom=-3;spacingLeft=-3;spacingRight=-3;points=[];labelBackgroundColor=none;rounded=0;html=1;whiteSpace=wrap;" vertex="1" parent="1">
          <mxGeometry x="-20.77777777777777" y="499" width="86.42592592592592" height="78" as="geometry" />
        </mxCell>
        <mxCell id="NYW0w-dOLcJWTq2XH8xD-33" style="vsdxID=319;fillColor=#ffffff;gradientColor=none;image;aspect=fixed;image=data:image/svg+xml,PD94bWwgdmVyc2lvbj0iMS4wIiBlbmNvZGluZz0iVVRGLTgiIHN0YW5kYWxvbmU9Im5vIj8+DQo8IS0tIENyZWF0ZWQgd2l0aCBJbmtzY2FwZSAoaHR0cDovL3d3dy5pbmtzY2FwZS5vcmcvKSAtLT4NCjxzdmcNCiAgIHhtbG5zOmRjPSJodHRwOi8vcHVybC5vcmcvZGMvZWxlbWVudHMvMS4xLyINCiAgIHhtbG5zOmNjPSJodHRwOi8vY3JlYXRpdmVjb21tb25zLm9yZy9ucyMiDQogICB4bWxuczpyZGY9Imh0dHA6Ly93d3cudzMub3JnLzE5OTkvMDIvMjItcmRmLXN5bnRheC1ucyMiDQogICB4bWxuczpzdmc9Imh0dHA6Ly93d3cudzMub3JnLzIwMDAvc3ZnIg0KICAgeG1sbnM9Imh0dHA6Ly93d3cudzMub3JnLzIwMDAvc3ZnIg0KICAgeG1sbnM6c29kaXBvZGk9Imh0dHA6Ly9zb2RpcG9kaS5zb3VyY2Vmb3JnZS5uZXQvRFREL3NvZGlwb2RpLTAuZHRkIg0KICAgeG1sbnM6aW5rc2NhcGU9Imh0dHA6Ly93d3cuaW5rc2NhcGUub3JnL25hbWVzcGFjZXMvaW5rc2NhcGUiDQogICB3aWR0aD0iMjUwIg0KICAgaGVpZ2h0PSIyNTAiDQogICBpZD0ic3ZnMzMxOSINCiAgIHNvZGlwb2RpOnZlcnNpb249IjAuMzIiDQogICBpbmtzY2FwZTp2ZXJzaW9uPSIwLjQ2Ig0KICAgdmVyc2lvbj0iMS4wIg0KICAgc29kaXBvZGk6ZG9jbmFtZT0ibm9waG90b19pLnN2ZyINCiAgIGlua3NjYXBlOm91dHB1dF9leHRlbnNpb249Im9yZy5pbmtzY2FwZS5vdXRwdXQuc3ZnLmlua3NjYXBlIj4NCiAgPGRlZnMNCiAgICAgaWQ9ImRlZnMzMzIxIj4NCiAgICA8aW5rc2NhcGU6cGVyc3BlY3RpdmUNCiAgICAgICBzb2RpcG9kaTp0eXBlPSJpbmtzY2FwZTpwZXJzcDNkIg0KICAgICAgIGlua3NjYXBlOnZwX3g9IjAgOiA1MjYuMTgxMDkgOiAxIg0KICAgICAgIGlua3NjYXBlOnZwX3k9IjAgOiAxMDAwIDogMCINCiAgICAgICBpbmtzY2FwZTp2cF96PSI3NDQuMDk0NDggOiA1MjYuMTgxMDkgOiAxIg0KICAgICAgIGlua3NjYXBlOnBlcnNwM2Qtb3JpZ2luPSIzNzIuMDQ3MjQgOiAzNTAuNzg3MzkgOiAxIg0KICAgICAgIGlkPSJwZXJzcGVjdGl2ZTMzMjciIC8+DQogICAgPGlua3NjYXBlOnBlcnNwZWN0aXZlDQogICAgICAgaWQ9InBlcnNwZWN0aXZlMzM0MiINCiAgICAgICBpbmtzY2FwZTpwZXJzcDNkLW9yaWdpbj0iMzcyLjA0NzI0IDogMzUwLjc4NzM5IDogMSINCiAgICAgICBpbmtzY2FwZTp2cF96PSI3NDQuMDk0NDggOiA1MjYuMTgxMDkgOiAxIg0KICAgICAgIGlua3NjYXBlOnZwX3k9IjAgOiAxMDAwIDogMCINCiAgICAgICBpbmtzY2FwZTp2cF94PSIwIDogNTI2LjE4MTA5IDogMSINCiAgICAgICBzb2RpcG9kaTp0eXBlPSJpbmtzY2FwZTpwZXJzcDNkIiAvPg0KICA8L2RlZnM+DQogIDxzb2RpcG9kaTpuYW1lZHZpZXcNCiAgICAgaWQ9ImJhc2UiDQogICAgIHBhZ2Vjb2xvcj0iI2ZmZmZmZiINCiAgICAgYm9yZGVyY29sb3I9IiM2NjY2NjYiDQogICAgIGJvcmRlcm9wYWNpdHk9IjEuMCINCiAgICAgaW5rc2NhcGU6cGFnZW9wYWNpdHk9IjAuMCINCiAgICAgaW5rc2NhcGU6cGFnZXNoYWRvdz0iMiINCiAgICAgaW5rc2NhcGU6em9vbT0iMi4yNDI5NDI3Ig0KICAgICBpbmtzY2FwZTpjeD0iMTIxLjk3NjQ4Ig0KICAgICBpbmtzY2FwZTpjeT0iMTIyLjQ0MTk4Ig0KICAgICBpbmtzY2FwZTpkb2N1bWVudC11bml0cz0icHgiDQogICAgIGlua3NjYXBlOmN1cnJlbnQtbGF5ZXI9ImxheWVyMSINCiAgICAgc2hvd2dyaWQ9ImZhbHNlIg0KICAgICBpbmtzY2FwZTp3aW5kb3ctd2lkdGg9IjE2NjQiDQogICAgIGlua3NjYXBlOndpbmRvdy1oZWlnaHQ9Ijg0NCINCiAgICAgaW5rc2NhcGU6d2luZG93LXg9Ii0zIg0KICAgICBpbmtzY2FwZTp3aW5kb3cteT0iLTE4IiAvPg0KICA8bWV0YWRhdGENCiAgICAgaWQ9Im1ldGFkYXRhMzMyNCI+DQogICAgPHJkZjpSREY+DQogICAgICA8Y2M6V29yaw0KICAgICAgICAgcmRmOmFib3V0PSIiPg0KICAgICAgICA8ZGM6Zm9ybWF0PmltYWdlL3N2Zyt4bWw8L2RjOmZvcm1hdD4NCiAgICAgICAgPGRjOnR5cGUNCiAgICAgICAgICAgcmRmOnJlc291cmNlPSJodHRwOi8vcHVybC5vcmcvZGMvZGNtaXR5cGUvU3RpbGxJbWFnZSIgLz4NCiAgICAgICAgPGRjOnRpdGxlPkZvdG9ncmFmaWVydmVyYm90PC9kYzp0aXRsZT4NCiAgICAgICAgPGRjOmRhdGU+MjAwOC0wNi0yOTwvZGM6ZGF0ZT4NCiAgICAgICAgPGRjOmNyZWF0b3I+DQogICAgICAgICAgPGNjOkFnZW50Pg0KICAgICAgICAgICAgPGRjOnRpdGxlPlRvcnJzdGVuIFNrb21wPC9kYzp0aXRsZT4NCiAgICAgICAgICA8L2NjOkFnZW50Pg0KICAgICAgICA8L2RjOmNyZWF0b3I+DQogICAgICAgIDxkYzpyaWdodHM+DQogICAgICAgICAgPGNjOkFnZW50Pg0KICAgICAgICAgICAgPGRjOnRpdGxlPlRvcnN0ZW4gU2tvbXA8L2RjOnRpdGxlPg0KICAgICAgICAgIDwvY2M6QWdlbnQ+DQogICAgICAgIDwvZGM6cmlnaHRzPg0KICAgICAgICA8ZGM6cHVibGlzaGVyPg0KICAgICAgICAgIDxjYzpBZ2VudD4NCiAgICAgICAgICAgIDxkYzp0aXRsZT5Ub3JzdGVuIFNrb21wPC9kYzp0aXRsZT4NCiAgICAgICAgICA8L2NjOkFnZW50Pg0KICAgICAgICA8L2RjOnB1Ymxpc2hlcj4NCiAgICAgICAgPGRjOmxhbmd1YWdlPmRlX0RFPC9kYzpsYW5ndWFnZT4NCiAgICAgICAgPGRjOnN1YmplY3Q+DQogICAgICAgICAgPHJkZjpCYWc+DQogICAgICAgICAgICA8cmRmOmxpPlBpa3RvZ3JhbW07IEZvdG9ncmFmaWVydmVyYm90PC9yZGY6bGk+DQogICAgICAgICAgPC9yZGY6QmFnPg0KICAgICAgICA8L2RjOnN1YmplY3Q+DQogICAgICAgIDxkYzpkZXNjcmlwdGlvbj5Gb3RvZ3JhZmllcnZlcmJvdCBhbHMgUGlrdG9ncmFtbSA8L2RjOmRlc2NyaXB0aW9uPg0KICAgICAgICA8Y2M6bGljZW5zZQ0KICAgICAgICAgICByZGY6cmVzb3VyY2U9Imh0dHA6Ly9jcmVhdGl2ZWNvbW1vbnMub3JnL2xpY2Vuc2VzL3B1YmxpY2RvbWFpbi8iIC8+DQogICAgICA8L2NjOldvcms+DQogICAgICA8Y2M6TGljZW5zZQ0KICAgICAgICAgcmRmOmFib3V0PSJodHRwOi8vY3JlYXRpdmVjb21tb25zLm9yZy9saWNlbnNlcy9wdWJsaWNkb21haW4vIj4NCiAgICAgICAgPGNjOnBlcm1pdHMNCiAgICAgICAgICAgcmRmOnJlc291cmNlPSJodHRwOi8vY3JlYXRpdmVjb21tb25zLm9yZy9ucyNSZXByb2R1Y3Rpb24iIC8+DQogICAgICAgIDxjYzpwZXJtaXRzDQogICAgICAgICAgIHJkZjpyZXNvdXJjZT0iaHR0cDovL2NyZWF0aXZlY29tbW9ucy5vcmcvbnMjRGlzdHJpYnV0aW9uIiAvPg0KICAgICAgICA8Y2M6cGVybWl0cw0KICAgICAgICAgICByZGY6cmVzb3VyY2U9Imh0dHA6Ly9jcmVhdGl2ZWNvbW1vbnMub3JnL25zI0Rlcml2YXRpdmVXb3JrcyIgLz4NCiAgICAgIDwvY2M6TGljZW5zZT4NCiAgICA8L3JkZjpSREY+DQogIDwvbWV0YWRhdGE+DQogIDxnDQogICAgIGlua3NjYXBlOmxhYmVsPSJFYmVuZSAxIg0KICAgICBpbmtzY2FwZTpncm91cG1vZGU9ImxheWVyIg0KICAgICBpZD0ibGF5ZXIxIj4NCiAgICA8cGF0aA0KICAgICAgIHN0eWxlPSJmaWxsOiMwMDAwMDA7ZmlsbC1vcGFjaXR5OjEiDQogICAgICAgZD0iTSAxNjQuNTMxMjUgNjIuNjg3NSBDIDE2Mi43OTExNSA2Mi42ODc1MDEgMTYxLjM3NSA2NC4wNzI0MTYgMTYxLjM3NSA2NS44MTI1IEwgMTYxLjM3NSA2OC43NSBMIDM4LjM3NSA2OC43NSBDIDM1LjA5MjI5OCA2OC43NDk5OTkgMzIuNDY4NzUgNzEuMzczNTQ4IDMyLjQ2ODc1IDc0LjY1NjI1IEwgMzIuNDY4NzUgMTgxLjM3NSBDIDMyLjQ2ODc1IDE4NC42NTc3IDM1LjA5MjMwNyAxODcuMzEyNTEgMzguMzc1IDE4Ny4zMTI1IEwgMjExLjYyNSAxODcuMzEyNSBDIDIxNC45MDc2OSAxODcuMzEyNSAyMTcuNTMxMjcgMTg0LjY1NzcgMjE3LjUzMTI1IDE4MS4zNzUgTCAyMTcuNTMxMjUgNzQuNjU2MjUgQyAyMTcuNTMxMjUgNzEuMzczNTUxIDIxNC45MDc2OCA2OC43NSAyMTEuNjI1IDY4Ljc1IEwgMjAyLjA2MjUgNjguNzUgTCAyMDIuMDYyNSA2NS44MTI1IEMgMjAyLjA2MjUgNjQuMDcyNDEgMjAwLjY0NjM1IDYyLjY4NzUgMTk4LjkwNjI1IDYyLjY4NzUgTCAxNjQuNTMxMjUgNjIuNjg3NSB6IE0gNDYuODEyNSA3OCBMIDg4LjY1NjI1IDc4IEMgOTAuMzk2MzQyIDc4IDkxLjgxMjUgNzkuMzg0OTA3IDkxLjgxMjUgODEuMTI1IEwgOTEuODEyNSA5Ni4zMTI1IEMgOTEuODEyNSA5OC4wNTI1OTIgOTAuMzk2MzQzIDk5LjQzNzUgODguNjU2MjUgOTkuNDM3NSBMIDQ2LjgxMjUgOTkuNDM3NSBDIDQ1LjA3MjQwOCA5OS40Mzc1IDQzLjY4NzUgOTguMDUyNTkzIDQzLjY4NzUgOTYuMzEyNSBMIDQzLjY4NzUgODEuMTI1IEMgNDMuNjg3NSA3OS4zODQ5MDggNDUuMDcyNDA3IDc4IDQ2LjgxMjUgNzggeiBNIDE0NiA4OC4yMTg3NSBDIDE2Ny43MzQ3NSA4OC4yMTg3NTMgMTg1LjM3NSAxMDYuMTUwNzEgMTg1LjM3NSAxMjguMjUgQyAxODUuMzc0OTkgMTUwLjM0OTI4IDE2Ny43MzQ3NCAxNjguMjgxMjUgMTQ2IDE2OC4yODEyNSBDIDEyNC4yNjUyNyAxNjguMjgxMjYgMTA2LjYyNSAxNTAuMzQ5MjkgMTA2LjYyNSAxMjguMjUgQyAxMDYuNjI1IDEwNi4xNTA3MSAxMjQuMjY1MjYgODguMjE4NzUgMTQ2IDg4LjIxODc1IHogTSAxNDYgOTEuNzE4NzUgQyAxMjYuMTY1NTcgOTEuNzE4NzUgMTEwLjA2MjUgMTA4LjA4Mjg5IDExMC4wNjI1IDEyOC4yNSBDIDExMC4wNjI1IDE0OC40MTcxMSAxMjYuMTY1NTcgMTY0Ljc4MTI2IDE0NiAxNjQuNzgxMjUgQyAxNjUuODM0NDMgMTY0Ljc4MTI1IDE4MS45Mzc1IDE0OC40MTcxIDE4MS45Mzc1IDEyOC4yNSBDIDE4MS45Mzc1IDEwOC4wODI4OSAxNjUuODM0NDMgOTEuNzE4NzUgMTQ2IDkxLjcxODc1IHogTSAxNDYgOTYuNTkzNzUgQyAxNjMuMTc3NjggOTYuNTkzNzUyIDE3Ny4xMjUgMTEwLjc4NDIgMTc3LjEyNSAxMjguMjUgQyAxNzcuMTI0OTkgMTQ1LjcxNTggMTYzLjE3NzY5IDE1OS44NzUgMTQ2IDE1OS44NzUgQyAxMjguODIyMzEgMTU5Ljg3NSAxMTQuODc1IDE0NS43MTU4IDExNC44NzUgMTI4LjI1IEMgMTE0Ljg3NSAxMTAuNzg0MTkgMTI4LjgyMjMxIDk2LjU5Mzc1IDE0NiA5Ni41OTM3NSB6IE0gMTc2LjUgMTcyLjcxODc1IEwgMjA2LjE4NzUgMTcyLjcxODc1IEMgMjA3LjQyMTM4IDE3Mi43MTg3NSAyMDguNDA2MjUgMTczLjEyNzgzIDIwOC40MDYyNSAxNzMuNjI1IEwgMjA4LjQwNjI1IDE3Ny45Njg3NSBDIDIwOC40MDYyNSAxNzguNDY1OTIgMjA3LjQyMTM4IDE3OC44NDM3NSAyMDYuMTg3NSAxNzguODQzNzUgTCAxNzYuNSAxNzguODQzNzUgQyAxNzUuMjY2MTEgMTc4Ljg0Mzc1IDE3NC4yODEyNSAxNzguNDY1OTIgMTc0LjI4MTI1IDE3Ny45Njg3NSBMIDE3NC4yODEyNSAxNzMuNjI1IEMgMTc0LjI4MTI1IDE3My4xMjc4MyAxNzUuMjY2MTIgMTcyLjcxODc1IDE3Ni41IDE3Mi43MTg3NSB6ICINCiAgICAgICBpZD0icmVjdDMyMDkiIC8+DQogICAgPHBhdGgNCiAgICAgICBzdHlsZT0iZmlsbDojYzQyNjFkO2ZpbGwtb3BhY2l0eToxIg0KICAgICAgIGQ9Ik0gMjAgMCBDIDE4LjU1OTkzOCAwIDE3LjE2NDc0NyAwLjE1MDk4NjY2IDE1LjgxMjUgMC40Mzc1IEMgMTUuMjEwMjkxIDAuNTY1MTk1NzggMTQuNjExOTEzIDAuNzI2MjExMjYgMTQuMDMxMjUgMC45MDYyNSBDIDEzLjU1NDc3MyAxLjA1Mzk4NTIgMTMuMDg1MzQ5IDEuMjI0ODUzNiAxMi42MjUgMS40MDYyNSBDIDEyLjMyODc2NiAxLjUyMzA3MzkgMTIuMDM5MDMzIDEuNjUwOTE4MiAxMS43NSAxLjc4MTI1IEMgMTEuMzQ3Mjc4IDEuOTYyMzU5OCAxMC45NTA0MDYgMi4xMzc0MTY1IDEwLjU2MjUgMi4zNDM3NSBDIDEwLjUyMTU1NSAyLjM2NTU2ODggMTAuNDc4MjczIDIuMzg0MTU1NSAxMC40Mzc1IDIuNDA2MjUgQyAxMC40MTY5MzQgMi40MTczNzU0IDEwLjM5NTUyMiAyLjQyNjMwNDkgMTAuMzc1IDIuNDM3NSBDIDkuODMyNjg2MSAyLjczMzM0NDYgOS4zMjI2NDQ4IDMuMDYzMjQ1MiA4LjgxMjUgMy40MDYyNSBDIDguMjgzMTIyMSAzLjc2MjE4NjUgNy43NzI3NzI4IDQuMTU4OTIwOSA3LjI4MTI1IDQuNTYyNSBDIDcuMjc1MDU1IDQuNTY3NTg2NiA3LjI1NjE4ODggNC41NTc0MDYxIDcuMjUgNC41NjI1IEMgNy4yMzg1NDc5IDQuNTcxOTQzNCA3LjIzMDE4MDYgNC41ODQyODE2IDcuMjE4NzUgNC41OTM3NSBDIDcuMTA0NzM1MiA0LjY4ODAxNTkgNi45ODY4NTA3IDQuNzc4MjY4NyA2Ljg3NSA0Ljg3NSBDIDYuNTE1NzAyMSA1LjE4NjQyNjQgNi4xNzk3OTA5IDUuNTA3NzA5MSA1Ljg0Mzc1IDUuODQzNzUgQyA1LjQwNDQwMjUgNi4yODE4MDc4IDQuOTkwNzQ0OSA2Ljc0MTM1NTQgNC41OTM3NSA3LjIxODc1IEMgNC41NzkwMDg2IDcuMjM2NTQ2MiA0LjU3NzE4MDYgNy4yNjM0MDE1IDQuNTYyNSA3LjI4MTI1IEMgMy43Njc0ODk4IDguMjQzOTE4MSAzLjA0MjI3MjEgOS4yNzE4NzA1IDIuNDM3NSAxMC4zNzUgQyAyLjQyNjIyMzIgMTAuMzk1NjM1IDIuNDE3NDU2MSAxMC40MTY4MiAyLjQwNjI1IDEwLjQzNzUgQyAyLjEwODM5MDggMTAuOTg1MzQ4IDEuODQwMjIzMyAxMS41NDcyMTQgMS41OTM3NSAxMi4xMjUgQyAxLjU3NTU4NjUgMTIuMTY3NjY1IDEuNTQ5MTI1NSAxMi4yMDcxODIgMS41MzEyNSAxMi4yNSBDIDEuMjg3NzEzMSAxMi44MzI0MzMgMS4wOTQ2NzU0IDEzLjQyMTgyMiAwLjkwNjI1IDE0LjAzMTI1IEMgMC43Mjk2MzAxNCAxNC42MDI0OTUgMC41NjMwOTYzNCAxNS4xODg4MjggMC40Mzc1IDE1Ljc4MTI1IEMgMC4xNDY5MTQwNCAxNy4xNDI1NzggLTQuMzkwNjEzM2UtMTggMTguNTQ5NDY2IDAgMjAgTCAwIDIzMCBDIDAgMjQxLjA4IDguOTIgMjUwIDIwIDI1MCBMIDIzMCAyNTAgQyAyMzEuNDQwMDYgMjUwIDIzMi44MzUyNSAyNDkuODQ5MDEgMjM0LjE4NzUgMjQ5LjU2MjUgQyAyMzQuNzg5MDMgMjQ5LjQzNDk3IDIzNS4zODg2NiAyNDkuMjczODEgMjM1Ljk2ODc1IDI0OS4wOTM3NSBDIDIzNi40NDQ3NiAyNDguOTQ2IDIzNi45MTUwNSAyNDguNzc1MjYgMjM3LjM3NSAyNDguNTkzNzUgQyAyMzcuNjcxMjMgMjQ4LjQ3NjkzIDIzNy45NjA5NyAyNDguMzQ5MDggMjM4LjI1IDI0OC4yMTg3NSBDIDIzOC4yNzk4MSAyNDguMjA1MzEgMjM4LjMxNDAyIDI0OC4yMDEwOSAyMzguMzQzNzUgMjQ4LjE4NzUgQyAyMzguNzU4MzYgMjQ3Ljk5ODMgMjM5LjE2Mzc0IDI0Ny44MDk4MSAyMzkuNTYyNSAyNDcuNTkzNzUgQyAyMzkuNTgzMTggMjQ3LjU4MjU0IDIzOS42MDQzNiAyNDcuNTczNzggMjM5LjYyNSAyNDcuNTYyNSBDIDI0MC4xNjkyNSAyNDcuMjY1MTIgMjQwLjY3NTU4IDI0Ni45Mzg3MyAyNDEuMTg3NSAyNDYuNTkzNzUgQyAyNDEuNjY4NzggMjQ2LjI2OTQxIDI0Mi4xNDM1OSAyNDUuOTI2MzkgMjQyLjU5Mzc1IDI0NS41NjI1IEMgMjQyLjY0NDc0IDI0NS41MjEyOCAyNDIuNjk5NDMgMjQ1LjQ3OTIxIDI0Mi43NSAyNDUuNDM3NSBDIDI0Mi44NzY1MSAyNDUuMzMzMTggMjQzLjAwMTE1IDI0NS4yMzIzNSAyNDMuMTI1IDI0NS4xMjUgQyAyNDMuNDgyNjUgMjQ0LjgxNTM4IDI0My44MjE1NSAyNDQuNDkwMTkgMjQ0LjE1NjI1IDI0NC4xNTYyNSBDIDI0NC40OTIyOSAyNDMuODIwMjEgMjQ0LjgxMzU3IDI0My40ODQzIDI0NS4xMjUgMjQzLjEyNSBDIDI0NS4yMzE2NyAyNDMuMDAyMzQgMjQ1LjMzMzgxIDI0Mi44NzUyNyAyNDUuNDM3NSAyNDIuNzUgQyAyNDUuNDQyNzYgMjQyLjc0MzYyIDI0NS40MzIyNSAyNDIuNzI1MTMgMjQ1LjQzNzUgMjQyLjcxODc1IEMgMjQ1Ljg0MjQ5IDI0Mi4yMjgzIDI0Ni4yMzY0IDI0MS43MTU3NiAyNDYuNTkzNzUgMjQxLjE4NzUgQyAyNDYuOTM4MTIgMjQwLjY3ODQzIDI0Ny4yNjUzNiAyNDAuMTY2MjIgMjQ3LjU2MjUgMjM5LjYyNSBDIDI0Ny41NzM2MyAyMzkuNjA0NzIgMjQ3LjU4MjY4IDIzOS41ODI4MiAyNDcuNTkzNzUgMjM5LjU2MjUgQyAyNDcuODkxOTcgMjM5LjAxNDggMjQ4LjE1OTMxIDIzOC40NTIzOSAyNDguNDA2MjUgMjM3Ljg3NSBDIDI0OC40MTU1NCAyMzcuODUzMjggMjQ4LjQyODI5IDIzNy44MzQyNiAyNDguNDM3NSAyMzcuODEyNSBDIDI0OC40NDY0NCAyMzcuNzkxMjkgMjQ4LjQ1OTg4IDIzNy43NzEyNSAyNDguNDY4NzUgMjM3Ljc1IEMgMjQ4LjcwOTkyIDIzNy4xNzQ3NiAyNDguOTA2MjggMjM2LjU3MDA4IDI0OS4wOTM3NSAyMzUuOTY4NzUgQyAyNDkuMjczNzUgMjM1LjM5MTM3IDI0OS40MzQ2OCAyMzQuODE3NTQgMjQ5LjU2MjUgMjM0LjIxODc1IEMgMjQ5Ljg1MzA5IDIzMi44NTc0MiAyNTAgMjMxLjQ1MDUzIDI1MCAyMzAgTCAyNTAgMjAgQyAyNTAgOC45MiAyNDEuMDggLTMuMzUzNzk4N2UtMTcgMjMwIDAgTCAyMCAwIHogTSAzNC43ODEyNSAxOS40MDYyNSBMIDIyNS40Njg3NSAxOS40MDYyNSBDIDIyOC4zMDk0NiAxOS40MDYyNSAyMzAuNTkzNzUgMjEuNjkwNTQ0IDIzMC41OTM3NSAyNC41MzEyNSBMIDIzMC41OTM3NSAyMTUuMjUgTCAzNC43ODEyNSAxOS40MDYyNSB6IE0gMTkuNDA2MjUgMzQuNzUgTCAyMTUuMjE4NzUgMjMwLjU5Mzc1IEwgMjQuNTMxMjUgMjMwLjU5Mzc1IEMgMjEuNjkwNTQ0IDIzMC41OTM3NiAxOS40MDYyNSAyMjguMzA5NDYgMTkuNDA2MjUgMjI1LjQ2ODc1IEwgMTkuNDA2MjUgMzQuNzUgeiAiDQogICAgICAgaWQ9InBhdGgzMTk2IiAvPg0KICA8L2c+DQo8L3N2Zz4NCg==;strokeColor=#000000;spacingTop=-3;spacingBottom=-3;spacingLeft=-3;spacingRight=-3;points=[];labelBackgroundColor=#ffffff;rounded=0;html=1;whiteSpace=wrap;" vertex="1" parent="1">
          <mxGeometry x="231.05691358024688" y="331.38" width="72" height="72" as="geometry" />
        </mxCell>
        <mxCell id="NYW0w-dOLcJWTq2XH8xD-34" style="edgeStyle=orthogonalEdgeStyle;rounded=0;orthogonalLoop=1;jettySize=auto;html=1;" edge="1" parent="1" source="NYW0w-dOLcJWTq2XH8xD-36" target="NYW0w-dOLcJWTq2XH8xD-32">
          <mxGeometry relative="1" as="geometry">
            <mxPoint x="260" y="460" as="targetPoint" />
            <Array as="points">
              <mxPoint x="267" y="538" />
            </Array>
          </mxGeometry>
        </mxCell>
        <mxCell id="NYW0w-dOLcJWTq2XH8xD-35" value="Contains pyspark script to execute glue job" style="edgeLabel;html=1;align=center;verticalAlign=middle;resizable=0;points=[];" connectable="0" vertex="1" parent="NYW0w-dOLcJWTq2XH8xD-34">
          <mxGeometry x="-0.5982" y="2" relative="1" as="geometry">
            <mxPoint as="offset" />
          </mxGeometry>
        </mxCell>
        <mxCell id="NYW0w-dOLcJWTq2XH8xD-36" value="&lt;div style=&quot;font-size: 1px&quot;&gt;&lt;font style=&quot;font-size:11.64px;font-family:Helvetica;color:#000000;direction:ltr;letter-spacing:0px;line-height:120%;opacity:1&quot;&gt;&lt;b&gt;GLUE SCRIPT&lt;/b&gt;&lt;/font&gt;&lt;/div&gt;" style="verticalAlign=middle;align=center;overflow=width;vsdxID=320;fillColor=none;gradientColor=none;shape=stencil(nZBRDoQgDERP03+WHsHFe5iISyOCQdT19kIaIxq//Jtp3zTpAFaTaUYNUkwx+F6v1EYD+AUpyRkdKCYFqACrzgf9C352LfuxyWRWg1/yhT/nRE5IsZWuZtCSK8CPeI0e/hF+jV7AJM4PO7KWCyr390bSiNtEtQM=);strokeColor=none;spacingTop=-3;spacingBottom=-3;spacingLeft=-3;spacingRight=-3;points=[];labelBackgroundColor=none;rounded=0;html=1;whiteSpace=wrap;" vertex="1" parent="1">
          <mxGeometry x="211.65333333333336" y="407.3" width="110.80246913580247" height="30" as="geometry" />
        </mxCell>
        <mxCell id="NYW0w-dOLcJWTq2XH8xD-37" value="&lt;div style=&quot;font-size: 1px&quot;&gt;&lt;font style=&quot;font-size:11.64px;font-family:Helvetica;color:#000000;direction:ltr;letter-spacing:0px;line-height:120%;opacity:1&quot;&gt;&lt;b&gt;GLUE&lt;/b&gt;&lt;/font&gt;&lt;/div&gt;" style="verticalAlign=middle;align=center;overflow=width;vsdxID=321;fillColor=none;gradientColor=none;shape=stencil(nZBRDoQgDERP03+WHsHFe5iISyOCQdT19kIaIxq//Jtp3zTpAFaTaUYNUkwx+F6v1EYD+AUpyRkdKCYFqACrzgf9C352LfuxyWRWg1/yhT/nRE5IsZWuZtCSK8CPeI0e/hF+jV7AJM4PO7KWCyr390bSiNtEtQM=);strokeColor=none;spacingTop=-3;spacingBottom=-3;spacingLeft=-3;spacingRight=-3;points=[];labelBackgroundColor=none;rounded=0;html=1;whiteSpace=wrap;" vertex="1" parent="1">
          <mxGeometry x="23.002469135802485" y="585" width="66.48148148148148" height="30" as="geometry" />
        </mxCell>
        <mxCell id="NYW0w-dOLcJWTq2XH8xD-38" style="vsdxID=326;fillColor=#759C3E;gradientColor=none;shape=stencil(zVbbboMwDP0aXq0kJrfnrvuPSqUDjUFF6S5/P1A01pBiyATV3hI4B+z4+MQJ7i754Zwlgl3apn7NPopjmyf4lAhRVHnWFG23SnCf4O5UN9lLU1+ro9ufDz2yX73V7/0XPh1Psp4i2Jfbcub2zw5bFtUN1odqDZYvBSsDZhrLGTDh4zVI4uMhgVsQliAYSLlPUCCn8QIB0cdrSIkfhAQJgsgA5TgD4uB1Ctb40SAYIvyQIBE0QTASrA0IOoagFFiC8KOsW0WI5fBebdNoWsXd4lf+p6IshzdTXRHKRTPAKEF2+THyODZW8IIU/JxDRXYqMkTOoeQ1B03UdNMeWRA+6XzakA2CQ3UGggSjYghSksc5ikcqyjHngg8k7y6MWeH/i+tgFIRJISU6ae3ej7bCqMJFy2ILK/+rOiI9PK6ODx4Y5vw59gYIzU1ZUGvaZ7RB3/GsdEWHizPQOwODBf7QCWPaC7rFeGDuHrlhG/ff);strokeColor=#000000;spacingTop=-3;spacingBottom=-3;spacingLeft=-3;spacingRight=-3;points=[];labelBackgroundColor=none;rounded=0;html=1;whiteSpace=wrap;" vertex="1" parent="1">
          <mxGeometry x="-155.95679012345678" y="716" width="72.02160493827161" height="69" as="geometry" />
        </mxCell>
        <mxCell id="NYW0w-dOLcJWTq2XH8xD-39" style="vsdxID=328;fillColor=#D9A741;gradientColor=none;shape=stencil(1VVJbsMwDHyNrgQpaj2n6T8CxKmFunbguNvvK1dIWtmwUqNAlxslzRDDVYI3p3p3rITE09B399Vz2A+14BshZWjrqg9DtARvBW8OXV/d9d1ju0/n425EjtZD9zR6eEk8jYBmZEl8TTeE+H6+TfAmtJ/grIFkBvcM2qwhWAveLRMkg8kFOQRllwmYgZUDKoDn3skAyjX6yYFehZdAapmgNCjK4wXNBTyD8hleF9OjHaDL8IXyegPOTtNjC2o8AedqohymZcK5uy5wBVRonyncxuQUvF/t5mh8TMIhNM3lZWlA/lg/fkHOLMa0LK5G+vOr4D+NhiPQ+WgoPJfiV0ZjLkhr8IXVNK+vAV9I5zeGKRrTDyhepc+Lt28=);strokeColor=#000000;spacingTop=-3;spacingBottom=-3;spacingLeft=-3;spacingRight=-3;points=[];labelBackgroundColor=none;rounded=0;html=1;whiteSpace=wrap;" vertex="1" parent="1">
          <mxGeometry x="304.3441975308642" y="710" width="63.15740740740741" height="53" as="geometry" />
        </mxCell>
        <mxCell id="NYW0w-dOLcJWTq2XH8xD-40" value="&lt;div style=&quot;font-size: 1px&quot;&gt;&lt;font style=&quot;font-size:13.58px;font-family:Helvetica;color:#000000;direction:ltr;letter-spacing:0px;line-height:120%;opacity:1&quot;&gt;MONITORING AND ALERTING&lt;/font&gt;&lt;/div&gt;" style="verticalAlign=middle;align=center;overflow=width;vsdxID=329;fillColor=none;gradientColor=none;shape=stencil(nZBRDoQgDERP03+WHsHFe5iISyOCQdT19kIaIxq//Jtp3zTpAFaTaUYNUkwx+F6v1EYD+AUpyRkdKCYFqACrzgf9C352LfuxyWRWg1/yhT/nRE5IsZWuZtCSK8CPeI0e/hF+jV7AJM4PO7KWCyr390bSiNtEtQM=);strokeColor=none;spacingTop=-3;spacingBottom=-3;spacingLeft=-3;spacingRight=-3;points=[];labelBackgroundColor=none;rounded=0;html=1;whiteSpace=wrap;" vertex="1" parent="1">
          <mxGeometry x="-93.90740740740739" y="654" width="232.6851851851852" height="30" as="geometry" />
        </mxCell>
        <mxCell id="NYW0w-dOLcJWTq2XH8xD-41" value="&lt;div style=&quot;font-size: 1px&quot;&gt;&lt;font style=&quot;font-size:11.64px;font-family:Helvetica;color:#000000;direction:ltr;letter-spacing:0px;line-height:120%;opacity:1&quot;&gt;&lt;b&gt;CLOUD WATCH&lt;/b&gt;&lt;/font&gt;&lt;/div&gt;" style="verticalAlign=middle;align=center;overflow=width;vsdxID=331;fillColor=none;gradientColor=none;shape=stencil(nZBRDoQgDERP03+WHsHFe5iISyOCQdT19kIaIxq//Jtp3zTpAFaTaUYNUkwx+F6v1EYD+AUpyRkdKCYFqACrzgf9C352LfuxyWRWg1/yhT/nRE5IsZWuZtCSK8CPeI0e/hF+jV7AJM4PO7KWCyr390bSiNtEtQM=);strokeColor=none;spacingTop=-3;spacingBottom=-3;spacingLeft=-3;spacingRight=-3;points=[];labelBackgroundColor=none;rounded=0;html=1;whiteSpace=wrap;" vertex="1" parent="1">
          <mxGeometry x="-181.44135802469134" y="785" width="121.88271604938272" height="30" as="geometry" />
        </mxCell>
        <mxCell id="NYW0w-dOLcJWTq2XH8xD-42" value="&lt;div style=&quot;font-size: 1px&quot;&gt;&lt;font style=&quot;font-size:11.64px;font-family:Helvetica;color:#000000;direction:ltr;letter-spacing:0px;line-height:120%;opacity:1&quot;&gt;&lt;b&gt;SES&lt;/b&gt;&lt;/font&gt;&lt;/div&gt;" style="verticalAlign=middle;align=center;overflow=width;vsdxID=333;fillColor=none;gradientColor=none;shape=stencil(nZBRDoQgDERP03+WHsHFe5iISyOCQdT19kIaIxq//Jtp3zTpAFaTaUYNUkwx+F6v1EYD+AUpyRkdKCYFqACrzgf9C352LfuxyWRWg1/yhT/nRE5IsZWuZtCSK8CPeI0e/hF+jV7AJM4PO7KWCyr390bSiNtEtQM=);strokeColor=none;spacingTop=-3;spacingBottom=-3;spacingLeft=-3;spacingRight=-3;points=[];labelBackgroundColor=none;rounded=0;html=1;whiteSpace=wrap;" vertex="1" parent="1">
          <mxGeometry x="310.9923456790124" y="776" width="55.401234567901234" height="30" as="geometry" />
        </mxCell>
        <mxCell id="NYW0w-dOLcJWTq2XH8xD-43" value="&lt;div style=&quot;font-size: 1px&quot;&gt;&lt;p style=&quot;text-align:left;margin-left:0;margin-right:0;margin-top:0px;margin-bottom:0px;text-indent:0;vertical-align:middle;direction:ltr;&quot;&gt;&lt;/p&gt;&lt;ul style=&quot;margin: 0;list-style-type: disc&quot;&gt;&lt;font style=&quot;font-size:13.58px;font-family:Helvetica;color:#000000;direction:ltr;letter-spacing:0px;line-height:120%;opacity:1&quot;&gt;&lt;/font&gt;&lt;li&gt;&lt;font style=&quot;font-size:13.58px;font-family:Helvetica;color:#000000;direction:ltr;letter-spacing:0px;line-height:120%;opacity:1&quot;&gt;Source Config&lt;/font&gt;&lt;font style=&quot;font-size:11.64px;font-family:Helvetica;color:#000000;direction:ltr;letter-spacing:0px;line-height:120%;opacity:1&quot;&gt;&lt;/font&gt;&lt;/li&gt;&lt;li&gt;&lt;font style=&quot;font-size:13.58px;font-family:Helvetica;color:#000000;direction:ltr;letter-spacing:0px;line-height:120%;opacity:1&quot;&gt;Secret Name&lt;/font&gt;&lt;/li&gt;&lt;li&gt;&lt;font style=&quot;font-size:13.58px;font-family:Helvetica;color:#000000;direction:ltr;letter-spacing:0px;line-height:120%;opacity:1&quot;&gt;Target Config&lt;/font&gt;&lt;/li&gt;&lt;/ul&gt;&lt;p&gt;&lt;/p&gt;&lt;p style=&quot;text-align:center;margin-left:0;margin-right:0;margin-top:0px;margin-bottom:0px;text-indent:0;vertical-align:middle;direction:ltr;&quot;&gt;&lt;font style=&quot;font-size:11.64px;font-family:Helvetica;color:#000000;direction:ltr;letter-spacing:0px;line-height:100%;opacity:1&quot;&gt;&lt;br&gt;&lt;/font&gt;&lt;/p&gt;&lt;/div&gt;" style="verticalAlign=middle;align=left;overflow=width;vsdxID=337;fillColor=none;gradientColor=none;shape=stencil(nZBRDoQgDERP03+WHsHFe5iISyOCQdT19kIaIxq//Jtp3zTpAFaTaUYNUkwx+F6v1EYD+AUpyRkdKCYFqACrzgf9C352LfuxyWRWg1/yhT/nRE5IsZWuZtCSK8CPeI0e/hF+jV7AJM4PO7KWCyr390bSiNtEtQM=);strokeColor=none;spacingTop=-3;spacingBottom=-3;spacingLeft=-3;spacingRight=-3;points=[];labelBackgroundColor=none;rounded=0;html=1;whiteSpace=wrap;" vertex="1" parent="1">
          <mxGeometry x="-260.1064197530864" y="320.3" width="166.2037037037037" height="87" as="geometry" />
        </mxCell>
        <mxCell id="NYW0w-dOLcJWTq2XH8xD-44" value="&lt;div style=&quot;font-size: 1px&quot;&gt;&lt;p style=&quot;text-align:left;margin-left:0;margin-right:0;margin-top:0px;margin-bottom:0px;text-indent:0;vertical-align:middle;direction:ltr;&quot;&gt;&lt;ul style=&quot;margin: 0;list-style-type: disc&quot;&gt;&lt;font style=&quot;font-size:13.58px;font-family:Helvetica;color:#000000;direction:ltr;letter-spacing:0px;line-height:120%;opacity:1&quot;&gt;&lt;li&gt;Logs generated by glue job&lt;/font&gt;&lt;font style=&quot;font-size:11.64px;font-family:Helvetica;color:#000000;direction:ltr;letter-spacing:0px;line-height:120%;opacity:1&quot;&gt;&lt;/font&gt;&lt;/li&gt;&lt;/ul&gt;&lt;/p&gt;&lt;p style=&quot;text-align:center;margin-left:0;margin-right:0;margin-top:0px;margin-bottom:0px;text-indent:0;vertical-align:middle;direction:ltr;&quot;&gt;&lt;font style=&quot;font-size:11.64px;font-family:Helvetica;color:#000000;direction:ltr;letter-spacing:0px;line-height:100%;opacity:1&quot;&gt;&lt;br/&gt;&lt;/font&gt;&lt;/p&gt;&lt;/div&gt;" style="verticalAlign=middle;align=left;overflow=width;vsdxID=343;fillColor=none;gradientColor=none;shape=stencil(nZBRDoQgDERP03+WHsHFe5iISyOCQdT19kIaIxq//Jtp3zTpAFaTaUYNUkwx+F6v1EYD+AUpyRkdKCYFqACrzgf9C352LfuxyWRWg1/yhT/nRE5IsZWuZtCSK8CPeI0e/hF+jV7AJM4PO7KWCyr390bSiNtEtQM=);strokeColor=none;spacingTop=-3;spacingBottom=-3;spacingLeft=-3;spacingRight=-3;points=[];labelBackgroundColor=none;rounded=0;html=1;whiteSpace=wrap;" vertex="1" parent="1">
          <mxGeometry x="-280.05555555555554" y="796" width="254.8456790123457" height="50" as="geometry" />
        </mxCell>
        <mxCell id="NYW0w-dOLcJWTq2XH8xD-45" vertex="1" parent="1">
          <mxGeometry x="-145.98456790123456" y="406" as="geometry" />
        </mxCell>
        <UserObject label="" tags="Background" id="NYW0w-dOLcJWTq2XH8xD-46">
          <mxCell style="vsdxID=323;edgeStyle=none;startArrow=none;endArrow=classic;startSize=5;endSize=5;strokeColor=#000000;spacingTop=0;spacingBottom=0;spacingLeft=0;spacingRight=0;verticalAlign=middle;html=1;labelBackgroundColor=#ffffff;rounded=0;entryX=0;entryY=0.5;entryDx=0;entryDy=0;entryPerimeter=0;" edge="1" parent="1" source="NYW0w-dOLcJWTq2XH8xD-48" target="NYW0w-dOLcJWTq2XH8xD-32">
            <mxGeometry relative="1" as="geometry">
              <mxPoint y="110" as="offset" />
              <Array as="points">
                <mxPoint x="-258" y="480" />
                <mxPoint x="-258" y="538" />
                <mxPoint x="-145.98456790123456" y="538" />
              </Array>
              <mxPoint x="-230.19444444444446" y="412" as="sourcePoint" />
            </mxGeometry>
          </mxCell>
        </UserObject>
        <UserObject label="" tags="Background" id="NYW0w-dOLcJWTq2XH8xD-47">
          <mxCell style="vsdxID=330;edgeStyle=none;startArrow=none;endArrow=classic;startSize=5;endSize=5;strokeColor=#000000;spacingTop=0;spacingBottom=0;spacingLeft=0;spacingRight=0;verticalAlign=middle;html=1;labelBackgroundColor=#ffffff;rounded=0;exitX=0.5;exitY=1;exitDx=0;exitDy=0;exitPerimeter=0;entryX=0.521;entryY=-0.041;entryDx=0;entryDy=0;entryPerimeter=0;" edge="1" parent="1" source="NYW0w-dOLcJWTq2XH8xD-32" target="NYW0w-dOLcJWTq2XH8xD-40">
            <mxGeometry relative="1" as="geometry">
              <mxPoint y="135" as="offset" />
              <Array as="points" />
            </mxGeometry>
          </mxCell>
        </UserObject>
        <mxCell id="NYW0w-dOLcJWTq2XH8xD-48" value="&lt;div style=&quot;font-size: 1px&quot;&gt;&lt;font style=&quot;font-size:11.64px;font-family:Helvetica;color:#000000;direction:ltr;letter-spacing:0px;line-height:120%;opacity:1&quot;&gt;&lt;b&gt;CONFIG FILE&lt;/b&gt;&lt;/font&gt;&lt;/div&gt;" style="verticalAlign=middle;align=center;overflow=width;vsdxID=377;fillColor=none;gradientColor=none;shape=stencil(nZBRDoQgDERP03+WHsHFe5iISyOCQdT19kIaIxq//Jtp3zTpAFaTaUYNUkwx+F6v1EYD+AUpyRkdKCYFqACrzgf9C352LfuxyWRWg1/yhT/nRE5IsZWuZtCSK8CPeI0e/hF+jV7AJM4PO7KWCyr390bSiNtEtQM=);strokeColor=none;spacingTop=-3;spacingBottom=-3;spacingLeft=-3;spacingRight=-3;points=[];labelBackgroundColor=none;rounded=0;html=1;whiteSpace=wrap;" vertex="1" parent="1">
          <mxGeometry x="-318.8317283950617" y="388.55" width="121.88271604938272" height="30" as="geometry" />
        </mxCell>
        <mxCell id="NYW0w-dOLcJWTq2XH8xD-49" value="" style="verticalLabelPosition=bottom;html=1;verticalAlign=top;align=center;strokeColor=none;fillColor=#00BEF2;shape=mxgraph.azure.cloud_services_configuration_file;pointerEvents=1;" vertex="1" parent="1">
          <mxGeometry x="-281.7129012345679" y="322.55" width="47.64506172839506" height="56" as="geometry" />
        </mxCell>
        <mxCell id="NYW0w-dOLcJWTq2XH8xD-50" value="" style="edgeStyle=orthogonalEdgeStyle;rounded=0;orthogonalLoop=1;jettySize=auto;html=1;" edge="1" parent="1" source="NYW0w-dOLcJWTq2XH8xD-52" target="NYW0w-dOLcJWTq2XH8xD-32">
          <mxGeometry relative="1" as="geometry">
            <Array as="points">
              <mxPoint x="30" y="460" />
              <mxPoint x="14" y="460" />
            </Array>
          </mxGeometry>
        </mxCell>
        <mxCell id="NYW0w-dOLcJWTq2XH8xD-51" value="For reading the last load date and writing the load date after a successful job run" style="edgeLabel;html=1;align=center;verticalAlign=middle;resizable=0;points=[];" connectable="0" vertex="1" parent="NYW0w-dOLcJWTq2XH8xD-50">
          <mxGeometry x="-0.0583" y="-1" relative="1" as="geometry">
            <mxPoint x="-19" y="-14" as="offset" />
          </mxGeometry>
        </mxCell>
        <mxCell id="NYW0w-dOLcJWTq2XH8xD-52" value="&lt;div style=&quot;font-size: 1px&quot;&gt;&lt;font style=&quot;font-size:11.64px;font-family:Helvetica;color:#000000;direction:ltr;letter-spacing:0px;line-height:120%;opacity:1&quot;&gt;&lt;b&gt;RDS Control Table&lt;/b&gt;&lt;/font&gt;&lt;/div&gt;" style="verticalAlign=middle;align=center;overflow=width;vsdxID=377;fillColor=none;gradientColor=none;shape=stencil(nZBRDoQgDERP03+WHsHFe5iISyOCQdT19kIaIxq//Jtp3zTpAFaTaUYNUkwx+F6v1EYD+AUpyRkdKCYFqACrzgf9C352LfuxyWRWg1/yhT/nRE5IsZWuZtCSK8CPeI0e/hF+jV7AJM4PO7KWCyr390bSiNtEtQM=);strokeColor=none;spacingTop=-3;spacingBottom=-3;spacingLeft=-3;spacingRight=-3;points=[];labelBackgroundColor=none;rounded=0;html=1;whiteSpace=wrap;" vertex="1" parent="1">
          <mxGeometry x="-41.85216049382713" y="383.05" width="144.04320987654322" height="30" as="geometry" />
        </mxCell>
        <mxCell id="NYW0w-dOLcJWTq2XH8xD-53" value="" style="sketch=0;outlineConnect=0;fontColor=#232F3E;gradientColor=none;fillColor=#7AA116;strokeColor=none;dashed=0;verticalLabelPosition=bottom;verticalAlign=top;align=center;html=1;fontSize=12;fontStyle=0;aspect=fixed;pointerEvents=1;shape=mxgraph.aws4.simple_storage_service_directory_bucket;" vertex="1" parent="1">
          <mxGeometry x="578" y="515.82" width="75" height="78" as="geometry" />
        </mxCell>
        <mxCell id="NYW0w-dOLcJWTq2XH8xD-54" value="" style="shape=image;verticalLabelPosition=bottom;labelBackgroundColor=default;verticalAlign=top;aspect=fixed;imageAspect=0;image=data:image/jpeg,/9j/4AAQSkZJRgABAQAAAQABAAD/2wCEAAkGBwgHBgkIBwgKCgkLDRYPDQwMDRsUFRAWIB0iIiAdHx8kKDQsJCYxJx8fLT0tMTU3Ojo6Iys/RD84QzQ5OjcBCgoKDQwNGg8PGjclHyU3Nzc3Nzc3Nzc3Nzc3Nzc3Nzc3Nzc3Nzc3Nzc3Nzc3Nzc3Nzc3Nzc3Nzc3Nzc3Nzc3N//AABEIAJQApAMBEQACEQEDEQH/xAAcAAEAAgMBAQEAAAAAAAAAAAABAgUEBgcAAwj/xABJEAABAwMBAwcGCgcGBwAAAAABAAIDBAURBhIhMQcTIkFRcdEyYZGhscE2QlJVYnJ0gZOyFBUXNYKS0hZjlLPh8CMmNEVTovH/xAAaAQEAAgMBAAAAAAAAAAAAAAAAAQMCBAUG/8QANBEAAgIBAQUDCgcBAQAAAAAAAAECAxEEBRITITFBUaEUIjJSYXGBkbHBFTM0QtHh8CMk/9oADAMBAAIRAxEAPwDX17c555AIKECgEFASBQgQgFSBUECEAqSBCAQUBJAIQgUAoBCECCgFSCWUIwVCxLxQHkAhCBQCCgJBCBQCpAhQQIQCpIFASCAQgFCBQCEAoQSCAUBTqC8kEIFAbVo3SB1JT1FQ+r5hkMnNgBm0ScA+9c/W67yZqKWcllde/wA8mxfsviH/AHWT8EeK0vxl+p4lnk67z37LovnST8EeKfjL9TxHk67zQrvRi3XSqo9svEEhYHEYzjrwuzTZxK4z7zXksPBihWGIoBUgVBAhAIUkCgNt0vo4X62msNaYcSOZsiMHh15yuZrNo+T27m7kvrp31nJcfs0b86O/BHitX8ZfqeJn5N7Tx5NRjo3Q56swjxT8ZfqeI8m9podRE6nqJoHkF0UjmEjgcHHuXbjLeipd5qtYeD5rIgkhAhAVAKgvEICQQg6lySv5uw3J4GS2pJx/A1cDbCzdH3fc2aPRZmVLKHXtjbVW+ofTVsYwCHkGN3HZcBxHnVUXZs+7dmsxfj7iWlbHKOYVzbjb6uWlrJKiOaI4c0yu8d48679fDsgpxw0/YjWeU8GISXOJcSSeJJySrUkjE9lASQgQgFSBCggQgFSQfaKpqIm7MU8kbexjyPYsXCMnzWScs2/Rdgrbu9tbXVNS2gactHOuBmP9K5Wv1ddK3IJbz9i5F9VblzfQ3q1XyluNyqqGi6TKNrQ6QHcXEkYHdjiuNdpp1VxnP9xsxmpSaXYcfuv72rvtMv5yvWU/lR9y+hz5+kzGVhiIKAUIKhQbAgoQKA6jyUfB26/aD/ltXB2t+fD3fc2KfRZz6w3irslZHWUMmHAAOYfJkb2FdjUUQvi4zNeMnF5Om1dLbOUCytqaRzYa6IYBcelE7jsuxxae1cGE7dn27sucX4+1Gy1GyOV1OXV1HUW+rkpayJ0U0Zw5p9o8y9DXZCyKlB5TNVpp4Z8FmQIKAkChA5QCpAqCBQG36L0k+7SNrbgwsoGHc07jMfN9Hz9a5m0NeqFw6+cvoX1Vb3N9DO1pq1uw60WVwZA0bEsrOG7dsN83nVOg2e0+Nd16pfdk22/tiT5Jv+quX1I/a5NtejD4jTdpp12/e1f9pl/OV1afyo+5fQ15+kzGVpiKAUBULEvPKQOdyEFnbL7dLVDLBbqx0EUrtp7WtacnGOsdgVFumqtkpTjlmSk4rCK8bhhXmJYWS71dlr2VlE/Dxue0+S9vYQqb6IXw3JomMnF5RO+3iqvlwfWVhG0RssY3gxvUB6U09EKIbkRKW88srxv3Dj2K4wLy36UvtwaHwW6VrDwdMObHr3rVs12nr5OXy5mark+wtmcnF/e3Jdb2HsfO73MK1ntbTLv+X9mXAmfQ8m18BGzU20jrzK/+hR+L6fufyX8k8CZi1Gg9QQNJEEEw/uZQfbhWx2nppdXj4GLpmihraGroJObraWaB/ZIwjPcev7luQshYsweSuUWuqPgszEu2aoubLH+qGy4h8kP+OGfJz2LUeip43GxzLOLLd3SmC3Coz7VeK+0Okdb5zCZAA8gA5xw4jzqm7T1XY4izgyjNx6GLJK6aV8sh2nvcXOPaSclWpKKSRi3nmCkCEIFAU4WJeSQCpAgoQIQGdarVcLtLzdupZJyOJaOi3vPAKq2+ulZm8EqLfRHwqYJaWplpqhuxLE8seOwg4WcJqcVKPRmLWDpeg7TQ27Tv6+npn1NU5rnjZbtOY0btlo7dy4W0LrLb+BF4X+6mzXFKO8VVy5S7jM8i3U0FOzPGTpv8Fs1bIqS895fyMJXvsKWbWWopjl10lb5mNa32BbcdBpl+ww4k+8+bdV39pyLtU/e4FT5Fp/URHEn3lhSa+1BTkc5Ux1DR1SxN9owqp7L00+ix7iVdNG56c1HT6vjmt9wthyGZecbUR+/qK5Op0ktE1OE/5L4TVnJo53qe2MtF8qqKJ2YmOyzPENO8A93Bd3SXO6lTfU1bI7smj6x6ZvElsiuMFI6aCRu0Ob3uxn5PH0LF62hWOtyw0FVLGSpILSWuBBBwQRghbSfcYM8pIFAIKAkEAoQU6xNgQUIJIBGTuAJ7gpB0XS+gYm0/6x1MebiA2xTl2yA3jl56u70ri6rabb4dHXv/AILoVdsjLu/KHQW5n6Hp6jZIGbhIRsxDuA3n1KqnZdlnn3v+SXalyic7uNdPcq6Wsqy108py8taGj0Lt1VxqioR6Ioby8nV9M3EWjk7guD4jK2CNzixpwT0yvPaqp3a11rt/g2YPdryYkl30NqAB1wZFDM7jzzTG/P1m+KsVGv07xDmvn4Eb1cuoDSGjqkbVLcAAfkVgd7cqfL9bHlKPgRwq2I0Lplm99xkx56hgT8R1b6Q8GOFABatA2xwfNUU8z29T6l0v/qDj1Jx9o28kmvhjxI3KolnY9WWmtusVos1K8Rlrnc5sBjBgdQ4n1LX1Giurrd1rM42Rct1GicofwsrPqs/KF2tm/po/H6mvd6Z97Drq5WuOOnnbHV0sYDWsIDHNaOABHvBWGo2XVa3KPJsmF0o8jbANOa5gJaDDXNbn5MrPRucPSub/AOrQS584+H9FvmW+80HUNhq7BVc1VAOjfnmpm+S/wPmXa0uqhqIZj17Ua04OD5lUtorFASBQCgKhYl55AIUkG9cldkZX3SW4VDA6KjxzbTwMh6/uHtXJ2rqHXWoR/d9C2qOXkxNe6pnvVwko6eRzbdTvLWsG7nXAnpHtHZ6Vbs/SRpgpyXnPwIslvPBqgK6JUOUB1yx0Et05MmUNOWiWaFzWFx3Z2iV5y+1Va/fl0T+xsxW9XhHM7jaLla5DHXUU0P0iwlp7ncCu9XfVaswkmazi11Rg9E8cK7mYiGsG/DfQoyD6RNdI7ZiaXk8Gsbk+gI2kssLmb9ydadulPeI7nV0r6enbG5oEw2XuyOpvH04XG2nq6ZVcOLyy+mEt7LKblE+FlX3M/KFt7N/TR+P1MLvTZrgW8VH0gmlp5mTwPdHKw5a9pwWlRKKnFxl0ZK5PJ1O0VMWttLTU1YB+lxDYc7GOnjovHf4rzl0JaDUqcOj/ANg2oviwwzlr2PikfHIMPY4tcOwjivSJprKNP2ApIFAIKAqViXigPIDqHI9URuo7pRbWJOcbL59kjZ93rXC2xF70J9nQup6NHPLrQzWy5VNFUNIkhkLTnrGdxHmIwV2arI2VqUe0paw8GMrSBCEHWrPXT2zkvbW0hAmhic5u0MjO32Lzl1cbdobkujf2NmLxXlFdQcqGW7Fztm12ugdx/hd4q+zY/PNcvn/Rir+9GYdY6Oq99VbyCePOUbXezKr8g1sPRl4k8St9hFupNBxdKOgiz5qD/RT5JtF9ZeI4lfcSfyiWKkbigtk5I4YjZGPb7lC2VqJ/mSXiONBdES01rWuvupIaQwRQUpY9xa07TiQN2T4Jqtnw09DnnL5CFjlLGDVOUT4W1ncz8oXS2b+lj8fqU3ema4FvFQhAdK5K6R9PQ19wmyyGUgMJ6w3JJ9a4O17FKca11X3NnTrCbOfV0zaivqp2eTLM97e4uJ967dcd2Ci+xL6GtLm8nxWZAqSBQFQCsTYJBCBQFjYbxU2K6Q11JguZuew8JGni0/77FTfRG+t1yMoycXk6hcLbZuUG2trrfOIq+NuyHkdJnXsPHZv4+hcKq6/Z89ya81/7KLnGNiyc0vdgudjmLLhSvYz4szRtRu7j7l3KNTXeswfw7SiUXHqVq2DE7LpSghunJ7T0NQ5zYpo3NcWnBHSK8xq7HVrXOPVGzBZhhmo3Pk1vFM5xoZYKuPq37D/vB8V0qtrUy9PkVOmS6FJLpXUEJxJaKvP0Gh/sytuOt00uk0YOuXcQbpy+O4Weu/AcFl5Xp/XRG5LuM6j0RqKpcAbeYQfjTPa335VU9o6aH7s+4yVU32G86N0S6xVgr6yqbLU7BaxkY6Lc8d54rka3aK1EeHFYRdXVuvLZpfKJ8Lqz6rPyhdbZv6aPx+pRd6bNdja57wxjS5zjgNaMknuW8+SyyvBuumNBVVa5lTeQ6mpRv5k7pH9/yR61ydVtSEE41c339iLoUt85dDN1rqemgov1DY3NETW81NJH5LGjdsN95VWg0UpS493+9plbYkt2Jz9dw1cCoAhAKkFQsS8QUBIFCBQGVbrhWWyqbVUFQ+CZu4OaersI4EeYrCyuFkd2ayiU2joVn5TIJom02oaPaDtzpYmhzT3sPuyuNdslxe9TL5/yWq1fuNEvtRS1N4q5rfCyGldIeaYxuBsjrx5+K69EZwqipvLKZNZyjo9CJH8kjv0cPdLzDi0R52s7fVhcSzH4l53TPb7i9flGmW/W2oKBoZHcDKwbgyoaJPWd/rXVs2fp59Y49xTxJouoOU+7NbiajpJHdo2m+9ar2PT2SZmrn3H1PKjcCOjbqX+dxWK2PX2yY477jCquUa/zAiD9Fp29rItoj0nHqVsdladdcsx40jL0FcrpdtXRS11TUVDY4ZNok9FmRu3DcFhr6aatM1BJc0TXKUpcys5RT/zdWdfRZ+ULY2a//NH4/Uwu9Nl/YNTabsdkppWUgdcjHiVkUeXlw3ZLjwzxWlqNFqr7mm/N9pbGyEV7Sj1Dra53kOhjIpKV3GOI73D6TvctzT7Oqp5vmyudspGtjit8pEIBUgQoIEICoCg2BQgQgJBCBQHlIEHsUEG2aN1nPp5ppZ4jUULnF2wDhzCeJb4Ln6zQR1D308SLIWbvJm2uqdA6iJlqBTU87vKL8078+cjAPrXPUNoabkstfMs/5yD+wGmarpUdzkA/u52PU/ieqhynHwZHCg+jPDk1srd7rpUkfWZ4J+LX+ovH+Rwo94/2a0PbTmtrYZHD4stX7mkJ5Xr7OUY/JE7la7T51uurJZ6V1NpyiY9wGG7MfNxg9vDJU17NvulvXy+7IdsYrzUc5rauevrJquqeXzTPLnuPb4Lu11xhFQiuSNdtt5Z8R6lkYigFASBQgUAqQKggqFBsDlAKEG76E0lQahtNbV1sk7JKeUsaIn4GNgHs865mu1lmnsjGHRlkIKSyaUw5aO5dQqN70Fox1zLLpdmFlA05jifu5/HWexvt7lydfr+F/wAq/S+hbCvPNlBq4WgX2cWEk0vXjyNrr2Po/wCq3NHxuCuN1MJpb3IpgVsmBJSALGO8prXd4RNroDwjj/8AGz+UKd5kE2gAYAwFAJ5QgcoDoOm9N2O/6XdHSzbN1bgyyu8qN/Zj5H/1cXU6vUafUZmvN7F3r+TYjCM48uppNyoKm11stHWxOjmjOMEbnDqIPWD2rrVWxtipweUzXlHdeGbDoPTtJqGasZWPlYIGsLebdjOc+C09oauzTKLh2llUFPOTXq+JtPX1UDMlkUz42k8cBxHuW9XLehGT7UitrDaPiCsjEQgFSCoWJeIQCEB1fki+Dd2+0H/LauDtf86Hu+5bV0ZR8n2ijc2x3S7sLKBozHE4YM3Defoe1bO0Neq81185Pw/sxhDPN9D7691sKsPtFkeG0TejLNGcc5j4rcfF9vcsdBoNz/rb17v92iyeeSNCC65UeQCNyEEkAqQIKECEBLKEGbaLpV2euZWUMhZI07wfJeOwjsVV1MLoOE+hMZOLyjpz2WvlCsm1GRBXwjvdC7sPa0/73rgJ27Otx1i/H+zZ822PtMLkyoKq13e8UdbEY5mMj4jc4ZdgjtHnV21LYW1Vzg8p5+3UxpTTaZoF4/fFw+1S/nK7VP5UfcvoUS6sxMqwxJBCBQFQoNg8hBIIDrfIxsuslyacHNXvH8DVwNsfmx933LquhsWrLLc7xQtoLZXxUFMRiX/hEucPkjBGAtPS31Uy35x3mZyTawaV+yWt+eafH2d39S6b2zD1H8yrgvvNHu1E62XOqoHyCR1PIWF7RgOx14XVqs4lamu0qaw8GKsyDyAQUIJIBUgQUIEIDbNMaJqdQ239Nhr4oGiQx7Loi47u4hc7U7QjprNxxyWQqc1nJsdp0Bd7RXR1lFe4WSMO8cw7Dx1gja4LSu2nTdBwnW/n49CyNUovKZ0COPBEj2s53ZDXOaPV3LjN9i6F5+f7v+9689Rqpcfzlezp/Kj7l9DQl1ZiqwxEICQKEFQoNgUB5SQZVHcKyiLjRVc9OXDpc1IW578KudcJ+kskptdDKGoLz87V3+Id4rDyan1F8hvPvJf2gvPzrXf4h3ink1PqL5DefeYMksk8r5Znukkecue45JPaVckksIxI5QgkgPIBCEEggPKQOUIM2ludwpI+apa6ohjznZjkLRnuCrnTXN5lFMlSa6H2F9vHzpW/ju8Vj5NT6i+RO8+88b3dnAh1zrSDuI593ii09K/YvkRvPvMFXGIoQKAUBUqC8QgFAIQgQgEIBQgQUBJCBQHkAgoQSQCpAgoQIQEkIFAeQCEIFAVA4qDYJBCBQCgYhCBQChAoCSAQhAoDwQCEIJIBUhiOCEEkAhCBQHggEIQf/9k=;" vertex="1" parent="1">
          <mxGeometry y="320.3" width="60.34" height="54.45" as="geometry" />
        </mxCell>
      </root>
    </mxGraphModel>
  </diagram>
  <diagram name="Flattened Data to Redshift" id="ez-iZXjKAAEOkVn0BjkU">
    <mxGraphModel grid="1" page="0" gridSize="10" guides="1" tooltips="1" connect="1" arrows="1" fold="1" pageScale="1" pageWidth="827" pageHeight="1169" math="0" shadow="0">
      <root>
        <mxCell id="0" />
        <mxCell id="1" parent="0" />
        <UserObject label="" tags="Background" id="rU0Wcz3SSFCa0gwKP19f-33">
          <mxCell style="vsdxID=295;fillColor=none;gradientColor=none;shape=stencil(nZBRDoQgDERP03+WHsHFe5iISyOCQdT19kIaIxq//Jtp3zTpAFaTaUYNUkwx+F6v1EYD+AUpyRkdKCYFqACrzgf9C352LfuxyWRWg1/yhT/nRE5IsZWuZtCSK8CPeI0e/hF+jV7AJM4PO7KWCyr390bSiNtEtQM=);strokeColor=#000000;spacingTop=-3;spacingBottom=-3;spacingLeft=-3;spacingRight=-3;points=[];labelBackgroundColor=none;rounded=0;html=1;whiteSpace=wrap;" vertex="1" parent="1">
            <mxGeometry x="2090" y="86" width="313" height="604" as="geometry" />
          </mxCell>
        </UserObject>
        <UserObject label="&lt;div style=&quot;font-size: 1px&quot;&gt;&lt;font style=&quot;font-size:17.46px;font-family:Helvetica;color:#000000;direction:ltr;letter-spacing:0px;line-height:120%;opacity:1&quot;&gt;&lt;b&gt;Redshift Database&lt;/b&gt;&lt;/font&gt;&lt;/div&gt;" tags="Background" id="rU0Wcz3SSFCa0gwKP19f-34">
          <mxCell style="verticalAlign=middle;align=center;overflow=width;vsdxID=346;fillColor=none;gradientColor=none;shape=stencil(nZBRDoQgDERP03+WHsHFe5iISyOCQdT19kIaIxq//Jtp3zTpAFaTaUYNUkwx+F6v1EYD+AUpyRkdKCYFqACrzgf9C352LfuxyWRWg1/yhT/nRE5IsZWuZtCSK8CPeI0e/hF+jV7AJM4PO7KWCyr390bSiNtEtQM=);strokeColor=none;spacingTop=-3;spacingBottom=-3;spacingLeft=-3;spacingRight=-3;points=[];labelBackgroundColor=none;rounded=0;html=1;whiteSpace=wrap;" vertex="1" parent="1">
            <mxGeometry x="2160" y="106" width="160" height="40" as="geometry" />
          </mxCell>
        </UserObject>
        <UserObject label="&lt;div style=&quot;font-size: 1px&quot;&gt;&lt;br&gt;&lt;/div&gt;" tags="Background" id="rU0Wcz3SSFCa0gwKP19f-35">
          <mxCell style="verticalAlign=middle;align=center;overflow=width;vsdxID=349;fillColor=none;gradientColor=none;shape=stencil(nZBRDoQgDERP03+WHsHFe5iISyOCQdT19kIaIxq//Jtp3zTpAFaTaUYNUkwx+F6v1EYD+AUpyRkdKCYFqACrzgf9C352LfuxyWRWg1/yhT/nRE5IsZWuZtCSK8CPeI0e/hF+jV7AJM4PO7KWCyr390bSiNtEtQM=);strokeColor=none;spacingTop=-3;spacingBottom=-3;spacingLeft=-3;spacingRight=-3;points=[];labelBackgroundColor=none;rounded=0;html=1;whiteSpace=wrap;" vertex="1" parent="1">
            <mxGeometry x="2273" y="215.5" width="79" height="57" as="geometry" />
          </mxCell>
        </UserObject>
        <mxCell id="rU0Wcz3SSFCa0gwKP19f-36" vertex="1" parent="1">
          <mxGeometry x="2192" y="388" as="geometry" />
        </mxCell>
        <mxCell id="rU0Wcz3SSFCa0gwKP19f-37" value="" style="outlineConnect=0;dashed=0;verticalLabelPosition=bottom;verticalAlign=top;align=center;html=1;shape=mxgraph.aws3.redshift;fillColor=#2E73B8;gradientColor=none;" vertex="1" parent="1">
          <mxGeometry x="2198.88" y="244.38" width="82.25" height="92" as="geometry" />
        </mxCell>
        <mxCell id="rU0Wcz3SSFCa0gwKP19f-38" value="&lt;h1 style=&quot;margin-top: 0px;&quot;&gt;&lt;font style=&quot;font-size: 14px;&quot;&gt;RedShift Tables&lt;/font&gt;&lt;/h1&gt;&lt;p&gt;-&amp;gt; cja_all_events&lt;/p&gt;&lt;p&gt;-&amp;gt; cja_sessions&lt;/p&gt;&lt;p&gt;-&amp;gt; cja_syncstatus&lt;/p&gt;&lt;p&gt;-&amp;gt; cja_processfontfinish&lt;/p&gt;&lt;p&gt;-&amp;gt; cja_users&lt;/p&gt;&lt;p&gt;-&amp;gt;&amp;nbsp;cja_web_kit_downloaded_successfully&lt;/p&gt;" style="text;html=1;whiteSpace=wrap;overflow=hidden;rounded=0;" vertex="1" parent="1">
          <mxGeometry x="2120" y="440" width="260" height="210" as="geometry" />
        </mxCell>
        <mxCell id="MaxW_q_MV4fKr5k28dgy-5" value="" style="edgeStyle=orthogonalEdgeStyle;rounded=0;orthogonalLoop=1;jettySize=auto;html=1;entryX=0.001;entryY=0.549;entryDx=0;entryDy=0;entryPerimeter=0;" edge="1" parent="1" source="ckcrZBubycAC5ZureNZQ-1" target="rU0Wcz3SSFCa0gwKP19f-3">
          <mxGeometry relative="1" as="geometry">
            <mxPoint x="1280" y="411" as="targetPoint" />
          </mxGeometry>
        </mxCell>
        <UserObject label="" tags="Background" id="ckcrZBubycAC5ZureNZQ-1">
          <mxCell style="vsdxID=295;fillColor=none;gradientColor=none;shape=stencil(nZBRDoQgDERP03+WHsHFe5iISyOCQdT19kIaIxq//Jtp3zTpAFaTaUYNUkwx+F6v1EYD+AUpyRkdKCYFqACrzgf9C352LfuxyWRWg1/yhT/nRE5IsZWuZtCSK8CPeI0e/hF+jV7AJM4PO7KWCyr390bSiNtEtQM=);strokeColor=#000000;spacingTop=-3;spacingBottom=-3;spacingLeft=-3;spacingRight=-3;points=[];labelBackgroundColor=none;rounded=0;html=1;whiteSpace=wrap;" vertex="1" parent="1">
            <mxGeometry x="840" y="86" width="280" height="604" as="geometry" />
          </mxCell>
        </UserObject>
        <UserObject label="&lt;div style=&quot;&quot;&gt;&lt;span style=&quot;font-size: 17.46px;&quot;&gt;&lt;b&gt;PROCESSED DATA LOCATION&lt;/b&gt;&lt;/span&gt;&lt;/div&gt;" tags="Background" id="MaxW_q_MV4fKr5k28dgy-2">
          <mxCell style="verticalAlign=middle;align=center;overflow=width;vsdxID=346;fillColor=none;gradientColor=none;shape=stencil(nZBRDoQgDERP03+WHsHFe5iISyOCQdT19kIaIxq//Jtp3zTpAFaTaUYNUkwx+F6v1EYD+AUpyRkdKCYFqACrzgf9C352LfuxyWRWg1/yhT/nRE5IsZWuZtCSK8CPeI0e/hF+jV7AJM4PO7KWCyr390bSiNtEtQM=);strokeColor=none;spacingTop=-3;spacingBottom=-3;spacingLeft=-3;spacingRight=-3;points=[];labelBackgroundColor=none;rounded=0;html=1;whiteSpace=wrap;" vertex="1" parent="1">
            <mxGeometry x="893.87" y="100" width="172.25" height="40" as="geometry" />
          </mxCell>
        </UserObject>
        <UserObject label="&lt;div style=&quot;font-size: 1px&quot;&gt;&lt;font style=&quot;font-size:11.64px;font-family:Helvetica;color:#000000;direction:ltr;letter-spacing:0px;line-height:120%;opacity:1&quot;&gt;&lt;b&gt;S3 BUCKET FOR PROCESSED DATA&lt;/b&gt;&lt;/font&gt;&lt;/div&gt;" tags="Background" id="MaxW_q_MV4fKr5k28dgy-3">
          <mxCell style="verticalAlign=middle;align=center;overflow=width;vsdxID=348;fillColor=none;gradientColor=none;shape=stencil(nZBRDoQgDERP03+WHsHFe5iISyOCQdT19kIaIxq//Jtp3zTpAFaTaUYNUkwx+F6v1EYD+AUpyRkdKCYFqACrzgf9C352LfuxyWRWg1/yhT/nRE5IsZWuZtCSK8CPeI0e/hF+jV7AJM4PO7KWCyr390bSiNtEtQM=);strokeColor=none;spacingTop=-3;spacingBottom=-3;spacingLeft=-3;spacingRight=-3;points=[];labelBackgroundColor=none;rounded=0;html=1;whiteSpace=wrap;" vertex="1" parent="1">
            <mxGeometry x="875" y="440" width="210" height="30" as="geometry" />
          </mxCell>
        </UserObject>
        <mxCell id="MaxW_q_MV4fKr5k28dgy-6" value="" style="edgeStyle=orthogonalEdgeStyle;rounded=0;orthogonalLoop=1;jettySize=auto;html=1;exitX=1.006;exitY=0.538;exitDx=0;exitDy=0;exitPerimeter=0;" edge="1" parent="1" source="rU0Wcz3SSFCa0gwKP19f-3">
          <mxGeometry relative="1" as="geometry">
            <mxPoint x="1928" y="410" as="sourcePoint" />
            <mxPoint x="2088" y="400" as="targetPoint" />
          </mxGeometry>
        </mxCell>
        <UserObject label="&lt;div style=&quot;font-size: 1px&quot;&gt;&lt;font style=&quot;font-size:23.28px;font-family:Helvetica;color:#000000;direction:ltr;letter-spacing:0px;line-height:120%;opacity:1&quot;&gt;&lt;b&gt;Table Creation in Redshift&lt;/b&gt;&lt;/font&gt;&lt;/div&gt;" tags="Background" id="njeX5I4Gn-Dz6Mayfwob-1">
          <mxCell style="verticalAlign=middle;align=center;overflow=width;vsdxID=350;fillColor=none;gradientColor=none;shape=stencil(nZBRDoQgDERP03+WHsHFe5iISyOCQdT19kIaIxq//Jtp3zTpAFaTaUYNUkwx+F6v1EYD+AUpyRkdKCYFqACrzgf9C352LfuxyWRWg1/yhT/nRE5IsZWuZtCSK8CPeI0e/hF+jV7AJM4PO7KWCyr390bSiNtEtQM=);strokeColor=none;spacingTop=-3;spacingBottom=-3;spacingLeft=-3;spacingRight=-3;points=[];labelBackgroundColor=none;rounded=0;html=1;whiteSpace=wrap;" vertex="1" parent="1">
            <mxGeometry x="1469" y="20" width="301" height="40" as="geometry" />
          </mxCell>
        </UserObject>
        <mxCell id="em_V5U25uTuKI5vQf9XN-1" value="" style="sketch=0;outlineConnect=0;fontColor=#232F3E;gradientColor=none;fillColor=#7AA116;strokeColor=none;dashed=0;verticalLabelPosition=bottom;verticalAlign=top;align=center;html=1;fontSize=12;fontStyle=0;aspect=fixed;pointerEvents=1;shape=mxgraph.aws4.simple_storage_service_directory_bucket;" vertex="1" parent="1">
          <mxGeometry x="942.5" y="349.00000000000006" width="75" height="78" as="geometry" />
        </mxCell>
        <UserObject label="&lt;div style=&quot;font-size: 1px&quot;&gt;&lt;p style=&quot;text-align:left;margin-left:0;margin-right:0;margin-top:0px;margin-bottom:0px;text-indent:0;vertical-align:middle;direction:ltr;&quot;&gt;&lt;/p&gt;&lt;ul style=&quot;margin: 0;list-style-type: disc&quot;&gt;&lt;font style=&quot;font-size:13.58px;font-family:Helvetica;color:#000000;direction:ltr;letter-spacing:0px;line-height:120%;opacity:1&quot;&gt;&lt;/font&gt;&lt;li&gt;&lt;font style=&quot;font-size:13.58px;font-family:Helvetica;color:#000000;direction:ltr;letter-spacing:0px;line-height:120%;opacity:1&quot;&gt;Redshift Schema Name: &lt;span style=&quot;font-weight: normal;&quot;&gt;cja_events_dev&lt;/span&gt;&lt;/font&gt;&lt;/li&gt;&lt;li&gt;&lt;font style=&quot;font-size:13.58px;font-family:Helvetica;color:#000000;direction:ltr;letter-spacing:0px;line-height:120%;opacity:1&quot;&gt;Redshift Cluster Name: &lt;span style=&quot;font-weight: normal;&quot;&gt;customer-analytics-1&lt;/span&gt;&lt;/font&gt;&lt;/li&gt;&lt;li&gt;&lt;font style=&quot;font-size:13.58px;font-family:Helvetica;color:#000000;direction:ltr;letter-spacing:0px;line-height:120%;opacity:1&quot;&gt;Redshift Database Name: &lt;span style=&quot;font-weight: normal;&quot;&gt;Heap&lt;/span&gt;&lt;/font&gt;&lt;/li&gt;&lt;li&gt;&lt;font style=&quot;font-size:13.58px;font-family:Helvetica;color:#000000;direction:ltr;letter-spacing:0px;line-height:120%;opacity:1&quot;&gt;&lt;span style=&quot;font-weight: normal;&quot;&gt;&lt;br&gt;&lt;/span&gt;&lt;/font&gt;&lt;/li&gt;&lt;/ul&gt;&lt;/div&gt;" tags="Background" id="S7cFhThOo_kBzRzeGaB4-1">
          <mxCell style="verticalAlign=middle;align=left;overflow=width;vsdxID=355;fillColor=none;gradientColor=none;shape=stencil(nZBRDoQgDERP03+WHsHFe5iISyOCQdT19kIaIxq//Jtp3zTpAFaTaUYNUkwx+F6v1EYD+AUpyRkdKCYFqACrzgf9C352LfuxyWRWg1/yhT/nRE5IsZWuZtCSK8CPeI0e/hF+jV7AJM4PO7KWCyr390bSiNtEtQM=);strokeColor=none;spacingTop=-3;spacingBottom=-3;spacingLeft=-3;spacingRight=-3;points=[];labelBackgroundColor=none;rounded=0;html=1;whiteSpace=wrap;fontStyle=1" vertex="1" parent="1">
            <mxGeometry x="2080" y="366.81" width="360" height="90" as="geometry" />
          </mxCell>
        </UserObject>
        <mxCell id="rU0Wcz3SSFCa0gwKP19f-3" style="vsdxID=315;fillColor=#ffffff;gradientColor=none;shape=stencil(rVNBDsIgEHwNVwOLMd5r/YAvIIKWWEulrVZfL3S1UZpWTHrbnZ1lkpmF8KTKRKkI0Kq25qRuWtYZ4RsCoItMWV27ivCU8ORgrDpa0xQS+1I4JtAOURJ3mGcDFXa/0w+F2Gq5WCOMe2dz9Xrta4NSHN6xx26L1FwXsdRLI6SnspDLPsm0hXAOP3XjVac1Z1F0RWc8RqLzHHPr5/OkEp3JN/HtapQ7fQQj/gSPTd/CtPLgGgbag3v4S308oSAdV4TfyEH4BXn6BA==);strokeColor=#000000;spacingTop=-3;spacingBottom=-3;spacingLeft=-3;spacingRight=-3;points=[];labelBackgroundColor=none;rounded=1;html=1;whiteSpace=wrap;" vertex="1" parent="1">
          <mxGeometry x="1240" y="80" width="730" height="610" as="geometry" />
        </mxCell>
        <mxCell id="rU0Wcz3SSFCa0gwKP19f-4" style="vsdxID=316;fillColor=none;gradientColor=none;shape=stencil(nZBRDoQgDERP03+WHsHFe5iISyOCQdT19kIaIxq//Jtp3zTpAFaTaUYNUkwx+F6v1EYD+AUpyRkdKCYFqACrzgf9C352LfuxyWRWg1/yhT/nRE5IsZWuZtCSK8CPeI0e/hF+jV7AJM4PO7KWCyr390bSiNtEtQM=);strokeColor=#000000;spacingTop=-3;spacingBottom=-3;spacingLeft=-3;spacingRight=-3;points=[];labelBackgroundColor=none;rounded=0;html=1;whiteSpace=wrap;" vertex="1" parent="1">
          <mxGeometry x="1301" y="448.3333333333333" width="537" height="206.30434782608697" as="geometry" />
        </mxCell>
        <mxCell id="rU0Wcz3SSFCa0gwKP19f-5" value="&lt;div style=&quot;font-size: 1px&quot;&gt;&lt;font style=&quot;font-size:17.46px;font-family:Helvetica;color:#000000;direction:ltr;letter-spacing:0px;line-height:120%;opacity:1&quot;&gt;&lt;b&gt;&amp;nbsp;GLUE JOB (Combo events + Transformation )&lt;/b&gt;&lt;/font&gt;&lt;/div&gt;" style="verticalAlign=middle;align=center;overflow=width;vsdxID=317;fillColor=none;gradientColor=none;shape=stencil(nZBRDoQgDERP03+WHsHFe5iISyOCQdT19kIaIxq//Jtp3zTpAFaTaUYNUkwx+F6v1EYD+AUpyRkdKCYFqACrzgf9C352LfuxyWRWg1/yhT/nRE5IsZWuZtCSK8CPeI0e/hF+jV7AJM4PO7KWCyr390bSiNtEtQM=);strokeColor=none;spacingTop=-3;spacingBottom=-3;spacingLeft=-3;spacingRight=-3;points=[];labelBackgroundColor=none;rounded=0;html=1;whiteSpace=wrap;" vertex="1" parent="1">
          <mxGeometry x="1330" y="93.18840579710145" width="550" height="37.68115942028985" as="geometry" />
        </mxCell>
        <mxCell id="rU0Wcz3SSFCa0gwKP19f-6" style="vsdxID=318;fillColor=#8C4FFF;gradientColor=none;shape=stencil(pVnbcts4DP0av3JIgjc9d9v/6LTpJrPZpJOmu8nfFx6LJHQgUnb7Zss4Iq4HIHyiDz/uP3+/O3n74/Xl+Z+7/x++vt6f6K+T9w9P93cvD6/86UQfT/Th2/PL3d8vzz+fvl6+f/98ljx/+vf5v/Mb3i44e0Z4+y6/fboIPj48CUFnf1u0ft8V/m3RjSB/6BZ+e3h8bL+MDKfFJNq80AdT3Pj04E1c/hDgTIljwI5KNwNQJTA6mZS3gGRocoCWt4ayBHz5+XI5wWnI+sgtJl6ssG9+lcqGqubrI1dMWd31RqtUMW4FvhNK7fs8GLtVWAFQYYbUc5vCQpVVuxBNTKCwMIu0FA0cBgoLxH5ElL4CsT7y2TgH+gqrfJPKBfQV7iKU2s8IEZIBQGWEiLXTqnidN16bRVqK9v21zfjoTCjbhIhmmaR8DCaEPwR4s6QJQKt0MwBV2hodiol+C8gmzKhKA9qZozQUkFo21qQEabgYV1WvZWO3IY2V1mnz+74nmt29YcyUjMnkiEpuNYzNM0LDbgdpKRp4CFQViEEMlLYC0pnIEygsbBpTp/TUddQZoRMf8qYI7YQ3RZp4bRNpKRp4C+paVR1Zk8Mt8bgZcECNWqWbAUolMLrxxJUjSOwBGQFUEi4mQxJ2TAtral2ts3VsLFXDKqUGbL3VVwJWj3jj/UxfCakNh4wNUDTCKt+kMtSM8BaB0L57VTxQXnnXGxeUthmUFXzvtUmkpWjgrKM+cjRrSITTYfbaKK9ThrSzaJCMkO5bRgpHo2fgQQMmuY6Ro+cCoydLeSB8cm1Cee/TaJ4M4yE1k1eFE18AwlTh1F3iGgYnIzbLgnsTpwOOnkKKmhRNik0iVkCqVTLhfGj6iZ0O5MBZoxRmKX+YD+fzZ5OWKjdl4U69KQ8L31WFSSvs1bDMUg7oQUUY6KzUemz8gDmk6Mz3idzp7OwVl4DOZKYPJitVQNty8+qyx9O2n+YDQwLSWTQFKq6xTKczvsNsdRUy1GTsdAARkHq2NQWLh50HZ1sDzMTTR0Det8beNC8z9S7ze3ExpJnf4i3I9wKrj4LxQP1+MYtX3nLTUJ17A4zCHF51/mKwTfYxaJRXdDTYco8u2KPFaztHqB6dag60wzNHJmnb5zNCt8o1p2ZSx++43kFfYPbAlQSHMU2GBEZEPXhOWSv7npBVYWcKKJzb4CCmBNxICKFr60pAek1HdTauQ2Th98MJqxop5eiCx+7Ls7uxBhztIySkJggXJw41euHDUgtcXCLkwjnTpvzOTYRgomIMnu2qze1sTvuanb0MDVxJu9D40h6ABOSLK2emPvv4riOyZtQDB1s/n9D4xoPtmJ0KySW3Ut31wIE7qysV+aPd4EFuXdEQ1d75spg/3D6n3tPXV+el8tqYRJEUGJMgdufrEKROsY35W+pwA4HYsVSa3VVdm5pWhcti4vyuY3sWu4YpOHvZXhDro+VgQ7RMdz6hO6Ueu8DOh0U8zHtSsz4WLFDeymbIMNGbBl5VbZm1hbFAxqu35QitUcaemlSGqB5mFWMWYPtc2mFiilLn90Vwc5hr+9p2fgE+PNp+3w6Y3tD1oHazfPuP5fpFKEcwIKdlU7AunVpv71ziutSI1NJ2w3MAgEt14QneT6Rju91d+Xp1R1OAK3Yi0jXjpYh083gpogJ4tBSZZ4he2t0sP09xvbNTgJ2dnWoNojx7a7BwD5Ol3nd2PikPbklk/G8rf8B/nvnR5V9r+vgL);strokeColor=#ffffff;spacingTop=-3;spacingBottom=-3;spacingLeft=-3;spacingRight=-3;points=[];labelBackgroundColor=none;rounded=0;html=1;whiteSpace=wrap;" vertex="1" parent="1">
          <mxGeometry x="1532" y="310.7971014492754" width="78" height="73.47826086956523" as="geometry" />
        </mxCell>
        <mxCell id="rU0Wcz3SSFCa0gwKP19f-7" style="vsdxID=319;fillColor=#ffffff;gradientColor=none;image;aspect=fixed;image=data:image/svg+xml,PD94bWwgdmVyc2lvbj0iMS4wIiBlbmNvZGluZz0iVVRGLTgiIHN0YW5kYWxvbmU9Im5vIj8+DQo8IS0tIENyZWF0ZWQgd2l0aCBJbmtzY2FwZSAoaHR0cDovL3d3dy5pbmtzY2FwZS5vcmcvKSAtLT4NCjxzdmcNCiAgIHhtbG5zOmRjPSJodHRwOi8vcHVybC5vcmcvZGMvZWxlbWVudHMvMS4xLyINCiAgIHhtbG5zOmNjPSJodHRwOi8vY3JlYXRpdmVjb21tb25zLm9yZy9ucyMiDQogICB4bWxuczpyZGY9Imh0dHA6Ly93d3cudzMub3JnLzE5OTkvMDIvMjItcmRmLXN5bnRheC1ucyMiDQogICB4bWxuczpzdmc9Imh0dHA6Ly93d3cudzMub3JnLzIwMDAvc3ZnIg0KICAgeG1sbnM9Imh0dHA6Ly93d3cudzMub3JnLzIwMDAvc3ZnIg0KICAgeG1sbnM6c29kaXBvZGk9Imh0dHA6Ly9zb2RpcG9kaS5zb3VyY2Vmb3JnZS5uZXQvRFREL3NvZGlwb2RpLTAuZHRkIg0KICAgeG1sbnM6aW5rc2NhcGU9Imh0dHA6Ly93d3cuaW5rc2NhcGUub3JnL25hbWVzcGFjZXMvaW5rc2NhcGUiDQogICB3aWR0aD0iMjUwIg0KICAgaGVpZ2h0PSIyNTAiDQogICBpZD0ic3ZnMzMxOSINCiAgIHNvZGlwb2RpOnZlcnNpb249IjAuMzIiDQogICBpbmtzY2FwZTp2ZXJzaW9uPSIwLjQ2Ig0KICAgdmVyc2lvbj0iMS4wIg0KICAgc29kaXBvZGk6ZG9jbmFtZT0ibm9waG90b19pLnN2ZyINCiAgIGlua3NjYXBlOm91dHB1dF9leHRlbnNpb249Im9yZy5pbmtzY2FwZS5vdXRwdXQuc3ZnLmlua3NjYXBlIj4NCiAgPGRlZnMNCiAgICAgaWQ9ImRlZnMzMzIxIj4NCiAgICA8aW5rc2NhcGU6cGVyc3BlY3RpdmUNCiAgICAgICBzb2RpcG9kaTp0eXBlPSJpbmtzY2FwZTpwZXJzcDNkIg0KICAgICAgIGlua3NjYXBlOnZwX3g9IjAgOiA1MjYuMTgxMDkgOiAxIg0KICAgICAgIGlua3NjYXBlOnZwX3k9IjAgOiAxMDAwIDogMCINCiAgICAgICBpbmtzY2FwZTp2cF96PSI3NDQuMDk0NDggOiA1MjYuMTgxMDkgOiAxIg0KICAgICAgIGlua3NjYXBlOnBlcnNwM2Qtb3JpZ2luPSIzNzIuMDQ3MjQgOiAzNTAuNzg3MzkgOiAxIg0KICAgICAgIGlkPSJwZXJzcGVjdGl2ZTMzMjciIC8+DQogICAgPGlua3NjYXBlOnBlcnNwZWN0aXZlDQogICAgICAgaWQ9InBlcnNwZWN0aXZlMzM0MiINCiAgICAgICBpbmtzY2FwZTpwZXJzcDNkLW9yaWdpbj0iMzcyLjA0NzI0IDogMzUwLjc4NzM5IDogMSINCiAgICAgICBpbmtzY2FwZTp2cF96PSI3NDQuMDk0NDggOiA1MjYuMTgxMDkgOiAxIg0KICAgICAgIGlua3NjYXBlOnZwX3k9IjAgOiAxMDAwIDogMCINCiAgICAgICBpbmtzY2FwZTp2cF94PSIwIDogNTI2LjE4MTA5IDogMSINCiAgICAgICBzb2RpcG9kaTp0eXBlPSJpbmtzY2FwZTpwZXJzcDNkIiAvPg0KICA8L2RlZnM+DQogIDxzb2RpcG9kaTpuYW1lZHZpZXcNCiAgICAgaWQ9ImJhc2UiDQogICAgIHBhZ2Vjb2xvcj0iI2ZmZmZmZiINCiAgICAgYm9yZGVyY29sb3I9IiM2NjY2NjYiDQogICAgIGJvcmRlcm9wYWNpdHk9IjEuMCINCiAgICAgaW5rc2NhcGU6cGFnZW9wYWNpdHk9IjAuMCINCiAgICAgaW5rc2NhcGU6cGFnZXNoYWRvdz0iMiINCiAgICAgaW5rc2NhcGU6em9vbT0iMi4yNDI5NDI3Ig0KICAgICBpbmtzY2FwZTpjeD0iMTIxLjk3NjQ4Ig0KICAgICBpbmtzY2FwZTpjeT0iMTIyLjQ0MTk4Ig0KICAgICBpbmtzY2FwZTpkb2N1bWVudC11bml0cz0icHgiDQogICAgIGlua3NjYXBlOmN1cnJlbnQtbGF5ZXI9ImxheWVyMSINCiAgICAgc2hvd2dyaWQ9ImZhbHNlIg0KICAgICBpbmtzY2FwZTp3aW5kb3ctd2lkdGg9IjE2NjQiDQogICAgIGlua3NjYXBlOndpbmRvdy1oZWlnaHQ9Ijg0NCINCiAgICAgaW5rc2NhcGU6d2luZG93LXg9Ii0zIg0KICAgICBpbmtzY2FwZTp3aW5kb3cteT0iLTE4IiAvPg0KICA8bWV0YWRhdGENCiAgICAgaWQ9Im1ldGFkYXRhMzMyNCI+DQogICAgPHJkZjpSREY+DQogICAgICA8Y2M6V29yaw0KICAgICAgICAgcmRmOmFib3V0PSIiPg0KICAgICAgICA8ZGM6Zm9ybWF0PmltYWdlL3N2Zyt4bWw8L2RjOmZvcm1hdD4NCiAgICAgICAgPGRjOnR5cGUNCiAgICAgICAgICAgcmRmOnJlc291cmNlPSJodHRwOi8vcHVybC5vcmcvZGMvZGNtaXR5cGUvU3RpbGxJbWFnZSIgLz4NCiAgICAgICAgPGRjOnRpdGxlPkZvdG9ncmFmaWVydmVyYm90PC9kYzp0aXRsZT4NCiAgICAgICAgPGRjOmRhdGU+MjAwOC0wNi0yOTwvZGM6ZGF0ZT4NCiAgICAgICAgPGRjOmNyZWF0b3I+DQogICAgICAgICAgPGNjOkFnZW50Pg0KICAgICAgICAgICAgPGRjOnRpdGxlPlRvcnJzdGVuIFNrb21wPC9kYzp0aXRsZT4NCiAgICAgICAgICA8L2NjOkFnZW50Pg0KICAgICAgICA8L2RjOmNyZWF0b3I+DQogICAgICAgIDxkYzpyaWdodHM+DQogICAgICAgICAgPGNjOkFnZW50Pg0KICAgICAgICAgICAgPGRjOnRpdGxlPlRvcnN0ZW4gU2tvbXA8L2RjOnRpdGxlPg0KICAgICAgICAgIDwvY2M6QWdlbnQ+DQogICAgICAgIDwvZGM6cmlnaHRzPg0KICAgICAgICA8ZGM6cHVibGlzaGVyPg0KICAgICAgICAgIDxjYzpBZ2VudD4NCiAgICAgICAgICAgIDxkYzp0aXRsZT5Ub3JzdGVuIFNrb21wPC9kYzp0aXRsZT4NCiAgICAgICAgICA8L2NjOkFnZW50Pg0KICAgICAgICA8L2RjOnB1Ymxpc2hlcj4NCiAgICAgICAgPGRjOmxhbmd1YWdlPmRlX0RFPC9kYzpsYW5ndWFnZT4NCiAgICAgICAgPGRjOnN1YmplY3Q+DQogICAgICAgICAgPHJkZjpCYWc+DQogICAgICAgICAgICA8cmRmOmxpPlBpa3RvZ3JhbW07IEZvdG9ncmFmaWVydmVyYm90PC9yZGY6bGk+DQogICAgICAgICAgPC9yZGY6QmFnPg0KICAgICAgICA8L2RjOnN1YmplY3Q+DQogICAgICAgIDxkYzpkZXNjcmlwdGlvbj5Gb3RvZ3JhZmllcnZlcmJvdCBhbHMgUGlrdG9ncmFtbSA8L2RjOmRlc2NyaXB0aW9uPg0KICAgICAgICA8Y2M6bGljZW5zZQ0KICAgICAgICAgICByZGY6cmVzb3VyY2U9Imh0dHA6Ly9jcmVhdGl2ZWNvbW1vbnMub3JnL2xpY2Vuc2VzL3B1YmxpY2RvbWFpbi8iIC8+DQogICAgICA8L2NjOldvcms+DQogICAgICA8Y2M6TGljZW5zZQ0KICAgICAgICAgcmRmOmFib3V0PSJodHRwOi8vY3JlYXRpdmVjb21tb25zLm9yZy9saWNlbnNlcy9wdWJsaWNkb21haW4vIj4NCiAgICAgICAgPGNjOnBlcm1pdHMNCiAgICAgICAgICAgcmRmOnJlc291cmNlPSJodHRwOi8vY3JlYXRpdmVjb21tb25zLm9yZy9ucyNSZXByb2R1Y3Rpb24iIC8+DQogICAgICAgIDxjYzpwZXJtaXRzDQogICAgICAgICAgIHJkZjpyZXNvdXJjZT0iaHR0cDovL2NyZWF0aXZlY29tbW9ucy5vcmcvbnMjRGlzdHJpYnV0aW9uIiAvPg0KICAgICAgICA8Y2M6cGVybWl0cw0KICAgICAgICAgICByZGY6cmVzb3VyY2U9Imh0dHA6Ly9jcmVhdGl2ZWNvbW1vbnMub3JnL25zI0Rlcml2YXRpdmVXb3JrcyIgLz4NCiAgICAgIDwvY2M6TGljZW5zZT4NCiAgICA8L3JkZjpSREY+DQogIDwvbWV0YWRhdGE+DQogIDxnDQogICAgIGlua3NjYXBlOmxhYmVsPSJFYmVuZSAxIg0KICAgICBpbmtzY2FwZTpncm91cG1vZGU9ImxheWVyIg0KICAgICBpZD0ibGF5ZXIxIj4NCiAgICA8cGF0aA0KICAgICAgIHN0eWxlPSJmaWxsOiMwMDAwMDA7ZmlsbC1vcGFjaXR5OjEiDQogICAgICAgZD0iTSAxNjQuNTMxMjUgNjIuNjg3NSBDIDE2Mi43OTExNSA2Mi42ODc1MDEgMTYxLjM3NSA2NC4wNzI0MTYgMTYxLjM3NSA2NS44MTI1IEwgMTYxLjM3NSA2OC43NSBMIDM4LjM3NSA2OC43NSBDIDM1LjA5MjI5OCA2OC43NDk5OTkgMzIuNDY4NzUgNzEuMzczNTQ4IDMyLjQ2ODc1IDc0LjY1NjI1IEwgMzIuNDY4NzUgMTgxLjM3NSBDIDMyLjQ2ODc1IDE4NC42NTc3IDM1LjA5MjMwNyAxODcuMzEyNTEgMzguMzc1IDE4Ny4zMTI1IEwgMjExLjYyNSAxODcuMzEyNSBDIDIxNC45MDc2OSAxODcuMzEyNSAyMTcuNTMxMjcgMTg0LjY1NzcgMjE3LjUzMTI1IDE4MS4zNzUgTCAyMTcuNTMxMjUgNzQuNjU2MjUgQyAyMTcuNTMxMjUgNzEuMzczNTUxIDIxNC45MDc2OCA2OC43NSAyMTEuNjI1IDY4Ljc1IEwgMjAyLjA2MjUgNjguNzUgTCAyMDIuMDYyNSA2NS44MTI1IEMgMjAyLjA2MjUgNjQuMDcyNDEgMjAwLjY0NjM1IDYyLjY4NzUgMTk4LjkwNjI1IDYyLjY4NzUgTCAxNjQuNTMxMjUgNjIuNjg3NSB6IE0gNDYuODEyNSA3OCBMIDg4LjY1NjI1IDc4IEMgOTAuMzk2MzQyIDc4IDkxLjgxMjUgNzkuMzg0OTA3IDkxLjgxMjUgODEuMTI1IEwgOTEuODEyNSA5Ni4zMTI1IEMgOTEuODEyNSA5OC4wNTI1OTIgOTAuMzk2MzQzIDk5LjQzNzUgODguNjU2MjUgOTkuNDM3NSBMIDQ2LjgxMjUgOTkuNDM3NSBDIDQ1LjA3MjQwOCA5OS40Mzc1IDQzLjY4NzUgOTguMDUyNTkzIDQzLjY4NzUgOTYuMzEyNSBMIDQzLjY4NzUgODEuMTI1IEMgNDMuNjg3NSA3OS4zODQ5MDggNDUuMDcyNDA3IDc4IDQ2LjgxMjUgNzggeiBNIDE0NiA4OC4yMTg3NSBDIDE2Ny43MzQ3NSA4OC4yMTg3NTMgMTg1LjM3NSAxMDYuMTUwNzEgMTg1LjM3NSAxMjguMjUgQyAxODUuMzc0OTkgMTUwLjM0OTI4IDE2Ny43MzQ3NCAxNjguMjgxMjUgMTQ2IDE2OC4yODEyNSBDIDEyNC4yNjUyNyAxNjguMjgxMjYgMTA2LjYyNSAxNTAuMzQ5MjkgMTA2LjYyNSAxMjguMjUgQyAxMDYuNjI1IDEwNi4xNTA3MSAxMjQuMjY1MjYgODguMjE4NzUgMTQ2IDg4LjIxODc1IHogTSAxNDYgOTEuNzE4NzUgQyAxMjYuMTY1NTcgOTEuNzE4NzUgMTEwLjA2MjUgMTA4LjA4Mjg5IDExMC4wNjI1IDEyOC4yNSBDIDExMC4wNjI1IDE0OC40MTcxMSAxMjYuMTY1NTcgMTY0Ljc4MTI2IDE0NiAxNjQuNzgxMjUgQyAxNjUuODM0NDMgMTY0Ljc4MTI1IDE4MS45Mzc1IDE0OC40MTcxIDE4MS45Mzc1IDEyOC4yNSBDIDE4MS45Mzc1IDEwOC4wODI4OSAxNjUuODM0NDMgOTEuNzE4NzUgMTQ2IDkxLjcxODc1IHogTSAxNDYgOTYuNTkzNzUgQyAxNjMuMTc3NjggOTYuNTkzNzUyIDE3Ny4xMjUgMTEwLjc4NDIgMTc3LjEyNSAxMjguMjUgQyAxNzcuMTI0OTkgMTQ1LjcxNTggMTYzLjE3NzY5IDE1OS44NzUgMTQ2IDE1OS44NzUgQyAxMjguODIyMzEgMTU5Ljg3NSAxMTQuODc1IDE0NS43MTU4IDExNC44NzUgMTI4LjI1IEMgMTE0Ljg3NSAxMTAuNzg0MTkgMTI4LjgyMjMxIDk2LjU5Mzc1IDE0NiA5Ni41OTM3NSB6IE0gMTc2LjUgMTcyLjcxODc1IEwgMjA2LjE4NzUgMTcyLjcxODc1IEMgMjA3LjQyMTM4IDE3Mi43MTg3NSAyMDguNDA2MjUgMTczLjEyNzgzIDIwOC40MDYyNSAxNzMuNjI1IEwgMjA4LjQwNjI1IDE3Ny45Njg3NSBDIDIwOC40MDYyNSAxNzguNDY1OTIgMjA3LjQyMTM4IDE3OC44NDM3NSAyMDYuMTg3NSAxNzguODQzNzUgTCAxNzYuNSAxNzguODQzNzUgQyAxNzUuMjY2MTEgMTc4Ljg0Mzc1IDE3NC4yODEyNSAxNzguNDY1OTIgMTc0LjI4MTI1IDE3Ny45Njg3NSBMIDE3NC4yODEyNSAxNzMuNjI1IEMgMTc0LjI4MTI1IDE3My4xMjc4MyAxNzUuMjY2MTIgMTcyLjcxODc1IDE3Ni41IDE3Mi43MTg3NSB6ICINCiAgICAgICBpZD0icmVjdDMyMDkiIC8+DQogICAgPHBhdGgNCiAgICAgICBzdHlsZT0iZmlsbDojYzQyNjFkO2ZpbGwtb3BhY2l0eToxIg0KICAgICAgIGQ9Ik0gMjAgMCBDIDE4LjU1OTkzOCAwIDE3LjE2NDc0NyAwLjE1MDk4NjY2IDE1LjgxMjUgMC40Mzc1IEMgMTUuMjEwMjkxIDAuNTY1MTk1NzggMTQuNjExOTEzIDAuNzI2MjExMjYgMTQuMDMxMjUgMC45MDYyNSBDIDEzLjU1NDc3MyAxLjA1Mzk4NTIgMTMuMDg1MzQ5IDEuMjI0ODUzNiAxMi42MjUgMS40MDYyNSBDIDEyLjMyODc2NiAxLjUyMzA3MzkgMTIuMDM5MDMzIDEuNjUwOTE4MiAxMS43NSAxLjc4MTI1IEMgMTEuMzQ3Mjc4IDEuOTYyMzU5OCAxMC45NTA0MDYgMi4xMzc0MTY1IDEwLjU2MjUgMi4zNDM3NSBDIDEwLjUyMTU1NSAyLjM2NTU2ODggMTAuNDc4MjczIDIuMzg0MTU1NSAxMC40Mzc1IDIuNDA2MjUgQyAxMC40MTY5MzQgMi40MTczNzU0IDEwLjM5NTUyMiAyLjQyNjMwNDkgMTAuMzc1IDIuNDM3NSBDIDkuODMyNjg2MSAyLjczMzM0NDYgOS4zMjI2NDQ4IDMuMDYzMjQ1MiA4LjgxMjUgMy40MDYyNSBDIDguMjgzMTIyMSAzLjc2MjE4NjUgNy43NzI3NzI4IDQuMTU4OTIwOSA3LjI4MTI1IDQuNTYyNSBDIDcuMjc1MDU1IDQuNTY3NTg2NiA3LjI1NjE4ODggNC41NTc0MDYxIDcuMjUgNC41NjI1IEMgNy4yMzg1NDc5IDQuNTcxOTQzNCA3LjIzMDE4MDYgNC41ODQyODE2IDcuMjE4NzUgNC41OTM3NSBDIDcuMTA0NzM1MiA0LjY4ODAxNTkgNi45ODY4NTA3IDQuNzc4MjY4NyA2Ljg3NSA0Ljg3NSBDIDYuNTE1NzAyMSA1LjE4NjQyNjQgNi4xNzk3OTA5IDUuNTA3NzA5MSA1Ljg0Mzc1IDUuODQzNzUgQyA1LjQwNDQwMjUgNi4yODE4MDc4IDQuOTkwNzQ0OSA2Ljc0MTM1NTQgNC41OTM3NSA3LjIxODc1IEMgNC41NzkwMDg2IDcuMjM2NTQ2MiA0LjU3NzE4MDYgNy4yNjM0MDE1IDQuNTYyNSA3LjI4MTI1IEMgMy43Njc0ODk4IDguMjQzOTE4MSAzLjA0MjI3MjEgOS4yNzE4NzA1IDIuNDM3NSAxMC4zNzUgQyAyLjQyNjIyMzIgMTAuMzk1NjM1IDIuNDE3NDU2MSAxMC40MTY4MiAyLjQwNjI1IDEwLjQzNzUgQyAyLjEwODM5MDggMTAuOTg1MzQ4IDEuODQwMjIzMyAxMS41NDcyMTQgMS41OTM3NSAxMi4xMjUgQyAxLjU3NTU4NjUgMTIuMTY3NjY1IDEuNTQ5MTI1NSAxMi4yMDcxODIgMS41MzEyNSAxMi4yNSBDIDEuMjg3NzEzMSAxMi44MzI0MzMgMS4wOTQ2NzU0IDEzLjQyMTgyMiAwLjkwNjI1IDE0LjAzMTI1IEMgMC43Mjk2MzAxNCAxNC42MDI0OTUgMC41NjMwOTYzNCAxNS4xODg4MjggMC40Mzc1IDE1Ljc4MTI1IEMgMC4xNDY5MTQwNCAxNy4xNDI1NzggLTQuMzkwNjEzM2UtMTggMTguNTQ5NDY2IDAgMjAgTCAwIDIzMCBDIDAgMjQxLjA4IDguOTIgMjUwIDIwIDI1MCBMIDIzMCAyNTAgQyAyMzEuNDQwMDYgMjUwIDIzMi44MzUyNSAyNDkuODQ5MDEgMjM0LjE4NzUgMjQ5LjU2MjUgQyAyMzQuNzg5MDMgMjQ5LjQzNDk3IDIzNS4zODg2NiAyNDkuMjczODEgMjM1Ljk2ODc1IDI0OS4wOTM3NSBDIDIzNi40NDQ3NiAyNDguOTQ2IDIzNi45MTUwNSAyNDguNzc1MjYgMjM3LjM3NSAyNDguNTkzNzUgQyAyMzcuNjcxMjMgMjQ4LjQ3NjkzIDIzNy45NjA5NyAyNDguMzQ5MDggMjM4LjI1IDI0OC4yMTg3NSBDIDIzOC4yNzk4MSAyNDguMjA1MzEgMjM4LjMxNDAyIDI0OC4yMDEwOSAyMzguMzQzNzUgMjQ4LjE4NzUgQyAyMzguNzU4MzYgMjQ3Ljk5ODMgMjM5LjE2Mzc0IDI0Ny44MDk4MSAyMzkuNTYyNSAyNDcuNTkzNzUgQyAyMzkuNTgzMTggMjQ3LjU4MjU0IDIzOS42MDQzNiAyNDcuNTczNzggMjM5LjYyNSAyNDcuNTYyNSBDIDI0MC4xNjkyNSAyNDcuMjY1MTIgMjQwLjY3NTU4IDI0Ni45Mzg3MyAyNDEuMTg3NSAyNDYuNTkzNzUgQyAyNDEuNjY4NzggMjQ2LjI2OTQxIDI0Mi4xNDM1OSAyNDUuOTI2MzkgMjQyLjU5Mzc1IDI0NS41NjI1IEMgMjQyLjY0NDc0IDI0NS41MjEyOCAyNDIuNjk5NDMgMjQ1LjQ3OTIxIDI0Mi43NSAyNDUuNDM3NSBDIDI0Mi44NzY1MSAyNDUuMzMzMTggMjQzLjAwMTE1IDI0NS4yMzIzNSAyNDMuMTI1IDI0NS4xMjUgQyAyNDMuNDgyNjUgMjQ0LjgxNTM4IDI0My44MjE1NSAyNDQuNDkwMTkgMjQ0LjE1NjI1IDI0NC4xNTYyNSBDIDI0NC40OTIyOSAyNDMuODIwMjEgMjQ0LjgxMzU3IDI0My40ODQzIDI0NS4xMjUgMjQzLjEyNSBDIDI0NS4yMzE2NyAyNDMuMDAyMzQgMjQ1LjMzMzgxIDI0Mi44NzUyNyAyNDUuNDM3NSAyNDIuNzUgQyAyNDUuNDQyNzYgMjQyLjc0MzYyIDI0NS40MzIyNSAyNDIuNzI1MTMgMjQ1LjQzNzUgMjQyLjcxODc1IEMgMjQ1Ljg0MjQ5IDI0Mi4yMjgzIDI0Ni4yMzY0IDI0MS43MTU3NiAyNDYuNTkzNzUgMjQxLjE4NzUgQyAyNDYuOTM4MTIgMjQwLjY3ODQzIDI0Ny4yNjUzNiAyNDAuMTY2MjIgMjQ3LjU2MjUgMjM5LjYyNSBDIDI0Ny41NzM2MyAyMzkuNjA0NzIgMjQ3LjU4MjY4IDIzOS41ODI4MiAyNDcuNTkzNzUgMjM5LjU2MjUgQyAyNDcuODkxOTcgMjM5LjAxNDggMjQ4LjE1OTMxIDIzOC40NTIzOSAyNDguNDA2MjUgMjM3Ljg3NSBDIDI0OC40MTU1NCAyMzcuODUzMjggMjQ4LjQyODI5IDIzNy44MzQyNiAyNDguNDM3NSAyMzcuODEyNSBDIDI0OC40NDY0NCAyMzcuNzkxMjkgMjQ4LjQ1OTg4IDIzNy43NzEyNSAyNDguNDY4NzUgMjM3Ljc1IEMgMjQ4LjcwOTkyIDIzNy4xNzQ3NiAyNDguOTA2MjggMjM2LjU3MDA4IDI0OS4wOTM3NSAyMzUuOTY4NzUgQyAyNDkuMjczNzUgMjM1LjM5MTM3IDI0OS40MzQ2OCAyMzQuODE3NTQgMjQ5LjU2MjUgMjM0LjIxODc1IEMgMjQ5Ljg1MzA5IDIzMi44NTc0MiAyNTAgMjMxLjQ1MDUzIDI1MCAyMzAgTCAyNTAgMjAgQyAyNTAgOC45MiAyNDEuMDggLTMuMzUzNzk4N2UtMTcgMjMwIDAgTCAyMCAwIHogTSAzNC43ODEyNSAxOS40MDYyNSBMIDIyNS40Njg3NSAxOS40MDYyNSBDIDIyOC4zMDk0NiAxOS40MDYyNSAyMzAuNTkzNzUgMjEuNjkwNTQ0IDIzMC41OTM3NSAyNC41MzEyNSBMIDIzMC41OTM3NSAyMTUuMjUgTCAzNC43ODEyNSAxOS40MDYyNSB6IE0gMTkuNDA2MjUgMzQuNzUgTCAyMTUuMjE4NzUgMjMwLjU5Mzc1IEwgMjQuNTMxMjUgMjMwLjU5Mzc1IEMgMjEuNjkwNTQ0IDIzMC41OTM3NiAxOS40MDYyNSAyMjguMzA5NDYgMTkuNDA2MjUgMjI1LjQ2ODc1IEwgMTkuNDA2MjUgMzQuNzUgeiAiDQogICAgICAgaWQ9InBhdGgzMTk2IiAvPg0KICA8L2c+DQo8L3N2Zz4NCg==;strokeColor=#000000;spacingTop=-3;spacingBottom=-3;spacingLeft=-3;spacingRight=-3;points=[];labelBackgroundColor=#ffffff;rounded=0;html=1;whiteSpace=wrap;" vertex="1" parent="1">
          <mxGeometry x="1803" y="251.44927536231884" width="67.82608695652175" height="67.82608695652175" as="geometry" />
        </mxCell>
        <mxCell id="rU0Wcz3SSFCa0gwKP19f-8" value="&lt;div style=&quot;font-size: 1px&quot;&gt;&lt;font style=&quot;font-size:11.64px;font-family:Helvetica;color:#000000;direction:ltr;letter-spacing:0px;line-height:120%;opacity:1&quot;&gt;&lt;b&gt;GLUE SCRIPT&lt;/b&gt;&lt;/font&gt;&lt;/div&gt;" style="verticalAlign=middle;align=center;overflow=width;vsdxID=320;fillColor=none;gradientColor=none;shape=stencil(nZBRDoQgDERP03+WHsHFe5iISyOCQdT19kIaIxq//Jtp3zTpAFaTaUYNUkwx+F6v1EYD+AUpyRkdKCYFqACrzgf9C352LfuxyWRWg1/yhT/nRE5IsZWuZtCSK8CPeI0e/hF+jV7AJM4PO7KWCyr390bSiNtEtQM=);strokeColor=none;spacingTop=-3;spacingBottom=-3;spacingLeft=-3;spacingRight=-3;points=[];labelBackgroundColor=none;rounded=0;html=1;whiteSpace=wrap;" vertex="1" parent="1">
          <mxGeometry x="1739" y="318.33333333333337" width="100" height="28.26086956521739" as="geometry" />
        </mxCell>
        <mxCell id="rU0Wcz3SSFCa0gwKP19f-9" value="&lt;div style=&quot;font-size: 1px&quot;&gt;&lt;font style=&quot;font-size:11.64px;font-family:Helvetica;color:#000000;direction:ltr;letter-spacing:0px;line-height:120%;opacity:1&quot;&gt;&lt;b&gt;GLUE&lt;/b&gt;&lt;/font&gt;&lt;/div&gt;" style="verticalAlign=middle;align=center;overflow=width;vsdxID=321;fillColor=none;gradientColor=none;shape=stencil(nZBRDoQgDERP03+WHsHFe5iISyOCQdT19kIaIxq//Jtp3zTpAFaTaUYNUkwx+F6v1EYD+AUpyRkdKCYFqACrzgf9C352LfuxyWRWg1/yhT/nRE5IsZWuZtCSK8CPeI0e/hF+jV7AJM4PO7KWCyr390bSiNtEtQM=);strokeColor=none;spacingTop=-3;spacingBottom=-3;spacingLeft=-3;spacingRight=-3;points=[];labelBackgroundColor=none;rounded=0;html=1;whiteSpace=wrap;" vertex="1" parent="1">
          <mxGeometry x="1542" y="384.27536231884056" width="60" height="28.26086956521739" as="geometry" />
        </mxCell>
        <mxCell id="rU0Wcz3SSFCa0gwKP19f-10" style="vsdxID=324;fillColor=#DD344C;gradientColor=none;shape=stencil(nVrbkhsnEP0avVJAA8M8O85/uOJ1VpXNrkteJ87fhynNQHMaGLFvEuoeTt9ON2gu9OnH85fvTxerf7zf3v56+vf69f35Qr9drL2+Pj/dru/p04U+X+jTt7fb05+3t5+vX+/fv3/ZJLdPf7/9sz3h111PbxpW/8e//X4XfLm+MkGjPyx6fG8Kf1i0EkwfioXfri8v+Zee4S4qS9UDvVORP/OPn7e7gpEa+5L3arnr6F92l1qVtrvUvuSD8ssuRfvSYQuhSGdzr9UaYXP22GMno5YFNmcQSUrRY7ZzlWOJVLSwPQNps5SmE9uzSM/xzKVGPtbK8FgJkaRUx3bIE6/osPzBPGEaB1yrrAe4i3Ie4GplzvIki/QCZZX3sDl7rM0mBPQVg0hS6tE8YSolTSPYnuJiMU+irBGjHG6/KlPtXxME17ivBKti6Cu4sutHFQQkkQ5BLZi9UVQuTxorHUdS6qHsLeYceFPeGdc3kPLPH1YIiXFMX0FCmlfIcW6ngYzqrEJZeRDSvIJTdp2CNK0wNroBaVZBpAZQpyhHN2vDtAIhJMFQTGVfIlLOCIJ0a12OpJGalTZ1LdJgePH19FKLCs5YcuPKIHWNMFFBMIhQtjtSqweQmeh7m1tFXngoQK/nwT3298WPJKWoEyFg2POkAYoTCic7SIWTLAv5564C+jBRmoZxrehkHxbiyz5MUivMS1yq9IEhYzKNfeWsLLiKyTorCcAaGneQjZv7i1Cq3UQkYFRAwJQcBSUSZFslBsVKs0hKUcdhAFimBIakATirGBlsK82yMnFI+oseymGapVapcEqt1KBWJ0Oy5rEmEweyli1plqn1WOqxVjIn1JvbNOsDrzs2rexLtiz1pm47TgbeCToKogsFpSEZNh2Yk0ODY43g+PAAx9aUabWqCXAxyvfts7a0mn3L9UDRsc9EBZmQSMFBCzHpAAvBSN1ZQ64nKQvJcDKowEXBnLQbMxVH01EQvgiiLFKTWyHWm8dkPw1wAOChKJVhB2ciEetUFWFIVAmvhkpKZeygjA3J3mXy4JCDRyI3zxw8F46pUG9o7FhBOCNNPlCoKUcDNPLNZRC8UOazHLwSCmrXHUw2a7l02eUX5cZt3CmCuSOmqLga7lZlcNiMlAfewfk7SS2DaMjzdxxMxPIsPSmNYERLMLm9ZmeQgrojOUdzj7Eiw9hhLKDuYrmI2RVSOIeD91ZliNfl1sIGb4Jci0EUHncXZakwKA7p4HV0nBGhnpMWYBrntACsyc0sVeYxk5nLSpk5VztDBAMm6PPSq2uVJ0ih6vEEyzKPtU28GGJJXNgGqaUR7iRFo3OWCPfoSl8GcE5agGmEW0O4uZlHuBm9WekyksGjTjBqwDxBClcPi5VnXgGM1wgsiVnfDKdEu3WqqYtOM0Wdk9IIpkG0BMTFzSxHG5xmmceOQDHapE4o4KByXnl1qcYgjkJnI1xkUx+zGcgoNZcV5lk+ODHmAQNxIoPkXErSd0Y+gdcoiycxNkyyng8B4YMp6/l41hwPZXFqhItTI9yGZnKE28zEv0TYMaM0fXFTwI4sJGNR2KY+C0H0SrjbM18D7grjN58lWcuHsYXPpaXlY1s48e86FY11LtLnhVdX6lIuZtnhZfD3TOr9cFI1qW2PFKzy9T2O8cOxLkWPagWb2tRI4dwGOJwHhFS6U/tU4xFSsmoEafNJDWnz28BLhaAyJBq69QEbYHwiFesdyKhlcD1lxJ2E0ceenZOiiLQd0m4BkCFlkG2FcxvEawr39zhOX1ZYNN46hHhcd7XzehUhXo4saSssIonyI9oTciz3bQiyXQjnNvTf4kgf8I2WtHR/G4Y+/w8=);strokeColor=#ffffff;spacingTop=-3;spacingBottom=-3;spacingLeft=-3;spacingRight=-3;points=[];labelBackgroundColor=none;rounded=0;html=1;whiteSpace=wrap;" vertex="1" parent="1">
          <mxGeometry x="1704" y="142.64492753623188" width="78" height="73.47826086956523" as="geometry" />
        </mxCell>
        <mxCell id="rU0Wcz3SSFCa0gwKP19f-11" style="vsdxID=326;fillColor=#759C3E;gradientColor=none;shape=stencil(zVbbboMwDP0aXq0kJrfnrvuPSqUDjUFF6S5/P1A01pBiyATV3hI4B+z4+MQJ7i754Zwlgl3apn7NPopjmyf4lAhRVHnWFG23SnCf4O5UN9lLU1+ro9ufDz2yX73V7/0XPh1Psp4i2Jfbcub2zw5bFtUN1odqDZYvBSsDZhrLGTDh4zVI4uMhgVsQliAYSLlPUCCn8QIB0cdrSIkfhAQJgsgA5TgD4uB1Ctb40SAYIvyQIBE0QTASrA0IOoagFFiC8KOsW0WI5fBebdNoWsXd4lf+p6IshzdTXRHKRTPAKEF2+THyODZW8IIU/JxDRXYqMkTOoeQ1B03UdNMeWRA+6XzakA2CQ3UGggSjYghSksc5ikcqyjHngg8k7y6MWeH/i+tgFIRJISU6ae3ej7bCqMJFy2ILK/+rOiI9PK6ODx4Y5vw59gYIzU1ZUGvaZ7RB3/GsdEWHizPQOwODBf7QCWPaC7rFeGDuHrlhG/ff);strokeColor=#000000;spacingTop=-3;spacingBottom=-3;spacingLeft=-3;spacingRight=-3;points=[];labelBackgroundColor=none;rounded=0;html=1;whiteSpace=wrap;" vertex="1" parent="1">
          <mxGeometry x="1410" y="515.2173913043478" width="65" height="65" as="geometry" />
        </mxCell>
        <mxCell id="rU0Wcz3SSFCa0gwKP19f-13" style="vsdxID=328;fillColor=#D9A741;gradientColor=none;shape=stencil(1VVJbsMwDHyNrgQpaj2n6T8CxKmFunbguNvvK1dIWtmwUqNAlxslzRDDVYI3p3p3rITE09B399Vz2A+14BshZWjrqg9DtARvBW8OXV/d9d1ju0/n425EjtZD9zR6eEk8jYBmZEl8TTeE+H6+TfAmtJ/grIFkBvcM2qwhWAveLRMkg8kFOQRllwmYgZUDKoDn3skAyjX6yYFehZdAapmgNCjK4wXNBTyD8hleF9OjHaDL8IXyegPOTtNjC2o8AedqohymZcK5uy5wBVRonyncxuQUvF/t5mh8TMIhNM3lZWlA/lg/fkHOLMa0LK5G+vOr4D+NhiPQ+WgoPJfiV0ZjLkhr8IXVNK+vAV9I5zeGKRrTDyhepc+Lt28=);strokeColor=#000000;spacingTop=-3;spacingBottom=-3;spacingLeft=-3;spacingRight=-3;points=[];labelBackgroundColor=none;rounded=0;html=1;whiteSpace=wrap;" vertex="1" parent="1">
          <mxGeometry x="1693" y="513.3333333333333" width="57" height="49.92753623188406" as="geometry" />
        </mxCell>
        <mxCell id="rU0Wcz3SSFCa0gwKP19f-14" value="&lt;div style=&quot;font-size: 1px&quot;&gt;&lt;font style=&quot;font-size:13.58px;font-family:Helvetica;color:#000000;direction:ltr;letter-spacing:0px;line-height:120%;opacity:1&quot;&gt;MONITORING AND ALERTING&lt;/font&gt;&lt;/div&gt;" style="verticalAlign=middle;align=center;overflow=width;vsdxID=329;fillColor=none;gradientColor=none;shape=stencil(nZBRDoQgDERP03+WHsHFe5iISyOCQdT19kIaIxq//Jtp3zTpAFaTaUYNUkwx+F6v1EYD+AUpyRkdKCYFqACrzgf9C352LfuxyWRWg1/yhT/nRE5IsZWuZtCSK8CPeI0e/hF+jV7AJM4PO7KWCyr390bSiNtEtQM=);strokeColor=none;spacingTop=-3;spacingBottom=-3;spacingLeft=-3;spacingRight=-3;points=[];labelBackgroundColor=none;rounded=0;html=1;whiteSpace=wrap;" vertex="1" parent="1">
          <mxGeometry x="1466" y="456.81159420289856" width="210" height="28.26086956521739" as="geometry" />
        </mxCell>
        <mxCell id="rU0Wcz3SSFCa0gwKP19f-15" value="&lt;div style=&quot;font-size: 1px&quot;&gt;&lt;font style=&quot;font-size:11.64px;font-family:Helvetica;color:#000000;direction:ltr;letter-spacing:0px;line-height:120%;opacity:1&quot;&gt;&lt;b&gt;CLOUD WATCH&lt;/b&gt;&lt;/font&gt;&lt;/div&gt;" style="verticalAlign=middle;align=center;overflow=width;vsdxID=331;fillColor=none;gradientColor=none;shape=stencil(nZBRDoQgDERP03+WHsHFe5iISyOCQdT19kIaIxq//Jtp3zTpAFaTaUYNUkwx+F6v1EYD+AUpyRkdKCYFqACrzgf9C352LfuxyWRWg1/yhT/nRE5IsZWuZtCSK8CPeI0e/hF+jV7AJM4PO7KWCyr390bSiNtEtQM=);strokeColor=none;spacingTop=-3;spacingBottom=-3;spacingLeft=-3;spacingRight=-3;points=[];labelBackgroundColor=none;rounded=0;html=1;whiteSpace=wrap;" vertex="1" parent="1">
          <mxGeometry x="1387" y="580.2173913043478" width="110" height="28.26086956521739" as="geometry" />
        </mxCell>
        <mxCell id="rU0Wcz3SSFCa0gwKP19f-17" value="&lt;div style=&quot;font-size: 1px&quot;&gt;&lt;font style=&quot;font-size:11.64px;font-family:Helvetica;color:#000000;direction:ltr;letter-spacing:0px;line-height:120%;opacity:1&quot;&gt;&lt;b&gt;SES&lt;/b&gt;&lt;/font&gt;&lt;/div&gt;" style="verticalAlign=middle;align=center;overflow=width;vsdxID=333;fillColor=none;gradientColor=none;shape=stencil(nZBRDoQgDERP03+WHsHFe5iISyOCQdT19kIaIxq//Jtp3zTpAFaTaUYNUkwx+F6v1EYD+AUpyRkdKCYFqACrzgf9C352LfuxyWRWg1/yhT/nRE5IsZWuZtCSK8CPeI0e/hF+jV7AJM4PO7KWCyr390bSiNtEtQM=);strokeColor=none;spacingTop=-3;spacingBottom=-3;spacingLeft=-3;spacingRight=-3;points=[];labelBackgroundColor=none;rounded=0;html=1;whiteSpace=wrap;" vertex="1" parent="1">
          <mxGeometry x="1693" y="571.7391304347827" width="50" height="28.26086956521739" as="geometry" />
        </mxCell>
        <mxCell id="rU0Wcz3SSFCa0gwKP19f-18" value="&lt;div style=&quot;font-size: 1px&quot;&gt;&lt;font style=&quot;font-size:11.64px;font-family:Helvetica;color:#000000;direction:ltr;letter-spacing:0px;line-height:120%;opacity:1&quot;&gt;&lt;b&gt;SECRETS MANAGER&lt;/b&gt;&lt;/font&gt;&lt;/div&gt;" style="verticalAlign=middle;align=center;overflow=width;vsdxID=334;fillColor=none;gradientColor=none;shape=stencil(nZBRDoQgDERP03+WHsHFe5iISyOCQdT19kIaIxq//Jtp3zTpAFaTaUYNUkwx+F6v1EYD+AUpyRkdKCYFqACrzgf9C352LfuxyWRWg1/yhT/nRE5IsZWuZtCSK8CPeI0e/hF+jV7AJM4PO7KWCyr390bSiNtEtQM=);strokeColor=none;spacingTop=-3;spacingBottom=-3;spacingLeft=-3;spacingRight=-3;points=[];labelBackgroundColor=none;rounded=0;html=1;whiteSpace=wrap;" vertex="1" parent="1">
          <mxGeometry x="1676" y="216.12318840579712" width="140" height="28.26086956521739" as="geometry" />
        </mxCell>
        <mxCell id="rU0Wcz3SSFCa0gwKP19f-19" value="&lt;div style=&quot;font-size: 1px&quot;&gt;&lt;p style=&quot;text-align:left;margin-left:0;margin-right:0;margin-top:0px;margin-bottom:0px;text-indent:0;vertical-align:middle;direction:ltr;&quot;&gt;&lt;/p&gt;&lt;ul style=&quot;margin: 0;list-style-type: disc&quot;&gt;&lt;font style=&quot;font-size:13.58px;font-family:Helvetica;color:#000000;direction:ltr;letter-spacing:0px;line-height:120%;opacity:1&quot;&gt;&lt;/font&gt;&lt;li&gt;&lt;font style=&quot;font-size:13.58px;font-family:Helvetica;color:#000000;direction:ltr;letter-spacing:0px;line-height:120%;opacity:1&quot;&gt;Source Config&lt;/font&gt;&lt;font style=&quot;font-size:11.64px;font-family:Helvetica;color:#000000;direction:ltr;letter-spacing:0px;line-height:120%;opacity:1&quot;&gt;&lt;/font&gt;&lt;/li&gt;&lt;li&gt;&lt;font style=&quot;font-size:13.58px;font-family:Helvetica;color:#000000;direction:ltr;letter-spacing:0px;line-height:120%;opacity:1&quot;&gt;Secret Name&lt;/font&gt;&lt;/li&gt;&lt;li&gt;&lt;font style=&quot;font-size:13.58px;font-family:Helvetica;color:#000000;direction:ltr;letter-spacing:0px;line-height:120%;opacity:1&quot;&gt;Target Config&lt;/font&gt;&lt;/li&gt;&lt;/ul&gt;&lt;p&gt;&lt;/p&gt;&lt;p style=&quot;text-align:center;margin-left:0;margin-right:0;margin-top:0px;margin-bottom:0px;text-indent:0;vertical-align:middle;direction:ltr;&quot;&gt;&lt;font style=&quot;font-size:11.64px;font-family:Helvetica;color:#000000;direction:ltr;letter-spacing:0px;line-height:100%;opacity:1&quot;&gt;&lt;br&gt;&lt;/font&gt;&lt;/p&gt;&lt;/div&gt;" style="verticalAlign=middle;align=left;overflow=width;vsdxID=337;fillColor=none;gradientColor=none;shape=stencil(nZBRDoQgDERP03+WHsHFe5iISyOCQdT19kIaIxq//Jtp3zTpAFaTaUYNUkwx+F6v1EYD+AUpyRkdKCYFqACrzgf9C352LfuxyWRWg1/yhT/nRE5IsZWuZtCSK8CPeI0e/hF+jV7AJM4PO7KWCyr390bSiNtEtQM=);strokeColor=none;spacingTop=-3;spacingBottom=-3;spacingLeft=-3;spacingRight=-3;points=[];labelBackgroundColor=none;rounded=0;html=1;whiteSpace=wrap;" vertex="1" parent="1">
          <mxGeometry x="1344" y="141.23188405797103" width="150" height="81.95652173913044" as="geometry" />
        </mxCell>
        <mxCell id="rU0Wcz3SSFCa0gwKP19f-20" value="&lt;div style=&quot;font-size: 1px&quot;&gt;&lt;p style=&quot;text-align:left;margin-left:0;margin-right:0;margin-top:0px;margin-bottom:0px;text-indent:0;vertical-align:middle;direction:ltr;&quot;&gt;&lt;ul style=&quot;margin: 0;list-style-type: disc&quot;&gt;&lt;font style=&quot;font-size:13.58px;font-family:Helvetica;color:#000000;direction:ltr;letter-spacing:0px;line-height:120%;opacity:1&quot;&gt;&lt;li&gt;Maintain Secrets for sources&lt;/font&gt;&lt;font style=&quot;font-size:11.64px;font-family:Helvetica;color:#000000;direction:ltr;letter-spacing:0px;line-height:120%;opacity:1&quot;&gt;&lt;/font&gt;&lt;/li&gt;&lt;/ul&gt;&lt;/p&gt;&lt;p style=&quot;text-align:center;margin-left:0;margin-right:0;margin-top:0px;margin-bottom:0px;text-indent:0;vertical-align:middle;direction:ltr;&quot;&gt;&lt;font style=&quot;font-size:11.64px;font-family:Helvetica;color:#000000;direction:ltr;letter-spacing:0px;line-height:100%;opacity:1&quot;&gt;&lt;br/&gt;&lt;/font&gt;&lt;/p&gt;&lt;/div&gt;" style="verticalAlign=middle;align=left;overflow=width;vsdxID=341;fillColor=none;gradientColor=none;shape=stencil(nZBRDoQgDERP03+WHsHFe5iISyOCQdT19kIaIxq//Jtp3zTpAFaTaUYNUkwx+F6v1EYD+AUpyRkdKCYFqACrzgf9C352LfuxyWRWg1/yhT/nRE5IsZWuZtCSK8CPeI0e/hF+jV7AJM4PO7KWCyr390bSiNtEtQM=);strokeColor=none;spacingTop=-3;spacingBottom=-3;spacingLeft=-3;spacingRight=-3;points=[];labelBackgroundColor=none;rounded=0;html=1;whiteSpace=wrap;" vertex="1" parent="1">
          <mxGeometry x="1749" y="149.71014492753625" width="151" height="47.10144927536232" as="geometry" />
        </mxCell>
        <mxCell id="rU0Wcz3SSFCa0gwKP19f-21" value="&lt;div style=&quot;font-size: 1px&quot;&gt;&lt;p style=&quot;text-align:left;margin-left:0;margin-right:0;margin-top:0px;margin-bottom:0px;text-indent:0;vertical-align:middle;direction:ltr;&quot;&gt;&lt;ul style=&quot;margin: 0;list-style-type: disc&quot;&gt;&lt;font style=&quot;font-size:13.58px;font-family:Helvetica;color:#000000;direction:ltr;letter-spacing:0px;line-height:120%;opacity:1&quot;&gt;&lt;li&gt;Contains Script to excecute glue job&lt;/font&gt;&lt;font style=&quot;font-size:11.64px;font-family:Helvetica;color:#000000;direction:ltr;letter-spacing:0px;line-height:120%;opacity:1&quot;&gt;&lt;/font&gt;&lt;/li&gt;&lt;/ul&gt;&lt;/p&gt;&lt;p style=&quot;text-align:center;margin-left:0;margin-right:0;margin-top:0px;margin-bottom:0px;text-indent:0;vertical-align:middle;direction:ltr;&quot;&gt;&lt;font style=&quot;font-size:11.64px;font-family:Helvetica;color:#000000;direction:ltr;letter-spacing:0px;line-height:100%;opacity:1&quot;&gt;&lt;br/&gt;&lt;/font&gt;&lt;/p&gt;&lt;/div&gt;" style="verticalAlign=middle;align=left;overflow=width;vsdxID=342;fillColor=none;gradientColor=none;shape=stencil(nZBRDoQgDERP03+WHsHFe5iISyOCQdT19kIaIxq//Jtp3zTpAFaTaUYNUkwx+F6v1EYD+AUpyRkdKCYFqACrzgf9C352LfuxyWRWg1/yhT/nRE5IsZWuZtCSK8CPeI0e/hF+jV7AJM4PO7KWCyr390bSiNtEtQM=);strokeColor=none;spacingTop=-3;spacingBottom=-3;spacingLeft=-3;spacingRight=-3;points=[];labelBackgroundColor=none;rounded=0;html=1;whiteSpace=wrap;" vertex="1" parent="1">
          <mxGeometry x="1663" y="337.17391304347825" width="290" height="47.10144927536232" as="geometry" />
        </mxCell>
        <mxCell id="rU0Wcz3SSFCa0gwKP19f-22" value="&lt;div style=&quot;font-size: 1px&quot;&gt;&lt;p style=&quot;text-align:left;margin-left:0;margin-right:0;margin-top:0px;margin-bottom:0px;text-indent:0;vertical-align:middle;direction:ltr;&quot;&gt;&lt;ul style=&quot;margin: 0;list-style-type: disc&quot;&gt;&lt;font style=&quot;font-size:13.58px;font-family:Helvetica;color:#000000;direction:ltr;letter-spacing:0px;line-height:120%;opacity:1&quot;&gt;&lt;li&gt;Logs generated by glue job&lt;/font&gt;&lt;font style=&quot;font-size:11.64px;font-family:Helvetica;color:#000000;direction:ltr;letter-spacing:0px;line-height:120%;opacity:1&quot;&gt;&lt;/font&gt;&lt;/li&gt;&lt;/ul&gt;&lt;/p&gt;&lt;p style=&quot;text-align:center;margin-left:0;margin-right:0;margin-top:0px;margin-bottom:0px;text-indent:0;vertical-align:middle;direction:ltr;&quot;&gt;&lt;font style=&quot;font-size:11.64px;font-family:Helvetica;color:#000000;direction:ltr;letter-spacing:0px;line-height:100%;opacity:1&quot;&gt;&lt;br/&gt;&lt;/font&gt;&lt;/p&gt;&lt;/div&gt;" style="verticalAlign=middle;align=left;overflow=width;vsdxID=343;fillColor=none;gradientColor=none;shape=stencil(nZBRDoQgDERP03+WHsHFe5iISyOCQdT19kIaIxq//Jtp3zTpAFaTaUYNUkwx+F6v1EYD+AUpyRkdKCYFqACrzgf9C352LfuxyWRWg1/yhT/nRE5IsZWuZtCSK8CPeI0e/hF+jV7AJM4PO7KWCyr390bSiNtEtQM=);strokeColor=none;spacingTop=-3;spacingBottom=-3;spacingLeft=-3;spacingRight=-3;points=[];labelBackgroundColor=none;rounded=0;html=1;whiteSpace=wrap;" vertex="1" parent="1">
          <mxGeometry x="1327" y="600" width="230" height="26.376811594202902" as="geometry" />
        </mxCell>
        <UserObject label="" tags="Background" id="rU0Wcz3SSFCa0gwKP19f-23">
          <mxCell style="vsdxID=322;edgeStyle=none;startArrow=none;endArrow=classic;startSize=5;endSize=5;strokeColor=#000000;spacingTop=0;spacingBottom=0;spacingLeft=0;spacingRight=0;verticalAlign=middle;html=1;labelBackgroundColor=#ffffff;rounded=0;exitX=0;exitY=0.5;exitDx=0;exitDy=0;exitPerimeter=0;entryX=1;entryY=0.5;entryDx=0;entryDy=0;entryPerimeter=0;" edge="1" parent="1" source="rU0Wcz3SSFCa0gwKP19f-7" target="rU0Wcz3SSFCa0gwKP19f-6">
            <mxGeometry relative="1" as="geometry">
              <mxPoint x="62" y="124" as="offset" />
              <Array as="points">
                <mxPoint x="1693" y="284.4202898550725" />
                <mxPoint x="1693" y="347.536231884058" />
              </Array>
            </mxGeometry>
          </mxCell>
        </UserObject>
        <mxCell id="rU0Wcz3SSFCa0gwKP19f-24" vertex="1" parent="1">
          <mxGeometry x="1419" y="223.18840579710147" as="geometry" />
        </mxCell>
        <UserObject label="" tags="Background" id="rU0Wcz3SSFCa0gwKP19f-25">
          <mxCell style="vsdxID=323;edgeStyle=none;startArrow=none;endArrow=classic;startSize=5;endSize=5;strokeColor=#000000;spacingTop=0;spacingBottom=0;spacingLeft=0;spacingRight=0;verticalAlign=middle;html=1;labelBackgroundColor=#ffffff;rounded=0;entryX=0;entryY=0.5;entryDx=0;entryDy=0;entryPerimeter=0;" edge="1" parent="1" target="rU0Wcz3SSFCa0gwKP19f-6">
            <mxGeometry relative="1" as="geometry">
              <mxPoint y="110" as="offset" />
              <Array as="points">
                <mxPoint x="1343" y="288.1884057971015" />
                <mxPoint x="1343" y="347.536231884058" />
                <mxPoint x="1419" y="347.536231884058" />
              </Array>
              <mxPoint x="1343" y="228.8405797101449" as="sourcePoint" />
            </mxGeometry>
          </mxCell>
        </UserObject>
        <UserObject label="" tags="Background" id="rU0Wcz3SSFCa0gwKP19f-26">
          <mxCell style="vsdxID=325;edgeStyle=none;startArrow=none;endArrow=classic;startSize=5;endSize=5;strokeColor=#000000;spacingTop=0;spacingBottom=0;spacingLeft=0;spacingRight=0;verticalAlign=middle;html=1;labelBackgroundColor=#ffffff;rounded=0;exitX=0.5;exitY=1;exitDx=0;exitDy=0;exitPerimeter=0;" edge="1" parent="1" source="rU0Wcz3SSFCa0gwKP19f-10">
            <mxGeometry relative="1" as="geometry">
              <mxPoint x="73" y="155" as="offset" />
              <Array as="points">
                <mxPoint x="1743" y="259.9275362318841" />
                <mxPoint x="1593" y="259.9275362318841" />
                <mxPoint x="1593" y="288.1884057971015" />
              </Array>
              <mxPoint x="1593" y="316.4492753623189" as="targetPoint" />
            </mxGeometry>
          </mxCell>
        </UserObject>
        <UserObject label="" tags="Background" id="rU0Wcz3SSFCa0gwKP19f-27">
          <mxCell style="vsdxID=330;edgeStyle=none;startArrow=none;endArrow=classic;startSize=5;endSize=5;strokeColor=#000000;spacingTop=0;spacingBottom=0;spacingLeft=0;spacingRight=0;verticalAlign=middle;html=1;labelBackgroundColor=#ffffff;rounded=0;exitX=0.5;exitY=1;exitDx=0;exitDy=0;exitPerimeter=0;entryX=0.5009310986964618;entryY=0;entryDx=0;entryDy=0;entryPerimeter=0;" edge="1" parent="1" source="rU0Wcz3SSFCa0gwKP19f-6" target="rU0Wcz3SSFCa0gwKP19f-4">
            <mxGeometry relative="1" as="geometry">
              <mxPoint y="135" as="offset" />
              <Array as="points" />
            </mxGeometry>
          </mxCell>
        </UserObject>
        <mxCell id="rU0Wcz3SSFCa0gwKP19f-28" value="&lt;div style=&quot;font-size: 1px&quot;&gt;&lt;font style=&quot;font-size:11.64px;font-family:Helvetica;color:#000000;direction:ltr;letter-spacing:0px;line-height:120%;opacity:1&quot;&gt;&lt;b&gt;CONFIG FILE&lt;/b&gt;&lt;/font&gt;&lt;/div&gt;" style="verticalAlign=middle;align=center;overflow=width;vsdxID=377;fillColor=none;gradientColor=none;shape=stencil(nZBRDoQgDERP03+WHsHFe5iISyOCQdT19kIaIxq//Jtp3zTpAFaTaUYNUkwx+F6v1EYD+AUpyRkdKCYFqACrzgf9C352LfuxyWRWg1/yhT/nRE5IsZWuZtCSK8CPeI0e/hF+jV7AJM4PO7KWCyr390bSiNtEtQM=);strokeColor=none;spacingTop=-3;spacingBottom=-3;spacingLeft=-3;spacingRight=-3;points=[];labelBackgroundColor=none;rounded=0;html=1;whiteSpace=wrap;" vertex="1" parent="1">
          <mxGeometry x="1291" y="205.52536231884056" width="110" height="28.26086956521739" as="geometry" />
        </mxCell>
        <mxCell id="rU0Wcz3SSFCa0gwKP19f-29" value="" style="verticalLabelPosition=bottom;html=1;verticalAlign=top;align=center;strokeColor=none;fillColor=#00BEF2;shape=mxgraph.azure.cloud_services_configuration_file;pointerEvents=1;" vertex="1" parent="1">
          <mxGeometry x="1324.5" y="143.3514492753623" width="43" height="52.753623188405804" as="geometry" />
        </mxCell>
        <mxCell id="rU0Wcz3SSFCa0gwKP19f-30" value="" style="outlineConnect=0;dashed=0;verticalLabelPosition=bottom;verticalAlign=top;align=center;html=1;shape=mxgraph.aws3.glue;fillColor=#F58534;gradientColor=none;" vertex="1" parent="1">
          <mxGeometry x="1547.37" y="143.3514492753623" width="52.63" height="59.11231884057971" as="geometry" />
        </mxCell>
        <mxCell id="rU0Wcz3SSFCa0gwKP19f-31" value="" style="edgeStyle=orthogonalEdgeStyle;rounded=0;orthogonalLoop=1;jettySize=auto;html=1;" edge="1" parent="1" source="rU0Wcz3SSFCa0gwKP19f-32" target="rU0Wcz3SSFCa0gwKP19f-6">
          <mxGeometry relative="1" as="geometry">
            <Array as="points">
              <mxPoint x="1553" y="271.231884057971" />
              <mxPoint x="1563" y="271.231884057971" />
            </Array>
          </mxGeometry>
        </mxCell>
        <mxCell id="rU0Wcz3SSFCa0gwKP19f-32" value="&lt;div style=&quot;font-size: 1px&quot;&gt;&lt;font style=&quot;font-size:11.64px;font-family:Helvetica;color:#000000;direction:ltr;letter-spacing:0px;line-height:120%;opacity:1&quot;&gt;&lt;b&gt;GLUE CONNECTIONS&lt;/b&gt;&lt;/font&gt;&lt;/div&gt;" style="verticalAlign=middle;align=center;overflow=width;vsdxID=377;fillColor=none;gradientColor=none;shape=stencil(nZBRDoQgDERP03+WHsHFe5iISyOCQdT19kIaIxq//Jtp3zTpAFaTaUYNUkwx+F6v1EYD+AUpyRkdKCYFqACrzgf9C352LfuxyWRWg1/yhT/nRE5IsZWuZtCSK8CPeI0e/hF+jV7AJM4PO7KWCyr390bSiNtEtQM=);strokeColor=none;spacingTop=-3;spacingBottom=-3;spacingLeft=-3;spacingRight=-3;points=[];labelBackgroundColor=none;rounded=0;html=1;whiteSpace=wrap;" vertex="1" parent="1">
          <mxGeometry x="1516.5" y="202.46376811594206" width="130" height="28.26086956521739" as="geometry" />
        </mxCell>
        <mxCell id="MaxW_q_MV4fKr5k28dgy-7" value="&lt;div style=&quot;&quot;&gt;&lt;p style=&quot;font-size: 1px; text-align: left; margin: 0px; text-indent: 0px; vertical-align: middle; direction: ltr;&quot;&gt;&lt;/p&gt;&lt;ul style=&quot;font-size: 1px; margin: 0px; list-style-type: disc;&quot;&gt;&lt;span style=&quot;font-size: 13.58px;&quot;&gt;&lt;font style=&quot;font-family: Helvetica; color: rgb(0, 0, 0); direction: ltr; letter-spacing: 0px; line-height: 120%; opacity: 1;&quot;&gt;&lt;/font&gt;&lt;/span&gt;&lt;/ul&gt;&lt;p style=&quot;text-align: center; margin: 0px; text-indent: 0px; vertical-align: middle; direction: ltr;&quot;&gt;&lt;span style=&quot;font-size: 13.58px;&quot;&gt;Sending Email Alerts&lt;/span&gt;&lt;/p&gt;&lt;/div&gt;" style="verticalAlign=middle;align=left;overflow=width;vsdxID=343;fillColor=none;gradientColor=none;shape=stencil(nZBRDoQgDERP03+WHsHFe5iISyOCQdT19kIaIxq//Jtp3zTpAFaTaUYNUkwx+F6v1EYD+AUpyRkdKCYFqACrzgf9C352LfuxyWRWg1/yhT/nRE5IsZWuZtCSK8CPeI0e/hF+jV7AJM4PO7KWCyr390bSiNtEtQM=);strokeColor=none;spacingTop=-3;spacingBottom=-3;spacingLeft=-3;spacingRight=-3;points=[];labelBackgroundColor=none;rounded=0;html=1;whiteSpace=wrap;" vertex="1" parent="1">
          <mxGeometry x="1606.5" y="588.695652173913" width="230" height="26.376811594202902" as="geometry" />
        </mxCell>
      </root>
    </mxGraphModel>
  </diagram>
  <diagram id="o-DYHpWt1xEEsnpTukwn" name="Page-3">
    <mxGraphModel dx="2876" dy="1103" grid="1" gridSize="10" guides="1" tooltips="1" connect="1" arrows="1" fold="1" page="1" pageScale="1" pageWidth="827" pageHeight="1169" math="0" shadow="0">
      <root>
        <mxCell id="0" />
        <mxCell id="1" parent="0" />
        <UserObject label="" tags="Background" id="KjuzfbItVxYMDOMurPIg-1">
          <mxCell style="vsdxID=295;fillColor=none;gradientColor=none;shape=stencil(nZBRDoQgDERP03+WHsHFe5iISyOCQdT19kIaIxq//Jtp3zTpAFaTaUYNUkwx+F6v1EYD+AUpyRkdKCYFqACrzgf9C352LfuxyWRWg1/yhT/nRE5IsZWuZtCSK8CPeI0e/hF+jV7AJM4PO7KWCyr390bSiNtEtQM=);strokeColor=#000000;spacingTop=-3;spacingBottom=-3;spacingLeft=-3;spacingRight=-3;points=[];labelBackgroundColor=none;rounded=0;html=1;whiteSpace=wrap;" vertex="1" parent="1">
            <mxGeometry x="476.38" y="230" width="323.62" height="656.5" as="geometry" />
          </mxCell>
        </UserObject>
        <UserObject label="" tags="Background" id="KjuzfbItVxYMDOMurPIg-2">
          <mxCell style="vsdxID=296;fillColor=#F58534;gradientColor=none;shape=stencil(zVhbbsIwEDxNfle2189v2t4DCShRKSBKX7evoygU22QTF6fKn0NmzD5nHVe4eNsuj+tKsLfz6fCy/qxX522FD5UQ9X67PtVnv6rwscLF5nBaP58O7/tV+3xcNshm9Xr4aHb4anmKNRTBvttHztrnpxa7q/dX2BBqJGg7FqwZSNUPlg6cDghKAuf9hM7O6/1xPLyxXffD6aCEAZyVn5HhRoEyf04R5adCQDF2Z7TgiKAkMcnFCwGacJNbkCYkcGCynyA0CBUTHJGlGwQH3PUTUHUGXAgWBEGQApiNCZYwKSVIsMQfRJUjAKn+MOBEzuYJ3ueEyJiWcYq5AU14a7B7fSE4QEKdUgLtgeWgMIqQIzywGtDk7J/gORjCfoegwoojdDsWEeyqdRR6oNVTS7ykKSJXjsW17wkij6BAEOWZJssXICN8MBq0CwkaJJGuGwQLjAhqWtFDSp60jHIgCB9SgqZLKOp4jUBIYionA7unhMZ+ImmpJA7M0qaMs3Jwg6C7yTBycDR1REQpne6+ULPwdCfoLiAjW22gkf3i91i4qXe7y5u+02KB3vWjkiibWenmFNIWxrOA8PhBRx1N5jcZJxDn6JPmfuksfDyZQv1Dnwvoc8nzYeHREvpaQPi98koiONnH8ymGV6S8946W0h9JEwzH//rgTMZoLr7w2G0vcwaH7zyuavKuGGib8w8g4XajAzAXYOBwlHa/iC/t/E/thR8+/gA=);strokeColor=#000000;spacingTop=-3;spacingBottom=-3;spacingLeft=-3;spacingRight=-3;points=[];labelBackgroundColor=none;rounded=0;html=1;whiteSpace=wrap;" vertex="1" parent="1">
            <mxGeometry x="522" y="370.5" width="56" height="70" as="geometry" />
          </mxCell>
        </UserObject>
        <mxCell id="KjuzfbItVxYMDOMurPIg-3" value="" style="edgeStyle=orthogonalEdgeStyle;rounded=0;orthogonalLoop=1;jettySize=auto;html=1;fontStyle=1" edge="1" parent="1" source="KjuzfbItVxYMDOMurPIg-53" target="KjuzfbItVxYMDOMurPIg-2">
          <mxGeometry relative="1" as="geometry">
            <mxPoint x="611.4705882352941" y="531" as="sourcePoint" />
          </mxGeometry>
        </mxCell>
        <UserObject label="&lt;div style=&quot;&quot;&gt;&lt;span style=&quot;font-size: 17.46px;&quot;&gt;&lt;b&gt;PROCESSED DATA LOCATION&lt;/b&gt;&lt;/span&gt;&lt;/div&gt;" tags="Background" id="KjuzfbItVxYMDOMurPIg-4">
          <mxCell style="verticalAlign=middle;align=center;overflow=width;vsdxID=346;fillColor=none;gradientColor=none;shape=stencil(nZBRDoQgDERP03+WHsHFe5iISyOCQdT19kIaIxq//Jtp3zTpAFaTaUYNUkwx+F6v1EYD+AUpyRkdKCYFqACrzgf9C352LfuxyWRWg1/yhT/nRE5IsZWuZtCSK8CPeI0e/hF+jV7AJM4PO7KWCyr390bSiNtEtQM=);strokeColor=none;spacingTop=-3;spacingBottom=-3;spacingLeft=-3;spacingRight=-3;points=[];labelBackgroundColor=none;rounded=0;html=1;whiteSpace=wrap;" vertex="1" parent="1">
            <mxGeometry x="546.75" y="261" width="172.25" height="40" as="geometry" />
          </mxCell>
        </UserObject>
        <UserObject label="&lt;div style=&quot;font-size: 1px&quot;&gt;&lt;font style=&quot;font-size:11.64px;font-family:Helvetica;color:#000000;direction:ltr;letter-spacing:0px;line-height:120%;opacity:1&quot;&gt;&lt;b&gt;S3 BUCKET FOR PROCESSED DATA&lt;/b&gt;&lt;/font&gt;&lt;/div&gt;&lt;div style=&quot;font-size: 1px&quot;&gt;&lt;font style=&quot;font-size:11.64px;font-family:Helvetica;color:#000000;direction:ltr;letter-spacing:0px;line-height:120%;opacity:1&quot;&gt;&lt;b&gt;(mt-source-data-processed)&lt;/b&gt;&lt;/font&gt;&lt;/div&gt;" tags="Background" id="KjuzfbItVxYMDOMurPIg-5">
          <mxCell style="verticalAlign=middle;align=center;overflow=width;vsdxID=348;fillColor=none;gradientColor=none;shape=stencil(nZBRDoQgDERP03+WHsHFe5iISyOCQdT19kIaIxq//Jtp3zTpAFaTaUYNUkwx+F6v1EYD+AUpyRkdKCYFqACrzgf9C352LfuxyWRWg1/yhT/nRE5IsZWuZtCSK8CPeI0e/hF+jV7AJM4PO7KWCyr390bSiNtEtQM=);strokeColor=none;spacingTop=-3;spacingBottom=-3;spacingLeft=-3;spacingRight=-3;points=[];labelBackgroundColor=none;rounded=0;html=1;whiteSpace=wrap;" vertex="1" parent="1">
            <mxGeometry x="524" y="615" width="210" height="30" as="geometry" />
          </mxCell>
        </UserObject>
        <UserObject label="&lt;div style=&quot;font-size: 1px&quot;&gt;&lt;font style=&quot;font-size:11.64px;font-family:Helvetica;color:#000000;direction:ltr;letter-spacing:0px;line-height:120%;opacity:1&quot;&gt;&lt;b&gt;ATHENA&lt;/b&gt;&lt;/font&gt;&lt;/div&gt;&lt;div style=&quot;font-size: 1px&quot;&gt;&lt;font style=&quot;font-size:11.64px;font-family:Helvetica;color:#000000;direction:ltr;letter-spacing:0px;line-height:120%;opacity:1&quot;&gt;&lt;b&gt;DATABASE&lt;/b&gt;&lt;/font&gt;&lt;/div&gt;" tags="Background" id="KjuzfbItVxYMDOMurPIg-6">
          <mxCell style="verticalAlign=middle;align=center;overflow=width;vsdxID=349;fillColor=none;gradientColor=none;shape=stencil(nZBRDoQgDERP03+WHsHFe5iISyOCQdT19kIaIxq//Jtp3zTpAFaTaUYNUkwx+F6v1EYD+AUpyRkdKCYFqACrzgf9C352LfuxyWRWg1/yhT/nRE5IsZWuZtCSK8CPeI0e/hF+jV7AJM4PO7KWCyr390bSiNtEtQM=);strokeColor=none;spacingTop=-3;spacingBottom=-3;spacingLeft=-3;spacingRight=-3;points=[];labelBackgroundColor=none;rounded=0;html=1;whiteSpace=wrap;" vertex="1" parent="1">
            <mxGeometry x="510.5" y="313.5" width="79" height="57" as="geometry" />
          </mxCell>
        </UserObject>
        <UserObject label="&lt;div style=&quot;font-size: 1px&quot;&gt;&lt;font style=&quot;font-size:23.28px;font-family:Helvetica;color:#000000;direction:ltr;letter-spacing:0px;line-height:120%;opacity:1&quot;&gt;&lt;b&gt;AEP Data Ingestion&amp;nbsp;&lt;/b&gt;&lt;/font&gt;&lt;/div&gt;" tags="Background" id="KjuzfbItVxYMDOMurPIg-7">
          <mxCell style="verticalAlign=middle;align=center;overflow=width;vsdxID=350;fillColor=none;gradientColor=none;shape=stencil(nZBRDoQgDERP03+WHsHFe5iISyOCQdT19kIaIxq//Jtp3zTpAFaTaUYNUkwx+F6v1EYD+AUpyRkdKCYFqACrzgf9C352LfuxyWRWg1/yhT/nRE5IsZWuZtCSK8CPeI0e/hF+jV7AJM4PO7KWCyr390bSiNtEtQM=);strokeColor=none;spacingTop=-3;spacingBottom=-3;spacingLeft=-3;spacingRight=-3;points=[];labelBackgroundColor=none;rounded=0;html=1;whiteSpace=wrap;" vertex="1" parent="1">
            <mxGeometry x="-41" y="190" width="270" height="40" as="geometry" />
          </mxCell>
        </UserObject>
        <UserObject label="&lt;div style=&quot;font-size: 1px&quot;&gt;&lt;p style=&quot;text-align:left;margin-left:0;margin-right:0;margin-top:0px;margin-bottom:0px;text-indent:0;vertical-align:middle;direction:ltr;&quot;&gt;&lt;ul style=&quot;margin: 0;list-style-type: disc&quot;&gt;&lt;font style=&quot;font-size:13.58px;font-family:Helvetica;color:#000000;direction:ltr;letter-spacing:0px;line-height:120%;opacity:1&quot;&gt;&lt;li&gt;Sending Email&lt;/font&gt;&lt;font style=&quot;font-size:11.64px;font-family:Helvetica;color:#000000;direction:ltr;letter-spacing:0px;line-height:120%;opacity:1&quot;&gt;&lt;/font&gt;&lt;/li&gt;&lt;/ul&gt;&lt;/p&gt;&lt;p style=&quot;text-align:center;margin-left:0;margin-right:0;margin-top:0px;margin-bottom:0px;text-indent:0;vertical-align:middle;direction:ltr;&quot;&gt;&lt;font style=&quot;font-size:11.64px;font-family:Helvetica;color:#000000;direction:ltr;letter-spacing:0px;line-height:100%;opacity:1&quot;&gt;&lt;br/&gt;&lt;/font&gt;&lt;/p&gt;&lt;/div&gt;" tags="Background" id="KjuzfbItVxYMDOMurPIg-8">
          <mxCell style="verticalAlign=middle;align=left;overflow=width;vsdxID=352;fillColor=none;gradientColor=none;shape=stencil(nZBRDoQgDERP03+WHsHFe5iISyOCQdT19kIaIxq//Jtp3zTpAFaTaUYNUkwx+F6v1EYD+AUpyRkdKCYFqACrzgf9C352LfuxyWRWg1/yhT/nRE5IsZWuZtCSK8CPeI0e/hF+jV7AJM4PO7KWCyr390bSiNtEtQM=);strokeColor=none;spacingTop=-3;spacingBottom=-3;spacingLeft=-3;spacingRight=-3;points=[];labelBackgroundColor=none;rounded=0;html=1;whiteSpace=wrap;" vertex="1" parent="1">
            <mxGeometry x="276.73" y="785" width="150" height="50" as="geometry" />
          </mxCell>
        </UserObject>
        <UserObject label="&lt;div style=&quot;&quot;&gt;&lt;p style=&quot;font-size: 1px; text-align: left; margin: 0px; text-indent: 0px; vertical-align: middle; direction: ltr;&quot;&gt;&lt;/p&gt;&lt;ul style=&quot;font-size: 1px; margin: 0px; list-style-type: disc;&quot;&gt;&lt;span style=&quot;font-size: 13.58px;&quot;&gt;&lt;font style=&quot;font-family: Helvetica; color: rgb(0, 0, 0); direction: ltr; letter-spacing: 0px; line-height: 120%; opacity: 1;&quot;&gt;&lt;/font&gt;&lt;/span&gt;&lt;/ul&gt;&lt;p style=&quot;text-align: center; margin: 0px; text-indent: 0px; vertical-align: middle; direction: ltr;&quot;&gt;&lt;font style=&quot;font-family: Helvetica; color: rgb(0, 0, 0); direction: ltr; letter-spacing: 0px; line-height: 100%; opacity: 1; font-size: 13.58px;&quot;&gt;Flattened Data&amp;nbsp;&lt;/font&gt;&lt;/p&gt;&lt;/div&gt;" tags="Background" id="KjuzfbItVxYMDOMurPIg-9">
          <mxCell style="verticalAlign=middle;align=left;overflow=width;vsdxID=353;fillColor=none;gradientColor=none;shape=stencil(nZBRDoQgDERP03+WHsHFe5iISyOCQdT19kIaIxq//Jtp3zTpAFaTaUYNUkwx+F6v1EYD+AUpyRkdKCYFqACrzgf9C352LfuxyWRWg1/yhT/nRE5IsZWuZtCSK8CPeI0e/hF+jV7AJM4PO7KWCyr390bSiNtEtQM=);strokeColor=none;spacingTop=-3;spacingBottom=-3;spacingLeft=-3;spacingRight=-3;points=[];labelBackgroundColor=none;rounded=0;html=1;whiteSpace=wrap;fontStyle=1" vertex="1" parent="1">
            <mxGeometry x="460" y="666" width="150" height="50" as="geometry" />
          </mxCell>
        </UserObject>
        <UserObject label="&lt;div style=&quot;font-size: 1px&quot;&gt;&lt;p style=&quot;text-align:left;margin-left:0;margin-right:0;margin-top:0px;margin-bottom:0px;text-indent:0;vertical-align:middle;direction:ltr;&quot;&gt;&lt;/p&gt;&lt;ul style=&quot;margin: 0;list-style-type: disc&quot;&gt;&lt;font style=&quot;font-size:13.58px;font-family:Helvetica;color:#000000;direction:ltr;letter-spacing:0px;line-height:120%;opacity:1&quot;&gt;&lt;/font&gt;&lt;li&gt;&lt;font style=&quot;font-size:13.58px;font-family:Helvetica;color:#000000;direction:ltr;letter-spacing:0px;line-height:120%;opacity:1&quot;&gt;Redshift/Athena Schema Name: &lt;span style=&quot;font-weight: normal;&quot;&gt;cja_events_dev&lt;/span&gt;&lt;/font&gt;&lt;/li&gt;&lt;li&gt;&lt;font style=&quot;font-size:13.58px;font-family:Helvetica;color:#000000;direction:ltr;letter-spacing:0px;line-height:120%;opacity:1&quot;&gt;Redshift Cluster Name: &lt;span style=&quot;font-weight: normal;&quot;&gt;customer-analytics-1&lt;/span&gt;&lt;/font&gt;&lt;/li&gt;&lt;li&gt;&lt;font style=&quot;font-size:13.58px;font-family:Helvetica;color:#000000;direction:ltr;letter-spacing:0px;line-height:120%;opacity:1&quot;&gt;Redshift Database Name: &lt;span style=&quot;font-weight: normal;&quot;&gt;Heap&lt;/span&gt;&lt;/font&gt;&lt;/li&gt;&lt;li&gt;&lt;font style=&quot;font-size:13.58px;font-family:Helvetica;color:#000000;direction:ltr;letter-spacing:0px;line-height:120%;opacity:1&quot;&gt;&lt;span style=&quot;font-weight: normal;&quot;&gt;&lt;br&gt;&lt;/span&gt;&lt;/font&gt;&lt;/li&gt;&lt;/ul&gt;&lt;/div&gt;" tags="Background" id="KjuzfbItVxYMDOMurPIg-10">
          <mxCell style="verticalAlign=middle;align=left;overflow=width;vsdxID=355;fillColor=none;gradientColor=none;shape=stencil(nZBRDoQgDERP03+WHsHFe5iISyOCQdT19kIaIxq//Jtp3zTpAFaTaUYNUkwx+F6v1EYD+AUpyRkdKCYFqACrzgf9C352LfuxyWRWg1/yhT/nRE5IsZWuZtCSK8CPeI0e/hF+jV7AJM4PO7KWCyr390bSiNtEtQM=);strokeColor=none;spacingTop=-3;spacingBottom=-3;spacingLeft=-3;spacingRight=-3;points=[];labelBackgroundColor=none;rounded=0;html=1;whiteSpace=wrap;fontStyle=1" vertex="1" parent="1">
            <mxGeometry x="444" y="701.5" width="360" height="90" as="geometry" />
          </mxCell>
        </UserObject>
        <mxCell id="KjuzfbItVxYMDOMurPIg-11" vertex="1" parent="1">
          <mxGeometry x="23" y="561" as="geometry" />
        </mxCell>
        <UserObject label="" tags="Background" id="KjuzfbItVxYMDOMurPIg-12">
          <mxCell style="vsdxID=344;edgeStyle=none;startArrow=none;endArrow=classic;startSize=5;endSize=5;strokeColor=#000000;spacingTop=0;spacingBottom=0;spacingLeft=0;spacingRight=0;verticalAlign=middle;html=1;labelBackgroundColor=#ffffff;rounded=0;exitX=1;exitY=0.5;exitDx=0;exitDy=0;entryX=0.023;entryY=0.768;entryDx=0;entryDy=0;entryPerimeter=0;" edge="1" parent="1" source="KjuzfbItVxYMDOMurPIg-17" target="KjuzfbItVxYMDOMurPIg-32">
            <mxGeometry relative="1" as="geometry">
              <mxPoint x="-167" y="102" as="offset" />
              <Array as="points" />
              <mxPoint x="-10" y="561" as="sourcePoint" />
            </mxGeometry>
          </mxCell>
        </UserObject>
        <mxCell id="KjuzfbItVxYMDOMurPIg-13" vertex="1" parent="1">
          <mxGeometry x="449" y="557" width="132" as="geometry" />
        </mxCell>
        <UserObject label="" tags="Background" id="KjuzfbItVxYMDOMurPIg-14">
          <mxCell style="vsdxID=345;edgeStyle=none;startArrow=none;endArrow=classic;startSize=5;endSize=5;strokeColor=#000000;spacingTop=0;spacingBottom=0;spacingLeft=0;spacingRight=0;verticalAlign=middle;html=1;labelBackgroundColor=#ffffff;rounded=0;exitX=1;exitY=0.7435897435897436;exitDx=0;exitDy=0;exitPerimeter=0;" edge="1" parent="1" source="KjuzfbItVxYMDOMurPIg-32" target="KjuzfbItVxYMDOMurPIg-53">
            <mxGeometry relative="1" as="geometry">
              <mxPoint x="-217" y="102" as="offset" />
              <Array as="points" />
              <mxPoint x="585.8389999999999" y="555.2900000000002" as="targetPoint" />
            </mxGeometry>
          </mxCell>
        </UserObject>
        <mxCell id="KjuzfbItVxYMDOMurPIg-15" value="" style="edgeStyle=orthogonalEdgeStyle;rounded=0;orthogonalLoop=1;jettySize=auto;html=1;exitX=1.005;exitY=0.424;exitDx=0;exitDy=0;exitPerimeter=0;" edge="1" parent="1" source="KjuzfbItVxYMDOMurPIg-20" target="KjuzfbItVxYMDOMurPIg-17">
          <mxGeometry relative="1" as="geometry">
            <mxPoint x="-545" y="527.1800000000001" as="sourcePoint" />
          </mxGeometry>
        </mxCell>
        <mxCell id="KjuzfbItVxYMDOMurPIg-16" style="edgeStyle=orthogonalEdgeStyle;rounded=0;orthogonalLoop=1;jettySize=auto;html=1;exitX=0;exitY=1;exitDx=0;exitDy=0;" edge="1" parent="1" source="KjuzfbItVxYMDOMurPIg-17">
          <mxGeometry relative="1" as="geometry">
            <mxPoint x="-533" y="612.82" as="targetPoint" />
          </mxGeometry>
        </mxCell>
        <mxCell id="KjuzfbItVxYMDOMurPIg-17" value="" style="whiteSpace=wrap;html=1;" vertex="1" parent="1">
          <mxGeometry x="-540" y="502.82" width="190" height="110" as="geometry" />
        </mxCell>
        <mxCell id="KjuzfbItVxYMDOMurPIg-18" value="" style="sketch=0;outlineConnect=0;fontColor=#232F3E;gradientColor=none;fillColor=#7AA116;strokeColor=none;dashed=0;verticalLabelPosition=bottom;verticalAlign=top;align=center;html=1;fontSize=12;fontStyle=0;aspect=fixed;pointerEvents=1;shape=mxgraph.aws4.simple_storage_service_directory_bucket;" vertex="1" parent="1">
          <mxGeometry x="-492.5" y="515.82" width="75" height="78" as="geometry" />
        </mxCell>
        <mxCell id="KjuzfbItVxYMDOMurPIg-19" style="edgeStyle=orthogonalEdgeStyle;rounded=0;orthogonalLoop=1;jettySize=auto;html=1;exitX=0.5;exitY=1;exitDx=0;exitDy=0;" edge="1" parent="1">
          <mxGeometry relative="1" as="geometry">
            <mxPoint x="-459.25" y="668.82" as="sourcePoint" />
            <mxPoint x="-459.25" y="668.82" as="targetPoint" />
          </mxGeometry>
        </mxCell>
        <mxCell id="KjuzfbItVxYMDOMurPIg-20" style="vsdxID=22810000;fillColor=none;gradientColor=none;strokeColor=none;spacingTop=-3;spacingBottom=-3;spacingLeft=-3;spacingRight=-3;points=[];labelBackgroundColor=none;rounded=0;html=1;whiteSpace=wrap;" vertex="1" parent="1">
          <mxGeometry x="-810" y="405.20000000000005" width="213.75" height="246.98" as="geometry" />
        </mxCell>
        <mxCell id="KjuzfbItVxYMDOMurPIg-21" style="vsdxID=228;fillColor=#ffffff;gradientColor=none;shape=stencil(rZNtEoIgEIZPw39cjmB2gU7ABAWTgaGWdvrQNadgNJrx33488M7su0tYXiteSQK0bpy9yIcWjSJsRwC0UdLpxkeEFYTlJ+vk2dnWCMwr7kmgY0UKfJMNNFDujgf9lFgDikV8dbX3Qa2beDo1e8wx2yNaapOK3louBjQL2ewTph2Effipm666rrmJog/GsaMhuizRtbm/hSfJjnyD75kmzWY2YGE6wWfrm7CuHO1CpB1tw1/qy/4E3vggPCFfwvNjxQs=);strokeColor=#000000;spacingTop=-3;spacingBottom=-3;spacingLeft=-3;spacingRight=-3;points=[];labelBackgroundColor=none;rounded=1;html=1;whiteSpace=wrap;" vertex="1" parent="KjuzfbItVxYMDOMurPIg-20">
          <mxGeometry x="20" width="191.61" height="240.97" as="geometry" />
        </mxCell>
        <mxCell id="KjuzfbItVxYMDOMurPIg-22" value="&lt;div style=&quot;&quot;&gt;&lt;font style=&quot;font-family: Helvetica; color: rgb(0, 0, 0); direction: ltr; letter-spacing: 0px; line-height: 120%; opacity: 1; font-size: 24px;&quot;&gt;&lt;b style=&quot;&quot;&gt;Adobe AEP&lt;/b&gt;&lt;/font&gt;&lt;/div&gt;" style="verticalAlign=middle;align=center;overflow=width;vsdxID=240;fillColor=none;gradientColor=none;shape=stencil(nZBRDoQgDERP03+WHsHFe5iISyOCQdT19kIaIxq//Jtp3zTpAFaTaUYNUkwx+F6v1EYD+AUpyRkdKCYFqACrzgf9C352LfuxyWRWg1/yhT/nRE5IsZWuZtCSK8CPeI0e/hF+jV7AJM4PO7KWCyr390bSiNtEtQM=);strokeColor=none;spacingTop=-3;spacingBottom=-3;spacingLeft=-3;spacingRight=-3;points=[];labelBackgroundColor=none;rounded=0;html=1;whiteSpace=wrap;" vertex="1" parent="KjuzfbItVxYMDOMurPIg-20">
          <mxGeometry x="32.53" y="166.98" width="148.7" height="43.02" as="geometry" />
        </mxCell>
        <mxCell id="KjuzfbItVxYMDOMurPIg-23" value="" style="shape=image;html=1;verticalAlign=top;verticalLabelPosition=bottom;labelBackgroundColor=#ffffff;imageAspect=0;aspect=fixed;image=https://cdn1.iconfinder.com/data/icons/unicons-line-vol-1/24/adobe-128.png" vertex="1" parent="KjuzfbItVxYMDOMurPIg-20">
          <mxGeometry x="63.82" y="26.14" width="103.86" height="103.86" as="geometry" />
        </mxCell>
        <mxCell id="KjuzfbItVxYMDOMurPIg-24" value="&lt;font style=&quot;font-size: 24px;&quot;&gt;&lt;b&gt;Source System&lt;/b&gt;&lt;/font&gt;" style="rounded=1;arcSize=9;align=center;spacingLeft=5;strokeColor=#4C9AFF;html=1;strokeWidth=2;fontSize=12" vertex="1" parent="1">
          <mxGeometry x="-800" y="346.68" width="200" height="45.5" as="geometry" />
        </mxCell>
        <UserObject label="&lt;div style=&quot;font-size: 1px&quot;&gt;&lt;font style=&quot;font-size:11.64px;font-family:Helvetica;color:#000000;direction:ltr;letter-spacing:0px;line-height:120%;opacity:1&quot;&gt;&lt;b&gt;S3 LANDING BUCKET&lt;/b&gt;&lt;/font&gt;&lt;/div&gt;&lt;div style=&quot;font-size: 1px&quot;&gt;&lt;font style=&quot;font-size:11.64px;font-family:Helvetica;color:#000000;direction:ltr;letter-spacing:0px;line-height:120%;opacity:1&quot;&gt;&lt;b&gt;(mt-source-data-landing)&lt;/b&gt;&lt;b&gt;&lt;br&gt;&lt;/b&gt;&lt;/font&gt;&lt;/div&gt;" tags="Background" id="KjuzfbItVxYMDOMurPIg-25">
          <mxCell style="verticalAlign=middle;align=center;overflow=width;vsdxID=348;fillColor=none;gradientColor=none;shape=stencil(nZBRDoQgDERP03+WHsHFe5iISyOCQdT19kIaIxq//Jtp3zTpAFaTaUYNUkwx+F6v1EYD+AUpyRkdKCYFqACrzgf9C352LfuxyWRWg1/yhT/nRE5IsZWuZtCSK8CPeI0e/hF+jV7AJM4PO7KWCyr390bSiNtEtQM=);strokeColor=none;spacingTop=-3;spacingBottom=-3;spacingLeft=-3;spacingRight=-3;points=[];labelBackgroundColor=none;rounded=0;html=1;whiteSpace=wrap;" vertex="1" parent="1">
            <mxGeometry x="-515" y="622.82" width="140" height="30" as="geometry" />
          </mxCell>
        </UserObject>
        <mxCell id="KjuzfbItVxYMDOMurPIg-26" value="" style="outlineConnect=0;dashed=0;verticalLabelPosition=bottom;verticalAlign=top;align=center;html=1;shape=mxgraph.aws3.redshift;fillColor=#2E73B8;gradientColor=none;" vertex="1" parent="1">
          <mxGeometry x="669" y="370.5" width="70" height="74.5" as="geometry" />
        </mxCell>
        <UserObject label="&lt;div style=&quot;&quot;&gt;&lt;span style=&quot;font-size: 11.64px;&quot;&gt;&lt;b&gt;EXTERNAL SCHEMA&lt;/b&gt;&lt;/span&gt;&lt;/div&gt;" tags="Background" id="KjuzfbItVxYMDOMurPIg-27">
          <mxCell style="verticalAlign=middle;align=center;overflow=width;vsdxID=349;fillColor=none;gradientColor=none;shape=stencil(nZBRDoQgDERP03+WHsHFe5iISyOCQdT19kIaIxq//Jtp3zTpAFaTaUYNUkwx+F6v1EYD+AUpyRkdKCYFqACrzgf9C352LfuxyWRWg1/yhT/nRE5IsZWuZtCSK8CPeI0e/hF+jV7AJM4PO7KWCyr390bSiNtEtQM=);strokeColor=none;spacingTop=-3;spacingBottom=-3;spacingLeft=-3;spacingRight=-3;points=[];labelBackgroundColor=none;rounded=0;html=1;whiteSpace=wrap;" vertex="1" parent="1">
            <mxGeometry x="669" y="313.5" width="79" height="57" as="geometry" />
          </mxCell>
        </UserObject>
        <mxCell id="KjuzfbItVxYMDOMurPIg-28" value="" style="edgeStyle=orthogonalEdgeStyle;rounded=0;orthogonalLoop=1;jettySize=auto;html=1;fontStyle=1;" edge="1" parent="1">
          <mxGeometry relative="1" as="geometry">
            <mxPoint x="639" y="566" as="sourcePoint" />
            <mxPoint x="699" y="445" as="targetPoint" />
          </mxGeometry>
        </mxCell>
        <mxCell id="KjuzfbItVxYMDOMurPIg-29" style="vsdxID=315;fillColor=#ffffff;gradientColor=none;shape=stencil(rVNBDsIgEHwNVwOLMd5r/YAvIIKWWEulrVZfL3S1UZpWTHrbnZ1lkpmF8KTKRKkI0Kq25qRuWtYZ4RsCoItMWV27ivCU8ORgrDpa0xQS+1I4JtAOURJ3mGcDFXa/0w+F2Gq5WCOMe2dz9Xrta4NSHN6xx26L1FwXsdRLI6SnspDLPsm0hXAOP3XjVac1Z1F0RWc8RqLzHHPr5/OkEp3JN/HtapQ7fQQj/gSPTd/CtPLgGgbag3v4S308oSAdV4TfyEH4BXn6BA==);strokeColor=#000000;spacingTop=-3;spacingBottom=-3;spacingLeft=-3;spacingRight=-3;points=[];labelBackgroundColor=none;rounded=1;html=1;whiteSpace=wrap;" vertex="1" parent="1">
          <mxGeometry x="-310.00000000000006" y="235.5" width="754" height="651" as="geometry" />
        </mxCell>
        <mxCell id="KjuzfbItVxYMDOMurPIg-30" style="vsdxID=316;fillColor=none;gradientColor=none;shape=stencil(nZBRDoQgDERP03+WHsHFe5iISyOCQdT19kIaIxq//Jtp3zTpAFaTaUYNUkwx+F6v1EYD+AUpyRkdKCYFqACrzgf9C352LfuxyWRWg1/yhT/nRE5IsZWuZtCSK8CPeI0e/hF+jV7AJM4PO7KWCyr390bSiNtEtQM=);strokeColor=#000000;spacingTop=-3;spacingBottom=-3;spacingLeft=-3;spacingRight=-3;points=[];labelBackgroundColor=none;rounded=0;html=1;whiteSpace=wrap;" vertex="1" parent="1">
          <mxGeometry x="-280.06" y="652.18" width="700.06" height="219" as="geometry" />
        </mxCell>
        <mxCell id="KjuzfbItVxYMDOMurPIg-31" value="&lt;div style=&quot;font-size: 1px&quot;&gt;&lt;font style=&quot;font-size:17.46px;font-family:Helvetica;color:#000000;direction:ltr;letter-spacing:0px;line-height:120%;opacity:1&quot;&gt;&lt;b&gt;&amp;nbsp;GLUE JOB&lt;/b&gt;&lt;/font&gt;&lt;/div&gt;" style="verticalAlign=middle;align=center;overflow=width;vsdxID=317;fillColor=none;gradientColor=none;shape=stencil(nZBRDoQgDERP03+WHsHFe5iISyOCQdT19kIaIxq//Jtp3zTpAFaTaUYNUkwx+F6v1EYD+AUpyRkdKCYFqACrzgf9C352LfuxyWRWg1/yhT/nRE5IsZWuZtCSK8CPeI0e/hF+jV7AJM4PO7KWCyr390bSiNtEtQM=);strokeColor=none;spacingTop=-3;spacingBottom=-3;spacingLeft=-3;spacingRight=-3;points=[];labelBackgroundColor=none;rounded=0;html=1;whiteSpace=wrap;" vertex="1" parent="1">
          <mxGeometry x="-79.49913580246914" y="254" width="243.76543209876544" height="40" as="geometry" />
        </mxCell>
        <mxCell id="KjuzfbItVxYMDOMurPIg-32" style="vsdxID=318;fillColor=#8C4FFF;gradientColor=none;shape=stencil(pVnbcts4DP0av3JIgjc9d9v/6LTpJrPZpJOmu8nfFx6LJHQgUnb7Zss4Iq4HIHyiDz/uP3+/O3n74/Xl+Z+7/x++vt6f6K+T9w9P93cvD6/86UQfT/Th2/PL3d8vzz+fvl6+f/98ljx/+vf5v/Mb3i44e0Z4+y6/fboIPj48CUFnf1u0ft8V/m3RjSB/6BZ+e3h8bL+MDKfFJNq80AdT3Pj04E1c/hDgTIljwI5KNwNQJTA6mZS3gGRocoCWt4ayBHz5+XI5wWnI+sgtJl6ssG9+lcqGqubrI1dMWd31RqtUMW4FvhNK7fs8GLtVWAFQYYbUc5vCQpVVuxBNTKCwMIu0FA0cBgoLxH5ElL4CsT7y2TgH+gqrfJPKBfQV7iKU2s8IEZIBQGWEiLXTqnidN16bRVqK9v21zfjoTCjbhIhmmaR8DCaEPwR4s6QJQKt0MwBV2hodiol+C8gmzKhKA9qZozQUkFo21qQEabgYV1WvZWO3IY2V1mnz+74nmt29YcyUjMnkiEpuNYzNM0LDbgdpKRp4CFQViEEMlLYC0pnIEygsbBpTp/TUddQZoRMf8qYI7YQ3RZp4bRNpKRp4C+paVR1Zk8Mt8bgZcECNWqWbAUolMLrxxJUjSOwBGQFUEi4mQxJ2TAtral2ts3VsLFXDKqUGbL3VVwJWj3jj/UxfCakNh4wNUDTCKt+kMtSM8BaB0L57VTxQXnnXGxeUthmUFXzvtUmkpWjgrKM+cjRrSITTYfbaKK9ThrSzaJCMkO5bRgpHo2fgQQMmuY6Ro+cCoydLeSB8cm1Cee/TaJ4M4yE1k1eFE18AwlTh1F3iGgYnIzbLgnsTpwOOnkKKmhRNik0iVkCqVTLhfGj6iZ0O5MBZoxRmKX+YD+fzZ5OWKjdl4U69KQ8L31WFSSvs1bDMUg7oQUUY6KzUemz8gDmk6Mz3idzp7OwVl4DOZKYPJitVQNty8+qyx9O2n+YDQwLSWTQFKq6xTKczvsNsdRUy1GTsdAARkHq2NQWLh50HZ1sDzMTTR0Det8beNC8z9S7ze3ExpJnf4i3I9wKrj4LxQP1+MYtX3nLTUJ17A4zCHF51/mKwTfYxaJRXdDTYco8u2KPFaztHqB6dag60wzNHJmnb5zNCt8o1p2ZSx++43kFfYPbAlQSHMU2GBEZEPXhOWSv7npBVYWcKKJzb4CCmBNxICKFr60pAek1HdTauQ2Th98MJqxop5eiCx+7Ls7uxBhztIySkJggXJw41euHDUgtcXCLkwjnTpvzOTYRgomIMnu2qze1sTvuanb0MDVxJu9D40h6ABOSLK2emPvv4riOyZtQDB1s/n9D4xoPtmJ0KySW3Ut31wIE7qysV+aPd4EFuXdEQ1d75spg/3D6n3tPXV+el8tqYRJEUGJMgdufrEKROsY35W+pwA4HYsVSa3VVdm5pWhcti4vyuY3sWu4YpOHvZXhDro+VgQ7RMdz6hO6Ueu8DOh0U8zHtSsz4WLFDeymbIMNGbBl5VbZm1hbFAxqu35QitUcaemlSGqB5mFWMWYPtc2mFiilLn90Vwc5hr+9p2fgE+PNp+3w6Y3tD1oHazfPuP5fpFKEcwIKdlU7AunVpv71ziutSI1NJ2w3MAgEt14QneT6Rju91d+Xp1R1OAK3Yi0jXjpYh083gpogJ4tBSZZ4he2t0sP09xvbNTgJ2dnWoNojx7a7BwD5Ol3nd2PikPbklk/G8rf8B/nvnR5V9r+vgL);strokeColor=#ffffff;spacingTop=-3;spacingBottom=-3;spacingLeft=-3;spacingRight=-3;points=[];labelBackgroundColor=none;rounded=0;html=1;whiteSpace=wrap;" vertex="1" parent="1">
          <mxGeometry x="-20.77777777777777" y="499" width="86.42592592592592" height="78" as="geometry" />
        </mxCell>
        <mxCell id="KjuzfbItVxYMDOMurPIg-33" style="vsdxID=319;fillColor=#ffffff;gradientColor=none;image;aspect=fixed;image=data:image/svg+xml,PD94bWwgdmVyc2lvbj0iMS4wIiBlbmNvZGluZz0iVVRGLTgiIHN0YW5kYWxvbmU9Im5vIj8+DQo8IS0tIENyZWF0ZWQgd2l0aCBJbmtzY2FwZSAoaHR0cDovL3d3dy5pbmtzY2FwZS5vcmcvKSAtLT4NCjxzdmcNCiAgIHhtbG5zOmRjPSJodHRwOi8vcHVybC5vcmcvZGMvZWxlbWVudHMvMS4xLyINCiAgIHhtbG5zOmNjPSJodHRwOi8vY3JlYXRpdmVjb21tb25zLm9yZy9ucyMiDQogICB4bWxuczpyZGY9Imh0dHA6Ly93d3cudzMub3JnLzE5OTkvMDIvMjItcmRmLXN5bnRheC1ucyMiDQogICB4bWxuczpzdmc9Imh0dHA6Ly93d3cudzMub3JnLzIwMDAvc3ZnIg0KICAgeG1sbnM9Imh0dHA6Ly93d3cudzMub3JnLzIwMDAvc3ZnIg0KICAgeG1sbnM6c29kaXBvZGk9Imh0dHA6Ly9zb2RpcG9kaS5zb3VyY2Vmb3JnZS5uZXQvRFREL3NvZGlwb2RpLTAuZHRkIg0KICAgeG1sbnM6aW5rc2NhcGU9Imh0dHA6Ly93d3cuaW5rc2NhcGUub3JnL25hbWVzcGFjZXMvaW5rc2NhcGUiDQogICB3aWR0aD0iMjUwIg0KICAgaGVpZ2h0PSIyNTAiDQogICBpZD0ic3ZnMzMxOSINCiAgIHNvZGlwb2RpOnZlcnNpb249IjAuMzIiDQogICBpbmtzY2FwZTp2ZXJzaW9uPSIwLjQ2Ig0KICAgdmVyc2lvbj0iMS4wIg0KICAgc29kaXBvZGk6ZG9jbmFtZT0ibm9waG90b19pLnN2ZyINCiAgIGlua3NjYXBlOm91dHB1dF9leHRlbnNpb249Im9yZy5pbmtzY2FwZS5vdXRwdXQuc3ZnLmlua3NjYXBlIj4NCiAgPGRlZnMNCiAgICAgaWQ9ImRlZnMzMzIxIj4NCiAgICA8aW5rc2NhcGU6cGVyc3BlY3RpdmUNCiAgICAgICBzb2RpcG9kaTp0eXBlPSJpbmtzY2FwZTpwZXJzcDNkIg0KICAgICAgIGlua3NjYXBlOnZwX3g9IjAgOiA1MjYuMTgxMDkgOiAxIg0KICAgICAgIGlua3NjYXBlOnZwX3k9IjAgOiAxMDAwIDogMCINCiAgICAgICBpbmtzY2FwZTp2cF96PSI3NDQuMDk0NDggOiA1MjYuMTgxMDkgOiAxIg0KICAgICAgIGlua3NjYXBlOnBlcnNwM2Qtb3JpZ2luPSIzNzIuMDQ3MjQgOiAzNTAuNzg3MzkgOiAxIg0KICAgICAgIGlkPSJwZXJzcGVjdGl2ZTMzMjciIC8+DQogICAgPGlua3NjYXBlOnBlcnNwZWN0aXZlDQogICAgICAgaWQ9InBlcnNwZWN0aXZlMzM0MiINCiAgICAgICBpbmtzY2FwZTpwZXJzcDNkLW9yaWdpbj0iMzcyLjA0NzI0IDogMzUwLjc4NzM5IDogMSINCiAgICAgICBpbmtzY2FwZTp2cF96PSI3NDQuMDk0NDggOiA1MjYuMTgxMDkgOiAxIg0KICAgICAgIGlua3NjYXBlOnZwX3k9IjAgOiAxMDAwIDogMCINCiAgICAgICBpbmtzY2FwZTp2cF94PSIwIDogNTI2LjE4MTA5IDogMSINCiAgICAgICBzb2RpcG9kaTp0eXBlPSJpbmtzY2FwZTpwZXJzcDNkIiAvPg0KICA8L2RlZnM+DQogIDxzb2RpcG9kaTpuYW1lZHZpZXcNCiAgICAgaWQ9ImJhc2UiDQogICAgIHBhZ2Vjb2xvcj0iI2ZmZmZmZiINCiAgICAgYm9yZGVyY29sb3I9IiM2NjY2NjYiDQogICAgIGJvcmRlcm9wYWNpdHk9IjEuMCINCiAgICAgaW5rc2NhcGU6cGFnZW9wYWNpdHk9IjAuMCINCiAgICAgaW5rc2NhcGU6cGFnZXNoYWRvdz0iMiINCiAgICAgaW5rc2NhcGU6em9vbT0iMi4yNDI5NDI3Ig0KICAgICBpbmtzY2FwZTpjeD0iMTIxLjk3NjQ4Ig0KICAgICBpbmtzY2FwZTpjeT0iMTIyLjQ0MTk4Ig0KICAgICBpbmtzY2FwZTpkb2N1bWVudC11bml0cz0icHgiDQogICAgIGlua3NjYXBlOmN1cnJlbnQtbGF5ZXI9ImxheWVyMSINCiAgICAgc2hvd2dyaWQ9ImZhbHNlIg0KICAgICBpbmtzY2FwZTp3aW5kb3ctd2lkdGg9IjE2NjQiDQogICAgIGlua3NjYXBlOndpbmRvdy1oZWlnaHQ9Ijg0NCINCiAgICAgaW5rc2NhcGU6d2luZG93LXg9Ii0zIg0KICAgICBpbmtzY2FwZTp3aW5kb3cteT0iLTE4IiAvPg0KICA8bWV0YWRhdGENCiAgICAgaWQ9Im1ldGFkYXRhMzMyNCI+DQogICAgPHJkZjpSREY+DQogICAgICA8Y2M6V29yaw0KICAgICAgICAgcmRmOmFib3V0PSIiPg0KICAgICAgICA8ZGM6Zm9ybWF0PmltYWdlL3N2Zyt4bWw8L2RjOmZvcm1hdD4NCiAgICAgICAgPGRjOnR5cGUNCiAgICAgICAgICAgcmRmOnJlc291cmNlPSJodHRwOi8vcHVybC5vcmcvZGMvZGNtaXR5cGUvU3RpbGxJbWFnZSIgLz4NCiAgICAgICAgPGRjOnRpdGxlPkZvdG9ncmFmaWVydmVyYm90PC9kYzp0aXRsZT4NCiAgICAgICAgPGRjOmRhdGU+MjAwOC0wNi0yOTwvZGM6ZGF0ZT4NCiAgICAgICAgPGRjOmNyZWF0b3I+DQogICAgICAgICAgPGNjOkFnZW50Pg0KICAgICAgICAgICAgPGRjOnRpdGxlPlRvcnJzdGVuIFNrb21wPC9kYzp0aXRsZT4NCiAgICAgICAgICA8L2NjOkFnZW50Pg0KICAgICAgICA8L2RjOmNyZWF0b3I+DQogICAgICAgIDxkYzpyaWdodHM+DQogICAgICAgICAgPGNjOkFnZW50Pg0KICAgICAgICAgICAgPGRjOnRpdGxlPlRvcnN0ZW4gU2tvbXA8L2RjOnRpdGxlPg0KICAgICAgICAgIDwvY2M6QWdlbnQ+DQogICAgICAgIDwvZGM6cmlnaHRzPg0KICAgICAgICA8ZGM6cHVibGlzaGVyPg0KICAgICAgICAgIDxjYzpBZ2VudD4NCiAgICAgICAgICAgIDxkYzp0aXRsZT5Ub3JzdGVuIFNrb21wPC9kYzp0aXRsZT4NCiAgICAgICAgICA8L2NjOkFnZW50Pg0KICAgICAgICA8L2RjOnB1Ymxpc2hlcj4NCiAgICAgICAgPGRjOmxhbmd1YWdlPmRlX0RFPC9kYzpsYW5ndWFnZT4NCiAgICAgICAgPGRjOnN1YmplY3Q+DQogICAgICAgICAgPHJkZjpCYWc+DQogICAgICAgICAgICA8cmRmOmxpPlBpa3RvZ3JhbW07IEZvdG9ncmFmaWVydmVyYm90PC9yZGY6bGk+DQogICAgICAgICAgPC9yZGY6QmFnPg0KICAgICAgICA8L2RjOnN1YmplY3Q+DQogICAgICAgIDxkYzpkZXNjcmlwdGlvbj5Gb3RvZ3JhZmllcnZlcmJvdCBhbHMgUGlrdG9ncmFtbSA8L2RjOmRlc2NyaXB0aW9uPg0KICAgICAgICA8Y2M6bGljZW5zZQ0KICAgICAgICAgICByZGY6cmVzb3VyY2U9Imh0dHA6Ly9jcmVhdGl2ZWNvbW1vbnMub3JnL2xpY2Vuc2VzL3B1YmxpY2RvbWFpbi8iIC8+DQogICAgICA8L2NjOldvcms+DQogICAgICA8Y2M6TGljZW5zZQ0KICAgICAgICAgcmRmOmFib3V0PSJodHRwOi8vY3JlYXRpdmVjb21tb25zLm9yZy9saWNlbnNlcy9wdWJsaWNkb21haW4vIj4NCiAgICAgICAgPGNjOnBlcm1pdHMNCiAgICAgICAgICAgcmRmOnJlc291cmNlPSJodHRwOi8vY3JlYXRpdmVjb21tb25zLm9yZy9ucyNSZXByb2R1Y3Rpb24iIC8+DQogICAgICAgIDxjYzpwZXJtaXRzDQogICAgICAgICAgIHJkZjpyZXNvdXJjZT0iaHR0cDovL2NyZWF0aXZlY29tbW9ucy5vcmcvbnMjRGlzdHJpYnV0aW9uIiAvPg0KICAgICAgICA8Y2M6cGVybWl0cw0KICAgICAgICAgICByZGY6cmVzb3VyY2U9Imh0dHA6Ly9jcmVhdGl2ZWNvbW1vbnMub3JnL25zI0Rlcml2YXRpdmVXb3JrcyIgLz4NCiAgICAgIDwvY2M6TGljZW5zZT4NCiAgICA8L3JkZjpSREY+DQogIDwvbWV0YWRhdGE+DQogIDxnDQogICAgIGlua3NjYXBlOmxhYmVsPSJFYmVuZSAxIg0KICAgICBpbmtzY2FwZTpncm91cG1vZGU9ImxheWVyIg0KICAgICBpZD0ibGF5ZXIxIj4NCiAgICA8cGF0aA0KICAgICAgIHN0eWxlPSJmaWxsOiMwMDAwMDA7ZmlsbC1vcGFjaXR5OjEiDQogICAgICAgZD0iTSAxNjQuNTMxMjUgNjIuNjg3NSBDIDE2Mi43OTExNSA2Mi42ODc1MDEgMTYxLjM3NSA2NC4wNzI0MTYgMTYxLjM3NSA2NS44MTI1IEwgMTYxLjM3NSA2OC43NSBMIDM4LjM3NSA2OC43NSBDIDM1LjA5MjI5OCA2OC43NDk5OTkgMzIuNDY4NzUgNzEuMzczNTQ4IDMyLjQ2ODc1IDc0LjY1NjI1IEwgMzIuNDY4NzUgMTgxLjM3NSBDIDMyLjQ2ODc1IDE4NC42NTc3IDM1LjA5MjMwNyAxODcuMzEyNTEgMzguMzc1IDE4Ny4zMTI1IEwgMjExLjYyNSAxODcuMzEyNSBDIDIxNC45MDc2OSAxODcuMzEyNSAyMTcuNTMxMjcgMTg0LjY1NzcgMjE3LjUzMTI1IDE4MS4zNzUgTCAyMTcuNTMxMjUgNzQuNjU2MjUgQyAyMTcuNTMxMjUgNzEuMzczNTUxIDIxNC45MDc2OCA2OC43NSAyMTEuNjI1IDY4Ljc1IEwgMjAyLjA2MjUgNjguNzUgTCAyMDIuMDYyNSA2NS44MTI1IEMgMjAyLjA2MjUgNjQuMDcyNDEgMjAwLjY0NjM1IDYyLjY4NzUgMTk4LjkwNjI1IDYyLjY4NzUgTCAxNjQuNTMxMjUgNjIuNjg3NSB6IE0gNDYuODEyNSA3OCBMIDg4LjY1NjI1IDc4IEMgOTAuMzk2MzQyIDc4IDkxLjgxMjUgNzkuMzg0OTA3IDkxLjgxMjUgODEuMTI1IEwgOTEuODEyNSA5Ni4zMTI1IEMgOTEuODEyNSA5OC4wNTI1OTIgOTAuMzk2MzQzIDk5LjQzNzUgODguNjU2MjUgOTkuNDM3NSBMIDQ2LjgxMjUgOTkuNDM3NSBDIDQ1LjA3MjQwOCA5OS40Mzc1IDQzLjY4NzUgOTguMDUyNTkzIDQzLjY4NzUgOTYuMzEyNSBMIDQzLjY4NzUgODEuMTI1IEMgNDMuNjg3NSA3OS4zODQ5MDggNDUuMDcyNDA3IDc4IDQ2LjgxMjUgNzggeiBNIDE0NiA4OC4yMTg3NSBDIDE2Ny43MzQ3NSA4OC4yMTg3NTMgMTg1LjM3NSAxMDYuMTUwNzEgMTg1LjM3NSAxMjguMjUgQyAxODUuMzc0OTkgMTUwLjM0OTI4IDE2Ny43MzQ3NCAxNjguMjgxMjUgMTQ2IDE2OC4yODEyNSBDIDEyNC4yNjUyNyAxNjguMjgxMjYgMTA2LjYyNSAxNTAuMzQ5MjkgMTA2LjYyNSAxMjguMjUgQyAxMDYuNjI1IDEwNi4xNTA3MSAxMjQuMjY1MjYgODguMjE4NzUgMTQ2IDg4LjIxODc1IHogTSAxNDYgOTEuNzE4NzUgQyAxMjYuMTY1NTcgOTEuNzE4NzUgMTEwLjA2MjUgMTA4LjA4Mjg5IDExMC4wNjI1IDEyOC4yNSBDIDExMC4wNjI1IDE0OC40MTcxMSAxMjYuMTY1NTcgMTY0Ljc4MTI2IDE0NiAxNjQuNzgxMjUgQyAxNjUuODM0NDMgMTY0Ljc4MTI1IDE4MS45Mzc1IDE0OC40MTcxIDE4MS45Mzc1IDEyOC4yNSBDIDE4MS45Mzc1IDEwOC4wODI4OSAxNjUuODM0NDMgOTEuNzE4NzUgMTQ2IDkxLjcxODc1IHogTSAxNDYgOTYuNTkzNzUgQyAxNjMuMTc3NjggOTYuNTkzNzUyIDE3Ny4xMjUgMTEwLjc4NDIgMTc3LjEyNSAxMjguMjUgQyAxNzcuMTI0OTkgMTQ1LjcxNTggMTYzLjE3NzY5IDE1OS44NzUgMTQ2IDE1OS44NzUgQyAxMjguODIyMzEgMTU5Ljg3NSAxMTQuODc1IDE0NS43MTU4IDExNC44NzUgMTI4LjI1IEMgMTE0Ljg3NSAxMTAuNzg0MTkgMTI4LjgyMjMxIDk2LjU5Mzc1IDE0NiA5Ni41OTM3NSB6IE0gMTc2LjUgMTcyLjcxODc1IEwgMjA2LjE4NzUgMTcyLjcxODc1IEMgMjA3LjQyMTM4IDE3Mi43MTg3NSAyMDguNDA2MjUgMTczLjEyNzgzIDIwOC40MDYyNSAxNzMuNjI1IEwgMjA4LjQwNjI1IDE3Ny45Njg3NSBDIDIwOC40MDYyNSAxNzguNDY1OTIgMjA3LjQyMTM4IDE3OC44NDM3NSAyMDYuMTg3NSAxNzguODQzNzUgTCAxNzYuNSAxNzguODQzNzUgQyAxNzUuMjY2MTEgMTc4Ljg0Mzc1IDE3NC4yODEyNSAxNzguNDY1OTIgMTc0LjI4MTI1IDE3Ny45Njg3NSBMIDE3NC4yODEyNSAxNzMuNjI1IEMgMTc0LjI4MTI1IDE3My4xMjc4MyAxNzUuMjY2MTIgMTcyLjcxODc1IDE3Ni41IDE3Mi43MTg3NSB6ICINCiAgICAgICBpZD0icmVjdDMyMDkiIC8+DQogICAgPHBhdGgNCiAgICAgICBzdHlsZT0iZmlsbDojYzQyNjFkO2ZpbGwtb3BhY2l0eToxIg0KICAgICAgIGQ9Ik0gMjAgMCBDIDE4LjU1OTkzOCAwIDE3LjE2NDc0NyAwLjE1MDk4NjY2IDE1LjgxMjUgMC40Mzc1IEMgMTUuMjEwMjkxIDAuNTY1MTk1NzggMTQuNjExOTEzIDAuNzI2MjExMjYgMTQuMDMxMjUgMC45MDYyNSBDIDEzLjU1NDc3MyAxLjA1Mzk4NTIgMTMuMDg1MzQ5IDEuMjI0ODUzNiAxMi42MjUgMS40MDYyNSBDIDEyLjMyODc2NiAxLjUyMzA3MzkgMTIuMDM5MDMzIDEuNjUwOTE4MiAxMS43NSAxLjc4MTI1IEMgMTEuMzQ3Mjc4IDEuOTYyMzU5OCAxMC45NTA0MDYgMi4xMzc0MTY1IDEwLjU2MjUgMi4zNDM3NSBDIDEwLjUyMTU1NSAyLjM2NTU2ODggMTAuNDc4MjczIDIuMzg0MTU1NSAxMC40Mzc1IDIuNDA2MjUgQyAxMC40MTY5MzQgMi40MTczNzU0IDEwLjM5NTUyMiAyLjQyNjMwNDkgMTAuMzc1IDIuNDM3NSBDIDkuODMyNjg2MSAyLjczMzM0NDYgOS4zMjI2NDQ4IDMuMDYzMjQ1MiA4LjgxMjUgMy40MDYyNSBDIDguMjgzMTIyMSAzLjc2MjE4NjUgNy43NzI3NzI4IDQuMTU4OTIwOSA3LjI4MTI1IDQuNTYyNSBDIDcuMjc1MDU1IDQuNTY3NTg2NiA3LjI1NjE4ODggNC41NTc0MDYxIDcuMjUgNC41NjI1IEMgNy4yMzg1NDc5IDQuNTcxOTQzNCA3LjIzMDE4MDYgNC41ODQyODE2IDcuMjE4NzUgNC41OTM3NSBDIDcuMTA0NzM1MiA0LjY4ODAxNTkgNi45ODY4NTA3IDQuNzc4MjY4NyA2Ljg3NSA0Ljg3NSBDIDYuNTE1NzAyMSA1LjE4NjQyNjQgNi4xNzk3OTA5IDUuNTA3NzA5MSA1Ljg0Mzc1IDUuODQzNzUgQyA1LjQwNDQwMjUgNi4yODE4MDc4IDQuOTkwNzQ0OSA2Ljc0MTM1NTQgNC41OTM3NSA3LjIxODc1IEMgNC41NzkwMDg2IDcuMjM2NTQ2MiA0LjU3NzE4MDYgNy4yNjM0MDE1IDQuNTYyNSA3LjI4MTI1IEMgMy43Njc0ODk4IDguMjQzOTE4MSAzLjA0MjI3MjEgOS4yNzE4NzA1IDIuNDM3NSAxMC4zNzUgQyAyLjQyNjIyMzIgMTAuMzk1NjM1IDIuNDE3NDU2MSAxMC40MTY4MiAyLjQwNjI1IDEwLjQzNzUgQyAyLjEwODM5MDggMTAuOTg1MzQ4IDEuODQwMjIzMyAxMS41NDcyMTQgMS41OTM3NSAxMi4xMjUgQyAxLjU3NTU4NjUgMTIuMTY3NjY1IDEuNTQ5MTI1NSAxMi4yMDcxODIgMS41MzEyNSAxMi4yNSBDIDEuMjg3NzEzMSAxMi44MzI0MzMgMS4wOTQ2NzU0IDEzLjQyMTgyMiAwLjkwNjI1IDE0LjAzMTI1IEMgMC43Mjk2MzAxNCAxNC42MDI0OTUgMC41NjMwOTYzNCAxNS4xODg4MjggMC40Mzc1IDE1Ljc4MTI1IEMgMC4xNDY5MTQwNCAxNy4xNDI1NzggLTQuMzkwNjEzM2UtMTggMTguNTQ5NDY2IDAgMjAgTCAwIDIzMCBDIDAgMjQxLjA4IDguOTIgMjUwIDIwIDI1MCBMIDIzMCAyNTAgQyAyMzEuNDQwMDYgMjUwIDIzMi44MzUyNSAyNDkuODQ5MDEgMjM0LjE4NzUgMjQ5LjU2MjUgQyAyMzQuNzg5MDMgMjQ5LjQzNDk3IDIzNS4zODg2NiAyNDkuMjczODEgMjM1Ljk2ODc1IDI0OS4wOTM3NSBDIDIzNi40NDQ3NiAyNDguOTQ2IDIzNi45MTUwNSAyNDguNzc1MjYgMjM3LjM3NSAyNDguNTkzNzUgQyAyMzcuNjcxMjMgMjQ4LjQ3NjkzIDIzNy45NjA5NyAyNDguMzQ5MDggMjM4LjI1IDI0OC4yMTg3NSBDIDIzOC4yNzk4MSAyNDguMjA1MzEgMjM4LjMxNDAyIDI0OC4yMDEwOSAyMzguMzQzNzUgMjQ4LjE4NzUgQyAyMzguNzU4MzYgMjQ3Ljk5ODMgMjM5LjE2Mzc0IDI0Ny44MDk4MSAyMzkuNTYyNSAyNDcuNTkzNzUgQyAyMzkuNTgzMTggMjQ3LjU4MjU0IDIzOS42MDQzNiAyNDcuNTczNzggMjM5LjYyNSAyNDcuNTYyNSBDIDI0MC4xNjkyNSAyNDcuMjY1MTIgMjQwLjY3NTU4IDI0Ni45Mzg3MyAyNDEuMTg3NSAyNDYuNTkzNzUgQyAyNDEuNjY4NzggMjQ2LjI2OTQxIDI0Mi4xNDM1OSAyNDUuOTI2MzkgMjQyLjU5Mzc1IDI0NS41NjI1IEMgMjQyLjY0NDc0IDI0NS41MjEyOCAyNDIuNjk5NDMgMjQ1LjQ3OTIxIDI0Mi43NSAyNDUuNDM3NSBDIDI0Mi44NzY1MSAyNDUuMzMzMTggMjQzLjAwMTE1IDI0NS4yMzIzNSAyNDMuMTI1IDI0NS4xMjUgQyAyNDMuNDgyNjUgMjQ0LjgxNTM4IDI0My44MjE1NSAyNDQuNDkwMTkgMjQ0LjE1NjI1IDI0NC4xNTYyNSBDIDI0NC40OTIyOSAyNDMuODIwMjEgMjQ0LjgxMzU3IDI0My40ODQzIDI0NS4xMjUgMjQzLjEyNSBDIDI0NS4yMzE2NyAyNDMuMDAyMzQgMjQ1LjMzMzgxIDI0Mi44NzUyNyAyNDUuNDM3NSAyNDIuNzUgQyAyNDUuNDQyNzYgMjQyLjc0MzYyIDI0NS40MzIyNSAyNDIuNzI1MTMgMjQ1LjQzNzUgMjQyLjcxODc1IEMgMjQ1Ljg0MjQ5IDI0Mi4yMjgzIDI0Ni4yMzY0IDI0MS43MTU3NiAyNDYuNTkzNzUgMjQxLjE4NzUgQyAyNDYuOTM4MTIgMjQwLjY3ODQzIDI0Ny4yNjUzNiAyNDAuMTY2MjIgMjQ3LjU2MjUgMjM5LjYyNSBDIDI0Ny41NzM2MyAyMzkuNjA0NzIgMjQ3LjU4MjY4IDIzOS41ODI4MiAyNDcuNTkzNzUgMjM5LjU2MjUgQyAyNDcuODkxOTcgMjM5LjAxNDggMjQ4LjE1OTMxIDIzOC40NTIzOSAyNDguNDA2MjUgMjM3Ljg3NSBDIDI0OC40MTU1NCAyMzcuODUzMjggMjQ4LjQyODI5IDIzNy44MzQyNiAyNDguNDM3NSAyMzcuODEyNSBDIDI0OC40NDY0NCAyMzcuNzkxMjkgMjQ4LjQ1OTg4IDIzNy43NzEyNSAyNDguNDY4NzUgMjM3Ljc1IEMgMjQ4LjcwOTkyIDIzNy4xNzQ3NiAyNDguOTA2MjggMjM2LjU3MDA4IDI0OS4wOTM3NSAyMzUuOTY4NzUgQyAyNDkuMjczNzUgMjM1LjM5MTM3IDI0OS40MzQ2OCAyMzQuODE3NTQgMjQ5LjU2MjUgMjM0LjIxODc1IEMgMjQ5Ljg1MzA5IDIzMi44NTc0MiAyNTAgMjMxLjQ1MDUzIDI1MCAyMzAgTCAyNTAgMjAgQyAyNTAgOC45MiAyNDEuMDggLTMuMzUzNzk4N2UtMTcgMjMwIDAgTCAyMCAwIHogTSAzNC43ODEyNSAxOS40MDYyNSBMIDIyNS40Njg3NSAxOS40MDYyNSBDIDIyOC4zMDk0NiAxOS40MDYyNSAyMzAuNTkzNzUgMjEuNjkwNTQ0IDIzMC41OTM3NSAyNC41MzEyNSBMIDIzMC41OTM3NSAyMTUuMjUgTCAzNC43ODEyNSAxOS40MDYyNSB6IE0gMTkuNDA2MjUgMzQuNzUgTCAyMTUuMjE4NzUgMjMwLjU5Mzc1IEwgMjQuNTMxMjUgMjMwLjU5Mzc1IEMgMjEuNjkwNTQ0IDIzMC41OTM3NiAxOS40MDYyNSAyMjguMzA5NDYgMTkuNDA2MjUgMjI1LjQ2ODc1IEwgMTkuNDA2MjUgMzQuNzUgeiAiDQogICAgICAgaWQ9InBhdGgzMTk2IiAvPg0KICA8L2c+DQo8L3N2Zz4NCg==;strokeColor=#000000;spacingTop=-3;spacingBottom=-3;spacingLeft=-3;spacingRight=-3;points=[];labelBackgroundColor=#ffffff;rounded=0;html=1;whiteSpace=wrap;" vertex="1" parent="1">
          <mxGeometry x="231.05691358024688" y="331.38" width="72" height="72" as="geometry" />
        </mxCell>
        <mxCell id="KjuzfbItVxYMDOMurPIg-34" style="edgeStyle=orthogonalEdgeStyle;rounded=0;orthogonalLoop=1;jettySize=auto;html=1;" edge="1" parent="1" source="KjuzfbItVxYMDOMurPIg-36" target="KjuzfbItVxYMDOMurPIg-32">
          <mxGeometry relative="1" as="geometry">
            <mxPoint x="260" y="460" as="targetPoint" />
            <Array as="points">
              <mxPoint x="267" y="538" />
            </Array>
          </mxGeometry>
        </mxCell>
        <mxCell id="KjuzfbItVxYMDOMurPIg-35" value="Contains pyspark script to execute glue job" style="edgeLabel;html=1;align=center;verticalAlign=middle;resizable=0;points=[];" connectable="0" vertex="1" parent="KjuzfbItVxYMDOMurPIg-34">
          <mxGeometry x="-0.5982" y="2" relative="1" as="geometry">
            <mxPoint as="offset" />
          </mxGeometry>
        </mxCell>
        <mxCell id="KjuzfbItVxYMDOMurPIg-36" value="&lt;div style=&quot;font-size: 1px&quot;&gt;&lt;font style=&quot;font-size:11.64px;font-family:Helvetica;color:#000000;direction:ltr;letter-spacing:0px;line-height:120%;opacity:1&quot;&gt;&lt;b&gt;GLUE SCRIPT&lt;/b&gt;&lt;/font&gt;&lt;/div&gt;" style="verticalAlign=middle;align=center;overflow=width;vsdxID=320;fillColor=none;gradientColor=none;shape=stencil(nZBRDoQgDERP03+WHsHFe5iISyOCQdT19kIaIxq//Jtp3zTpAFaTaUYNUkwx+F6v1EYD+AUpyRkdKCYFqACrzgf9C352LfuxyWRWg1/yhT/nRE5IsZWuZtCSK8CPeI0e/hF+jV7AJM4PO7KWCyr390bSiNtEtQM=);strokeColor=none;spacingTop=-3;spacingBottom=-3;spacingLeft=-3;spacingRight=-3;points=[];labelBackgroundColor=none;rounded=0;html=1;whiteSpace=wrap;" vertex="1" parent="1">
          <mxGeometry x="211.65333333333336" y="407.3" width="110.80246913580247" height="30" as="geometry" />
        </mxCell>
        <mxCell id="KjuzfbItVxYMDOMurPIg-37" value="&lt;div style=&quot;font-size: 1px&quot;&gt;&lt;font style=&quot;font-size:11.64px;font-family:Helvetica;color:#000000;direction:ltr;letter-spacing:0px;line-height:120%;opacity:1&quot;&gt;&lt;b&gt;GLUE&lt;/b&gt;&lt;/font&gt;&lt;/div&gt;" style="verticalAlign=middle;align=center;overflow=width;vsdxID=321;fillColor=none;gradientColor=none;shape=stencil(nZBRDoQgDERP03+WHsHFe5iISyOCQdT19kIaIxq//Jtp3zTpAFaTaUYNUkwx+F6v1EYD+AUpyRkdKCYFqACrzgf9C352LfuxyWRWg1/yhT/nRE5IsZWuZtCSK8CPeI0e/hF+jV7AJM4PO7KWCyr390bSiNtEtQM=);strokeColor=none;spacingTop=-3;spacingBottom=-3;spacingLeft=-3;spacingRight=-3;points=[];labelBackgroundColor=none;rounded=0;html=1;whiteSpace=wrap;" vertex="1" parent="1">
          <mxGeometry x="23.002469135802485" y="585" width="66.48148148148148" height="30" as="geometry" />
        </mxCell>
        <mxCell id="KjuzfbItVxYMDOMurPIg-38" style="vsdxID=326;fillColor=#759C3E;gradientColor=none;shape=stencil(zVbbboMwDP0aXq0kJrfnrvuPSqUDjUFF6S5/P1A01pBiyATV3hI4B+z4+MQJ7i754Zwlgl3apn7NPopjmyf4lAhRVHnWFG23SnCf4O5UN9lLU1+ro9ufDz2yX73V7/0XPh1Psp4i2Jfbcub2zw5bFtUN1odqDZYvBSsDZhrLGTDh4zVI4uMhgVsQliAYSLlPUCCn8QIB0cdrSIkfhAQJgsgA5TgD4uB1Ctb40SAYIvyQIBE0QTASrA0IOoagFFiC8KOsW0WI5fBebdNoWsXd4lf+p6IshzdTXRHKRTPAKEF2+THyODZW8IIU/JxDRXYqMkTOoeQ1B03UdNMeWRA+6XzakA2CQ3UGggSjYghSksc5ikcqyjHngg8k7y6MWeH/i+tgFIRJISU6ae3ej7bCqMJFy2ILK/+rOiI9PK6ODx4Y5vw59gYIzU1ZUGvaZ7RB3/GsdEWHizPQOwODBf7QCWPaC7rFeGDuHrlhG/ff);strokeColor=#000000;spacingTop=-3;spacingBottom=-3;spacingLeft=-3;spacingRight=-3;points=[];labelBackgroundColor=none;rounded=0;html=1;whiteSpace=wrap;" vertex="1" parent="1">
          <mxGeometry x="-155.95679012345678" y="716" width="72.02160493827161" height="69" as="geometry" />
        </mxCell>
        <mxCell id="KjuzfbItVxYMDOMurPIg-39" style="vsdxID=328;fillColor=#D9A741;gradientColor=none;shape=stencil(1VVJbsMwDHyNrgQpaj2n6T8CxKmFunbguNvvK1dIWtmwUqNAlxslzRDDVYI3p3p3rITE09B399Vz2A+14BshZWjrqg9DtARvBW8OXV/d9d1ju0/n425EjtZD9zR6eEk8jYBmZEl8TTeE+H6+TfAmtJ/grIFkBvcM2qwhWAveLRMkg8kFOQRllwmYgZUDKoDn3skAyjX6yYFehZdAapmgNCjK4wXNBTyD8hleF9OjHaDL8IXyegPOTtNjC2o8AedqohymZcK5uy5wBVRonyncxuQUvF/t5mh8TMIhNM3lZWlA/lg/fkHOLMa0LK5G+vOr4D+NhiPQ+WgoPJfiV0ZjLkhr8IXVNK+vAV9I5zeGKRrTDyhepc+Lt28=);strokeColor=#000000;spacingTop=-3;spacingBottom=-3;spacingLeft=-3;spacingRight=-3;points=[];labelBackgroundColor=none;rounded=0;html=1;whiteSpace=wrap;" vertex="1" parent="1">
          <mxGeometry x="304.3441975308642" y="710" width="63.15740740740741" height="53" as="geometry" />
        </mxCell>
        <mxCell id="KjuzfbItVxYMDOMurPIg-40" value="&lt;div style=&quot;font-size: 1px&quot;&gt;&lt;font style=&quot;font-size:13.58px;font-family:Helvetica;color:#000000;direction:ltr;letter-spacing:0px;line-height:120%;opacity:1&quot;&gt;MONITORING AND ALERTING&lt;/font&gt;&lt;/div&gt;" style="verticalAlign=middle;align=center;overflow=width;vsdxID=329;fillColor=none;gradientColor=none;shape=stencil(nZBRDoQgDERP03+WHsHFe5iISyOCQdT19kIaIxq//Jtp3zTpAFaTaUYNUkwx+F6v1EYD+AUpyRkdKCYFqACrzgf9C352LfuxyWRWg1/yhT/nRE5IsZWuZtCSK8CPeI0e/hF+jV7AJM4PO7KWCyr390bSiNtEtQM=);strokeColor=none;spacingTop=-3;spacingBottom=-3;spacingLeft=-3;spacingRight=-3;points=[];labelBackgroundColor=none;rounded=0;html=1;whiteSpace=wrap;" vertex="1" parent="1">
          <mxGeometry x="-93.90740740740739" y="654" width="232.6851851851852" height="30" as="geometry" />
        </mxCell>
        <mxCell id="KjuzfbItVxYMDOMurPIg-41" value="&lt;div style=&quot;font-size: 1px&quot;&gt;&lt;font style=&quot;font-size:11.64px;font-family:Helvetica;color:#000000;direction:ltr;letter-spacing:0px;line-height:120%;opacity:1&quot;&gt;&lt;b&gt;CLOUD WATCH&lt;/b&gt;&lt;/font&gt;&lt;/div&gt;" style="verticalAlign=middle;align=center;overflow=width;vsdxID=331;fillColor=none;gradientColor=none;shape=stencil(nZBRDoQgDERP03+WHsHFe5iISyOCQdT19kIaIxq//Jtp3zTpAFaTaUYNUkwx+F6v1EYD+AUpyRkdKCYFqACrzgf9C352LfuxyWRWg1/yhT/nRE5IsZWuZtCSK8CPeI0e/hF+jV7AJM4PO7KWCyr390bSiNtEtQM=);strokeColor=none;spacingTop=-3;spacingBottom=-3;spacingLeft=-3;spacingRight=-3;points=[];labelBackgroundColor=none;rounded=0;html=1;whiteSpace=wrap;" vertex="1" parent="1">
          <mxGeometry x="-181.44135802469134" y="785" width="121.88271604938272" height="30" as="geometry" />
        </mxCell>
        <mxCell id="KjuzfbItVxYMDOMurPIg-42" value="&lt;div style=&quot;font-size: 1px&quot;&gt;&lt;font style=&quot;font-size:11.64px;font-family:Helvetica;color:#000000;direction:ltr;letter-spacing:0px;line-height:120%;opacity:1&quot;&gt;&lt;b&gt;SES&lt;/b&gt;&lt;/font&gt;&lt;/div&gt;" style="verticalAlign=middle;align=center;overflow=width;vsdxID=333;fillColor=none;gradientColor=none;shape=stencil(nZBRDoQgDERP03+WHsHFe5iISyOCQdT19kIaIxq//Jtp3zTpAFaTaUYNUkwx+F6v1EYD+AUpyRkdKCYFqACrzgf9C352LfuxyWRWg1/yhT/nRE5IsZWuZtCSK8CPeI0e/hF+jV7AJM4PO7KWCyr390bSiNtEtQM=);strokeColor=none;spacingTop=-3;spacingBottom=-3;spacingLeft=-3;spacingRight=-3;points=[];labelBackgroundColor=none;rounded=0;html=1;whiteSpace=wrap;" vertex="1" parent="1">
          <mxGeometry x="310.9923456790124" y="776" width="55.401234567901234" height="30" as="geometry" />
        </mxCell>
        <mxCell id="KjuzfbItVxYMDOMurPIg-43" value="&lt;div style=&quot;font-size: 1px&quot;&gt;&lt;p style=&quot;text-align:left;margin-left:0;margin-right:0;margin-top:0px;margin-bottom:0px;text-indent:0;vertical-align:middle;direction:ltr;&quot;&gt;&lt;/p&gt;&lt;ul style=&quot;margin: 0;list-style-type: disc&quot;&gt;&lt;font style=&quot;font-size:13.58px;font-family:Helvetica;color:#000000;direction:ltr;letter-spacing:0px;line-height:120%;opacity:1&quot;&gt;&lt;/font&gt;&lt;li&gt;&lt;font style=&quot;font-size:13.58px;font-family:Helvetica;color:#000000;direction:ltr;letter-spacing:0px;line-height:120%;opacity:1&quot;&gt;Source Config&lt;/font&gt;&lt;font style=&quot;font-size:11.64px;font-family:Helvetica;color:#000000;direction:ltr;letter-spacing:0px;line-height:120%;opacity:1&quot;&gt;&lt;/font&gt;&lt;/li&gt;&lt;li&gt;&lt;font style=&quot;font-size:13.58px;font-family:Helvetica;color:#000000;direction:ltr;letter-spacing:0px;line-height:120%;opacity:1&quot;&gt;Secret Name&lt;/font&gt;&lt;/li&gt;&lt;li&gt;&lt;font style=&quot;font-size:13.58px;font-family:Helvetica;color:#000000;direction:ltr;letter-spacing:0px;line-height:120%;opacity:1&quot;&gt;Target Config&lt;/font&gt;&lt;/li&gt;&lt;/ul&gt;&lt;p&gt;&lt;/p&gt;&lt;p style=&quot;text-align:center;margin-left:0;margin-right:0;margin-top:0px;margin-bottom:0px;text-indent:0;vertical-align:middle;direction:ltr;&quot;&gt;&lt;font style=&quot;font-size:11.64px;font-family:Helvetica;color:#000000;direction:ltr;letter-spacing:0px;line-height:100%;opacity:1&quot;&gt;&lt;br&gt;&lt;/font&gt;&lt;/p&gt;&lt;/div&gt;" style="verticalAlign=middle;align=left;overflow=width;vsdxID=337;fillColor=none;gradientColor=none;shape=stencil(nZBRDoQgDERP03+WHsHFe5iISyOCQdT19kIaIxq//Jtp3zTpAFaTaUYNUkwx+F6v1EYD+AUpyRkdKCYFqACrzgf9C352LfuxyWRWg1/yhT/nRE5IsZWuZtCSK8CPeI0e/hF+jV7AJM4PO7KWCyr390bSiNtEtQM=);strokeColor=none;spacingTop=-3;spacingBottom=-3;spacingLeft=-3;spacingRight=-3;points=[];labelBackgroundColor=none;rounded=0;html=1;whiteSpace=wrap;" vertex="1" parent="1">
          <mxGeometry x="-260.1064197530864" y="320.3" width="166.2037037037037" height="87" as="geometry" />
        </mxCell>
        <mxCell id="KjuzfbItVxYMDOMurPIg-44" value="&lt;div style=&quot;font-size: 1px&quot;&gt;&lt;p style=&quot;text-align:left;margin-left:0;margin-right:0;margin-top:0px;margin-bottom:0px;text-indent:0;vertical-align:middle;direction:ltr;&quot;&gt;&lt;ul style=&quot;margin: 0;list-style-type: disc&quot;&gt;&lt;font style=&quot;font-size:13.58px;font-family:Helvetica;color:#000000;direction:ltr;letter-spacing:0px;line-height:120%;opacity:1&quot;&gt;&lt;li&gt;Logs generated by glue job&lt;/font&gt;&lt;font style=&quot;font-size:11.64px;font-family:Helvetica;color:#000000;direction:ltr;letter-spacing:0px;line-height:120%;opacity:1&quot;&gt;&lt;/font&gt;&lt;/li&gt;&lt;/ul&gt;&lt;/p&gt;&lt;p style=&quot;text-align:center;margin-left:0;margin-right:0;margin-top:0px;margin-bottom:0px;text-indent:0;vertical-align:middle;direction:ltr;&quot;&gt;&lt;font style=&quot;font-size:11.64px;font-family:Helvetica;color:#000000;direction:ltr;letter-spacing:0px;line-height:100%;opacity:1&quot;&gt;&lt;br/&gt;&lt;/font&gt;&lt;/p&gt;&lt;/div&gt;" style="verticalAlign=middle;align=left;overflow=width;vsdxID=343;fillColor=none;gradientColor=none;shape=stencil(nZBRDoQgDERP03+WHsHFe5iISyOCQdT19kIaIxq//Jtp3zTpAFaTaUYNUkwx+F6v1EYD+AUpyRkdKCYFqACrzgf9C352LfuxyWRWg1/yhT/nRE5IsZWuZtCSK8CPeI0e/hF+jV7AJM4PO7KWCyr390bSiNtEtQM=);strokeColor=none;spacingTop=-3;spacingBottom=-3;spacingLeft=-3;spacingRight=-3;points=[];labelBackgroundColor=none;rounded=0;html=1;whiteSpace=wrap;" vertex="1" parent="1">
          <mxGeometry x="-280.05555555555554" y="796" width="254.8456790123457" height="50" as="geometry" />
        </mxCell>
        <mxCell id="KjuzfbItVxYMDOMurPIg-45" vertex="1" parent="1">
          <mxGeometry x="-145.98456790123456" y="406" as="geometry" />
        </mxCell>
        <UserObject label="" tags="Background" id="KjuzfbItVxYMDOMurPIg-46">
          <mxCell style="vsdxID=323;edgeStyle=none;startArrow=none;endArrow=classic;startSize=5;endSize=5;strokeColor=#000000;spacingTop=0;spacingBottom=0;spacingLeft=0;spacingRight=0;verticalAlign=middle;html=1;labelBackgroundColor=#ffffff;rounded=0;entryX=0;entryY=0.5;entryDx=0;entryDy=0;entryPerimeter=0;" edge="1" parent="1" source="KjuzfbItVxYMDOMurPIg-48" target="KjuzfbItVxYMDOMurPIg-32">
            <mxGeometry relative="1" as="geometry">
              <mxPoint y="110" as="offset" />
              <Array as="points">
                <mxPoint x="-258" y="480" />
                <mxPoint x="-258" y="538" />
                <mxPoint x="-145.98456790123456" y="538" />
              </Array>
              <mxPoint x="-230.19444444444446" y="412" as="sourcePoint" />
            </mxGeometry>
          </mxCell>
        </UserObject>
        <UserObject label="" tags="Background" id="KjuzfbItVxYMDOMurPIg-47">
          <mxCell style="vsdxID=330;edgeStyle=none;startArrow=none;endArrow=classic;startSize=5;endSize=5;strokeColor=#000000;spacingTop=0;spacingBottom=0;spacingLeft=0;spacingRight=0;verticalAlign=middle;html=1;labelBackgroundColor=#ffffff;rounded=0;exitX=0.5;exitY=1;exitDx=0;exitDy=0;exitPerimeter=0;entryX=0.521;entryY=-0.041;entryDx=0;entryDy=0;entryPerimeter=0;" edge="1" parent="1" source="KjuzfbItVxYMDOMurPIg-32" target="KjuzfbItVxYMDOMurPIg-40">
            <mxGeometry relative="1" as="geometry">
              <mxPoint y="135" as="offset" />
              <Array as="points" />
            </mxGeometry>
          </mxCell>
        </UserObject>
        <mxCell id="KjuzfbItVxYMDOMurPIg-48" value="&lt;div style=&quot;font-size: 1px&quot;&gt;&lt;font style=&quot;font-size:11.64px;font-family:Helvetica;color:#000000;direction:ltr;letter-spacing:0px;line-height:120%;opacity:1&quot;&gt;&lt;b&gt;CONFIG FILE&lt;/b&gt;&lt;/font&gt;&lt;/div&gt;" style="verticalAlign=middle;align=center;overflow=width;vsdxID=377;fillColor=none;gradientColor=none;shape=stencil(nZBRDoQgDERP03+WHsHFe5iISyOCQdT19kIaIxq//Jtp3zTpAFaTaUYNUkwx+F6v1EYD+AUpyRkdKCYFqACrzgf9C352LfuxyWRWg1/yhT/nRE5IsZWuZtCSK8CPeI0e/hF+jV7AJM4PO7KWCyr390bSiNtEtQM=);strokeColor=none;spacingTop=-3;spacingBottom=-3;spacingLeft=-3;spacingRight=-3;points=[];labelBackgroundColor=none;rounded=0;html=1;whiteSpace=wrap;" vertex="1" parent="1">
          <mxGeometry x="-318.8317283950617" y="388.55" width="121.88271604938272" height="30" as="geometry" />
        </mxCell>
        <mxCell id="KjuzfbItVxYMDOMurPIg-49" value="" style="verticalLabelPosition=bottom;html=1;verticalAlign=top;align=center;strokeColor=none;fillColor=#00BEF2;shape=mxgraph.azure.cloud_services_configuration_file;pointerEvents=1;" vertex="1" parent="1">
          <mxGeometry x="-281.7129012345679" y="322.55" width="47.64506172839506" height="56" as="geometry" />
        </mxCell>
        <mxCell id="KjuzfbItVxYMDOMurPIg-50" value="" style="edgeStyle=orthogonalEdgeStyle;rounded=0;orthogonalLoop=1;jettySize=auto;html=1;" edge="1" parent="1" source="KjuzfbItVxYMDOMurPIg-52" target="KjuzfbItVxYMDOMurPIg-32">
          <mxGeometry relative="1" as="geometry">
            <Array as="points">
              <mxPoint x="30" y="460" />
              <mxPoint x="14" y="460" />
            </Array>
          </mxGeometry>
        </mxCell>
        <mxCell id="KjuzfbItVxYMDOMurPIg-51" value="For reading the last load date and writing the load date after a successful job run" style="edgeLabel;html=1;align=center;verticalAlign=middle;resizable=0;points=[];" connectable="0" vertex="1" parent="KjuzfbItVxYMDOMurPIg-50">
          <mxGeometry x="-0.0583" y="-1" relative="1" as="geometry">
            <mxPoint x="-19" y="-14" as="offset" />
          </mxGeometry>
        </mxCell>
        <mxCell id="KjuzfbItVxYMDOMurPIg-52" value="&lt;div style=&quot;font-size: 1px&quot;&gt;&lt;font style=&quot;font-size:11.64px;font-family:Helvetica;color:#000000;direction:ltr;letter-spacing:0px;line-height:120%;opacity:1&quot;&gt;&lt;b&gt;RDS Control Table&lt;/b&gt;&lt;/font&gt;&lt;/div&gt;" style="verticalAlign=middle;align=center;overflow=width;vsdxID=377;fillColor=none;gradientColor=none;shape=stencil(nZBRDoQgDERP03+WHsHFe5iISyOCQdT19kIaIxq//Jtp3zTpAFaTaUYNUkwx+F6v1EYD+AUpyRkdKCYFqACrzgf9C352LfuxyWRWg1/yhT/nRE5IsZWuZtCSK8CPeI0e/hF+jV7AJM4PO7KWCyr390bSiNtEtQM=);strokeColor=none;spacingTop=-3;spacingBottom=-3;spacingLeft=-3;spacingRight=-3;points=[];labelBackgroundColor=none;rounded=0;html=1;whiteSpace=wrap;" vertex="1" parent="1">
          <mxGeometry x="-41.85216049382713" y="383.05" width="144.04320987654322" height="30" as="geometry" />
        </mxCell>
        <mxCell id="KjuzfbItVxYMDOMurPIg-53" value="" style="sketch=0;outlineConnect=0;fontColor=#232F3E;gradientColor=none;fillColor=#7AA116;strokeColor=none;dashed=0;verticalLabelPosition=bottom;verticalAlign=top;align=center;html=1;fontSize=12;fontStyle=0;aspect=fixed;pointerEvents=1;shape=mxgraph.aws4.simple_storage_service_directory_bucket;" vertex="1" parent="1">
          <mxGeometry x="578" y="515.82" width="75" height="78" as="geometry" />
        </mxCell>
        <mxCell id="KjuzfbItVxYMDOMurPIg-54" value="" style="shape=image;verticalLabelPosition=bottom;labelBackgroundColor=default;verticalAlign=top;aspect=fixed;imageAspect=0;image=data:image/jpeg,/9j/4AAQSkZJRgABAQAAAQABAAD/2wCEAAkGBwgHBgkIBwgKCgkLDRYPDQwMDRsUFRAWIB0iIiAdHx8kKDQsJCYxJx8fLT0tMTU3Ojo6Iys/RD84QzQ5OjcBCgoKDQwNGg8PGjclHyU3Nzc3Nzc3Nzc3Nzc3Nzc3Nzc3Nzc3Nzc3Nzc3Nzc3Nzc3Nzc3Nzc3Nzc3Nzc3Nzc3N//AABEIAJQApAMBEQACEQEDEQH/xAAcAAEAAgMBAQEAAAAAAAAAAAABAgUEBgcAAwj/xABJEAABAwMBAwcGCgcGBwAAAAABAAIDBAURBhIhMQcTIkFRcdEyYZGhscE2QlJVYnJ0gZOyFBUXNYKS0hZjlLPh8CMmNEVTovH/xAAaAQEAAgMBAAAAAAAAAAAAAAAAAQMCBAUG/8QANBEAAgIBAQUDCgcBAQAAAAAAAAECAxEEBRITITFBUaEUIjJSYXGBkbHBFTM0QtHh8CMk/9oADAMBAAIRAxEAPwDX17c555AIKECgEFASBQgQgFSBUECEAqSBCAQUBJAIQgUAoBCECCgFSCWUIwVCxLxQHkAhCBQCCgJBCBQCpAhQQIQCpIFASCAQgFCBQCEAoQSCAUBTqC8kEIFAbVo3SB1JT1FQ+r5hkMnNgBm0ScA+9c/W67yZqKWcllde/wA8mxfsviH/AHWT8EeK0vxl+p4lnk67z37LovnST8EeKfjL9TxHk67zQrvRi3XSqo9svEEhYHEYzjrwuzTZxK4z7zXksPBihWGIoBUgVBAhAIUkCgNt0vo4X62msNaYcSOZsiMHh15yuZrNo+T27m7kvrp31nJcfs0b86O/BHitX8ZfqeJn5N7Tx5NRjo3Q56swjxT8ZfqeI8m9podRE6nqJoHkF0UjmEjgcHHuXbjLeipd5qtYeD5rIgkhAhAVAKgvEICQQg6lySv5uw3J4GS2pJx/A1cDbCzdH3fc2aPRZmVLKHXtjbVW+ofTVsYwCHkGN3HZcBxHnVUXZs+7dmsxfj7iWlbHKOYVzbjb6uWlrJKiOaI4c0yu8d48679fDsgpxw0/YjWeU8GISXOJcSSeJJySrUkjE9lASQgQgFSBCggQgFSQfaKpqIm7MU8kbexjyPYsXCMnzWScs2/Rdgrbu9tbXVNS2gactHOuBmP9K5Wv1ddK3IJbz9i5F9VblzfQ3q1XyluNyqqGi6TKNrQ6QHcXEkYHdjiuNdpp1VxnP9xsxmpSaXYcfuv72rvtMv5yvWU/lR9y+hz5+kzGVhiIKAUIKhQbAgoQKA6jyUfB26/aD/ltXB2t+fD3fc2KfRZz6w3irslZHWUMmHAAOYfJkb2FdjUUQvi4zNeMnF5Om1dLbOUCytqaRzYa6IYBcelE7jsuxxae1cGE7dn27sucX4+1Gy1GyOV1OXV1HUW+rkpayJ0U0Zw5p9o8y9DXZCyKlB5TNVpp4Z8FmQIKAkChA5QCpAqCBQG36L0k+7SNrbgwsoGHc07jMfN9Hz9a5m0NeqFw6+cvoX1Vb3N9DO1pq1uw60WVwZA0bEsrOG7dsN83nVOg2e0+Nd16pfdk22/tiT5Jv+quX1I/a5NtejD4jTdpp12/e1f9pl/OV1afyo+5fQ15+kzGVpiKAUBULEvPKQOdyEFnbL7dLVDLBbqx0EUrtp7WtacnGOsdgVFumqtkpTjlmSk4rCK8bhhXmJYWS71dlr2VlE/Dxue0+S9vYQqb6IXw3JomMnF5RO+3iqvlwfWVhG0RssY3gxvUB6U09EKIbkRKW88srxv3Dj2K4wLy36UvtwaHwW6VrDwdMObHr3rVs12nr5OXy5mark+wtmcnF/e3Jdb2HsfO73MK1ntbTLv+X9mXAmfQ8m18BGzU20jrzK/+hR+L6fufyX8k8CZi1Gg9QQNJEEEw/uZQfbhWx2nppdXj4GLpmihraGroJObraWaB/ZIwjPcev7luQshYsweSuUWuqPgszEu2aoubLH+qGy4h8kP+OGfJz2LUeip43GxzLOLLd3SmC3Coz7VeK+0Okdb5zCZAA8gA5xw4jzqm7T1XY4izgyjNx6GLJK6aV8sh2nvcXOPaSclWpKKSRi3nmCkCEIFAU4WJeSQCpAgoQIQGdarVcLtLzdupZJyOJaOi3vPAKq2+ulZm8EqLfRHwqYJaWplpqhuxLE8seOwg4WcJqcVKPRmLWDpeg7TQ27Tv6+npn1NU5rnjZbtOY0btlo7dy4W0LrLb+BF4X+6mzXFKO8VVy5S7jM8i3U0FOzPGTpv8Fs1bIqS895fyMJXvsKWbWWopjl10lb5mNa32BbcdBpl+ww4k+8+bdV39pyLtU/e4FT5Fp/URHEn3lhSa+1BTkc5Ux1DR1SxN9owqp7L00+ix7iVdNG56c1HT6vjmt9wthyGZecbUR+/qK5Op0ktE1OE/5L4TVnJo53qe2MtF8qqKJ2YmOyzPENO8A93Bd3SXO6lTfU1bI7smj6x6ZvElsiuMFI6aCRu0Ob3uxn5PH0LF62hWOtyw0FVLGSpILSWuBBBwQRghbSfcYM8pIFAIKAkEAoQU6xNgQUIJIBGTuAJ7gpB0XS+gYm0/6x1MebiA2xTl2yA3jl56u70ri6rabb4dHXv/AILoVdsjLu/KHQW5n6Hp6jZIGbhIRsxDuA3n1KqnZdlnn3v+SXalyic7uNdPcq6Wsqy108py8taGj0Lt1VxqioR6Ioby8nV9M3EWjk7guD4jK2CNzixpwT0yvPaqp3a11rt/g2YPdryYkl30NqAB1wZFDM7jzzTG/P1m+KsVGv07xDmvn4Eb1cuoDSGjqkbVLcAAfkVgd7cqfL9bHlKPgRwq2I0Lplm99xkx56hgT8R1b6Q8GOFABatA2xwfNUU8z29T6l0v/qDj1Jx9o28kmvhjxI3KolnY9WWmtusVos1K8Rlrnc5sBjBgdQ4n1LX1Giurrd1rM42Rct1GicofwsrPqs/KF2tm/po/H6mvd6Z97Drq5WuOOnnbHV0sYDWsIDHNaOABHvBWGo2XVa3KPJsmF0o8jbANOa5gJaDDXNbn5MrPRucPSub/AOrQS584+H9FvmW+80HUNhq7BVc1VAOjfnmpm+S/wPmXa0uqhqIZj17Ua04OD5lUtorFASBQCgKhYl55AIUkG9cldkZX3SW4VDA6KjxzbTwMh6/uHtXJ2rqHXWoR/d9C2qOXkxNe6pnvVwko6eRzbdTvLWsG7nXAnpHtHZ6Vbs/SRpgpyXnPwIslvPBqgK6JUOUB1yx0Et05MmUNOWiWaFzWFx3Z2iV5y+1Va/fl0T+xsxW9XhHM7jaLla5DHXUU0P0iwlp7ncCu9XfVaswkmazi11Rg9E8cK7mYiGsG/DfQoyD6RNdI7ZiaXk8Gsbk+gI2kssLmb9ydadulPeI7nV0r6enbG5oEw2XuyOpvH04XG2nq6ZVcOLyy+mEt7LKblE+FlX3M/KFt7N/TR+P1MLvTZrgW8VH0gmlp5mTwPdHKw5a9pwWlRKKnFxl0ZK5PJ1O0VMWttLTU1YB+lxDYc7GOnjovHf4rzl0JaDUqcOj/ANg2oviwwzlr2PikfHIMPY4tcOwjivSJprKNP2ApIFAIKAqViXigPIDqHI9URuo7pRbWJOcbL59kjZ93rXC2xF70J9nQup6NHPLrQzWy5VNFUNIkhkLTnrGdxHmIwV2arI2VqUe0paw8GMrSBCEHWrPXT2zkvbW0hAmhic5u0MjO32Lzl1cbdobkujf2NmLxXlFdQcqGW7Fztm12ugdx/hd4q+zY/PNcvn/Rir+9GYdY6Oq99VbyCePOUbXezKr8g1sPRl4k8St9hFupNBxdKOgiz5qD/RT5JtF9ZeI4lfcSfyiWKkbigtk5I4YjZGPb7lC2VqJ/mSXiONBdES01rWuvupIaQwRQUpY9xa07TiQN2T4Jqtnw09DnnL5CFjlLGDVOUT4W1ncz8oXS2b+lj8fqU3ema4FvFQhAdK5K6R9PQ19wmyyGUgMJ6w3JJ9a4O17FKca11X3NnTrCbOfV0zaivqp2eTLM97e4uJ967dcd2Ci+xL6GtLm8nxWZAqSBQFQCsTYJBCBQFjYbxU2K6Q11JguZuew8JGni0/77FTfRG+t1yMoycXk6hcLbZuUG2trrfOIq+NuyHkdJnXsPHZv4+hcKq6/Z89ya81/7KLnGNiyc0vdgudjmLLhSvYz4szRtRu7j7l3KNTXeswfw7SiUXHqVq2DE7LpSghunJ7T0NQ5zYpo3NcWnBHSK8xq7HVrXOPVGzBZhhmo3Pk1vFM5xoZYKuPq37D/vB8V0qtrUy9PkVOmS6FJLpXUEJxJaKvP0Gh/sytuOt00uk0YOuXcQbpy+O4Weu/AcFl5Xp/XRG5LuM6j0RqKpcAbeYQfjTPa335VU9o6aH7s+4yVU32G86N0S6xVgr6yqbLU7BaxkY6Lc8d54rka3aK1EeHFYRdXVuvLZpfKJ8Lqz6rPyhdbZv6aPx+pRd6bNdja57wxjS5zjgNaMknuW8+SyyvBuumNBVVa5lTeQ6mpRv5k7pH9/yR61ydVtSEE41c339iLoUt85dDN1rqemgov1DY3NETW81NJH5LGjdsN95VWg0UpS493+9plbYkt2Jz9dw1cCoAhAKkFQsS8QUBIFCBQGVbrhWWyqbVUFQ+CZu4OaersI4EeYrCyuFkd2ayiU2joVn5TIJom02oaPaDtzpYmhzT3sPuyuNdslxe9TL5/yWq1fuNEvtRS1N4q5rfCyGldIeaYxuBsjrx5+K69EZwqipvLKZNZyjo9CJH8kjv0cPdLzDi0R52s7fVhcSzH4l53TPb7i9flGmW/W2oKBoZHcDKwbgyoaJPWd/rXVs2fp59Y49xTxJouoOU+7NbiajpJHdo2m+9ar2PT2SZmrn3H1PKjcCOjbqX+dxWK2PX2yY477jCquUa/zAiD9Fp29rItoj0nHqVsdladdcsx40jL0FcrpdtXRS11TUVDY4ZNok9FmRu3DcFhr6aatM1BJc0TXKUpcys5RT/zdWdfRZ+ULY2a//NH4/Uwu9Nl/YNTabsdkppWUgdcjHiVkUeXlw3ZLjwzxWlqNFqr7mm/N9pbGyEV7Sj1Dra53kOhjIpKV3GOI73D6TvctzT7Oqp5vmyudspGtjit8pEIBUgQoIEICoCg2BQgQgJBCBQHlIEHsUEG2aN1nPp5ppZ4jUULnF2wDhzCeJb4Ln6zQR1D308SLIWbvJm2uqdA6iJlqBTU87vKL8078+cjAPrXPUNoabkstfMs/5yD+wGmarpUdzkA/u52PU/ieqhynHwZHCg+jPDk1srd7rpUkfWZ4J+LX+ovH+Rwo94/2a0PbTmtrYZHD4stX7mkJ5Xr7OUY/JE7la7T51uurJZ6V1NpyiY9wGG7MfNxg9vDJU17NvulvXy+7IdsYrzUc5rauevrJquqeXzTPLnuPb4Lu11xhFQiuSNdtt5Z8R6lkYigFASBQgUAqQKggqFBsDlAKEG76E0lQahtNbV1sk7JKeUsaIn4GNgHs865mu1lmnsjGHRlkIKSyaUw5aO5dQqN70Fox1zLLpdmFlA05jifu5/HWexvt7lydfr+F/wAq/S+hbCvPNlBq4WgX2cWEk0vXjyNrr2Po/wCq3NHxuCuN1MJpb3IpgVsmBJSALGO8prXd4RNroDwjj/8AGz+UKd5kE2gAYAwFAJ5QgcoDoOm9N2O/6XdHSzbN1bgyyu8qN/Zj5H/1cXU6vUafUZmvN7F3r+TYjCM48uppNyoKm11stHWxOjmjOMEbnDqIPWD2rrVWxtipweUzXlHdeGbDoPTtJqGasZWPlYIGsLebdjOc+C09oauzTKLh2llUFPOTXq+JtPX1UDMlkUz42k8cBxHuW9XLehGT7UitrDaPiCsjEQgFSCoWJeIQCEB1fki+Dd2+0H/LauDtf86Hu+5bV0ZR8n2ijc2x3S7sLKBozHE4YM3Defoe1bO0Neq81185Pw/sxhDPN9D7691sKsPtFkeG0TejLNGcc5j4rcfF9vcsdBoNz/rb17v92iyeeSNCC65UeQCNyEEkAqQIKECEBLKEGbaLpV2euZWUMhZI07wfJeOwjsVV1MLoOE+hMZOLyjpz2WvlCsm1GRBXwjvdC7sPa0/73rgJ27Otx1i/H+zZ822PtMLkyoKq13e8UdbEY5mMj4jc4ZdgjtHnV21LYW1Vzg8p5+3UxpTTaZoF4/fFw+1S/nK7VP5UfcvoUS6sxMqwxJBCBQFQoNg8hBIIDrfIxsuslyacHNXvH8DVwNsfmx933LquhsWrLLc7xQtoLZXxUFMRiX/hEucPkjBGAtPS31Uy35x3mZyTawaV+yWt+eafH2d39S6b2zD1H8yrgvvNHu1E62XOqoHyCR1PIWF7RgOx14XVqs4lamu0qaw8GKsyDyAQUIJIBUgQUIEIDbNMaJqdQ239Nhr4oGiQx7Loi47u4hc7U7QjprNxxyWQqc1nJsdp0Bd7RXR1lFe4WSMO8cw7Dx1gja4LSu2nTdBwnW/n49CyNUovKZ0COPBEj2s53ZDXOaPV3LjN9i6F5+f7v+9689Rqpcfzlezp/Kj7l9DQl1ZiqwxEICQKEFQoNgUB5SQZVHcKyiLjRVc9OXDpc1IW578KudcJ+kskptdDKGoLz87V3+Id4rDyan1F8hvPvJf2gvPzrXf4h3ink1PqL5DefeYMksk8r5Znukkecue45JPaVckksIxI5QgkgPIBCEEggPKQOUIM2ludwpI+apa6ohjznZjkLRnuCrnTXN5lFMlSa6H2F9vHzpW/ju8Vj5NT6i+RO8+88b3dnAh1zrSDuI593ii09K/YvkRvPvMFXGIoQKAUBUqC8QgFAIQgQgEIBQgQUBJCBQHkAgoQSQCpAgoQIQEkIFAeQCEIFAVA4qDYJBCBQCgYhCBQChAoCSAQhAoDwQCEIJIBUhiOCEEkAhCBQHggEIQf/9k=;" vertex="1" parent="1">
          <mxGeometry y="320.3" width="60.34" height="54.45" as="geometry" />
        </mxCell>
      </root>
    </mxGraphModel>
  </diagram>
</mxfile>
